<?xml version="1.0" encoding="utf-8"?>
<!-- Generator: Adobe Illustrator 26.0.2, SVG Export Plug-In . SVG Version: 6.00 Build 0)  -->
<svg version="1.1" id="レイヤー_1" xmlns="http://www.w3.org/2000/svg" xmlns:xlink="http://www.w3.org/1999/xlink" x="0px"
	 y="0px" width="278px" height="122px" viewBox="0 0 278 122" style="enable-background:new 0 0 278 122;" xml:space="preserve">
<style type="text/css">
	.st0{enable-background:new    ;}
	.st1{fill:#FF3C00;}
	.st2{opacity:0.3;fill:#FF5533;enable-background:new    ;}
</style>
<g id="グループ_7107" transform="translate(-99)">
	<g class="st0">
		<path class="st1" d="M253.9,27.2c0-3.6,1.8-5.6,4.3-5.6s4.3,2,4.3,5.6c0,3.6-1.8,5.7-4.3,5.7S253.9,30.7,253.9,27.2z M260.1,27.2
			c0-2.6-0.8-3.6-1.8-3.6s-1.8,1-1.8,3.6s0.8,3.7,1.8,3.7S260.1,29.8,260.1,27.2z M268.5,21.6h2.1L260.9,40h-2.1L268.5,21.6z
			 M266.8,34.3c0-3.6,1.8-5.6,4.3-5.6s4.3,2,4.3,5.6c0,3.6-1.8,5.7-4.3,5.7S266.8,37.9,266.8,34.3z M273,34.3c0-2.6-0.8-3.6-1.8-3.6
			s-1.8,1-1.8,3.6s0.8,3.6,1.8,3.6S273,36.9,273,34.3z"/>
	</g>
	<g class="st0">
		<path class="st1" d="M154.8,35h8.9V9.9h-7.5V4.8c4.1-0.8,7-1.8,9.6-3.5h6.1V35h7.8v6.7h-24.9V35z"/>
		<path class="st1" d="M185.7,21.3c0-13.7,5.5-20.8,14.1-20.8c8.5,0,14,7.2,14,20.8c0,13.7-5.5,21.2-14,21.2
			C191.2,42.4,185.7,35,185.7,21.3z M205.9,21.3c0-11.2-2.6-14.3-6.2-14.3s-6.3,3.1-6.3,14.3c0,11.3,2.7,14.7,6.3,14.7
			S205.9,32.5,205.9,21.3z"/>
		<path class="st1" d="M218.6,21.3c0-13.7,5.5-20.8,14.1-20.8s14,7.2,14,20.8c0,13.7-5.5,21.2-14,21.2S218.6,35,218.6,21.3z
			 M238.9,21.3c0-11.2-2.6-14.3-6.2-14.3s-6.3,3.1-6.3,14.3c0,11.3,2.7,14.7,6.3,14.7S238.9,32.5,238.9,21.3z"/>
	</g>
	<g class="st0">
		<path class="st1" d="M120.1,32.4c0,0,0,0.8-0.1,1.2c-0.4,4.4-0.9,6.3-1.6,7.1c-0.7,0.7-1.4,0.9-2.4,0.9c-0.8,0.1-2.3,0-3.8,0
			c0-0.8-0.4-1.9-0.9-2.6c1.5,0.1,3,0.1,3.6,0.1c0.5,0,0.8,0,1.1-0.2c0.4-0.4,0.8-1.6,1.1-3.9h-6.3c-1.2,3.1-3.7,5.4-9.8,6.7
			c-0.2-0.7-0.9-1.9-1.5-2.5c4.7-0.9,6.9-2.3,8-4.2h-7v-2.6h7.9c0.1-0.5,0.2-1.1,0.3-1.7h-6.6V20.5h17.3v10.2h-7.7
			c-0.1,0.6-0.2,1.1-0.3,1.7H120.1z M104.9,24.5h4.2v-1.7h-4.2V24.5z M104.9,28.4h4.2v-1.7h-4.2V28.4z M116.3,22.9H112v1.7h4.3V22.9
			z M116.3,26.7H112v1.7h4.3V26.7z"/>
		<path class="st1" d="M145.8,38.3V41h-14.9v-2.7h6.4v-4.8h-4.6v-2.7h4.6v-3.9h-2.6c-0.4,1.2-0.8,2.4-1.3,3.3
			c-0.6-0.4-1.9-1-2.5-1.3c0.2-0.4,0.5-0.9,0.7-1.4l-1.4,0.6c-0.1-0.7-0.5-1.8-0.9-2.8v16.4h-2.9V24.6c-0.1,2-0.5,4.7-1.1,6.4
			l-2.1-0.8c0.6-1.6,1-4.3,1.2-6.2l2,0.3v-4.9h2.9v4.5l1.4-0.6c0.5,0.9,1,2.1,1.3,3c0.6-1.8,1-3.8,1.3-5.9l2.8,0.4
			c-0.2,1.1-0.4,2.3-0.6,3.3h1.9v-4.7h2.9v4.7h4.9v2.7h-4.9v3.9h4.4v2.7h-4.4v4.8H145.8z"/>
	</g>
</g>
<g id="グループ_7183" transform="translate(-99 75)">
	<g class="st0">
		<path class="st1" d="M253.9,27.2c0-3.6,1.8-5.6,4.3-5.6s4.3,2,4.3,5.6c0,3.6-1.8,5.7-4.3,5.7S253.9,30.7,253.9,27.2z M260.1,27.2
			c0-2.6-0.8-3.6-1.8-3.6s-1.8,1-1.8,3.6s0.8,3.7,1.8,3.7S260.1,29.8,260.1,27.2z M268.5,21.6h2.1L260.9,40h-2.1L268.5,21.6z
			 M266.8,34.3c0-3.6,1.8-5.6,4.3-5.6s4.3,2,4.3,5.6c0,3.6-1.8,5.7-4.3,5.7S266.8,37.9,266.8,34.3z M273,34.3c0-2.6-0.8-3.6-1.8-3.6
			s-1.8,1-1.8,3.6s0.8,3.6,1.8,3.6S273,36.9,273,34.3z"/>
	</g>
	<g class="st0">
		<path class="st1" d="M154.8,35h8.9V9.9h-7.5V4.8c4.1-0.8,7-1.8,9.6-3.5h6.1V35h7.8v6.7h-24.9V35z"/>
		<path class="st1" d="M185.7,21.3c0-13.7,5.5-20.8,14.1-20.8c8.5,0,14,7.2,14,20.8c0,13.7-5.5,21.2-14,21.2
			C191.2,42.4,185.7,35,185.7,21.3z M205.9,21.3c0-11.2-2.6-14.3-6.2-14.3s-6.3,3.1-6.3,14.3c0,11.3,2.7,14.7,6.3,14.7
			S205.9,32.5,205.9,21.3z"/>
		<path class="st1" d="M218.6,21.3c0-13.7,5.5-20.8,14.1-20.8s14,7.2,14,20.8c0,13.7-5.5,21.2-14,21.2S218.6,35,218.6,21.3z
			 M238.9,21.3c0-11.2-2.6-14.3-6.2-14.3s-6.3,3.1-6.3,14.3c0,11.3,2.7,14.7,6.3,14.7S238.9,32.5,238.9,21.3z"/>
	</g>
	<g class="st0">
		<path class="st1" d="M118.1,27.6c-0.7,3.3-1.7,5.9-3.2,7.9c2.5,1.2,4.8,2.5,6.4,3.6l-2.2,2.7c-1.5-1.2-3.9-2.6-6.5-4
			c-2.6,2-6.1,3.2-11,3.9c-0.3-0.9-0.9-2.1-1.5-2.9c4-0.5,7-1.2,9.3-2.6c-1.3-0.6-2.6-1.2-3.9-1.7l-0.4,0.9l-2.9-1.1
			c0.9-1.9,2-4.3,3-6.9h-5.4v-2.9h6.6c0.7-1.9,1.4-3.7,2-5.4l3.1,0.5c-0.6,1.5-1.2,3.2-1.9,4.8h12v2.9H118.1z M108.5,27.6
			c-0.6,1.6-1.3,3.1-1.9,4.5c1.6,0.6,3.4,1.3,5.2,2.1c1.4-1.6,2.3-3.8,3-6.6H108.5z"/>
		<path class="st1" d="M145.8,38.3V41h-14.9v-2.7h6.4v-4.8h-4.6v-2.7h4.6v-3.9h-2.6c-0.4,1.2-0.8,2.4-1.3,3.3
			c-0.6-0.4-1.9-1-2.5-1.3c0.2-0.4,0.5-0.9,0.7-1.4l-1.4,0.6c-0.1-0.7-0.5-1.8-0.9-2.8v16.4h-2.9V24.6c-0.1,2-0.5,4.7-1.1,6.4
			l-2.1-0.8c0.6-1.6,1-4.3,1.2-6.2l2,0.3v-4.9h2.9v4.5l1.4-0.6c0.5,0.9,1,2.1,1.3,3c0.6-1.8,1-3.8,1.3-5.9l2.8,0.4
			c-0.2,1.1-0.4,2.3-0.6,3.3h1.9v-4.7h2.9v4.7h4.9v2.7h-4.9v3.9h4.4v2.7h-4.4v4.8H145.8z"/>
	</g>
</g>
<path id="パス_1458" class="st2" d="M264.7,44.6h-20c-6.6,0-12,5.4-12,12v52c0,6.6,5.4,12,12,12h20c6.6,0,12-5.4,12-12v-52
	C276.7,50,271.3,44.7,264.7,44.6z M270.7,108.6c0,3.3-2.7,6-6,6h-20c-3.3,0-6-2.7-6-6v-2.5h7c1.7,0,3-1.3,3-3s-1.3-3-3-3h-7v-6h7
	c1.7,0,3-1.3,3-3s-1.3-3-3-3h-7v-6h7c1.7,0,3-1.3,3-3s-1.3-3-3-3h-7v-6h7c1.7,0,3-1.3,3-3s-1.3-3-3-3h-7v-7.5c0-3.3,2.7-6,6-6h20
	c3.3,0,6,2.7,6,6V108.6z M235.7,36.6v-4c0-2.2,1.8-4,4-4h30c2.2,0,4,1.8,4,4v4c0,2.2-1.8,4-4,4h-30
	C237.5,40.6,235.7,38.9,235.7,36.6z M269.2,25.7h-28c0.1-5.8,3.8-10.9,9.3-12.6V5.2c0.1-2.6,2.3-4.6,4.9-4.5
	c2.5,0.1,4.5,2.2,4.5,4.7V13C265.4,14.8,269.1,19.9,269.2,25.7z"/>
</svg>
