<svg xmlns="http://www.w3.org/2000/svg" width="120" height="120" viewBox="0 0 120 120"><path d="M83.473,114.145c-1.226,1.227-3.168,2.247-4.771,1.249a6.387,6.387,0,0,1-2.205-2.76,15.528,15.528,0,0,0-1.069-1.8,3.317,3.317,0,0,0-2.187-1.473c-1.44-.227-2.831.642-4.119,1.615-1.051.793-3.4,3.054-5.252,4.906-.361.361-.719.723-1.067,1.078-.772.788-2.005,2.065-2.862,3.043l-.863-.864v.211A105.743,105.743,0,0,1,51.1,111.14c-1.533-2.033-1.492-2.787-.9-3.4l.011-.01c.062-.063.106-.1.153-.144s.127-.1.2-.153c.155-.111.313-.215.47-.312l.472-.277c.242-.135.446-.244.65-.353.451-.241.919-.491,1.371-.785l.261-.175.355-.264.147-.119.217-.189c.1-.092.17-.157.237-.225a6.163,6.163,0,0,0,.878-1.11c1.581-2.548.176-5.387-1.508-7.043-1.653-1.683-4.488-3.09-7.034-1.507a6.161,6.161,0,0,0-.532.37c-.162.125-.316.258-.459.393l-.269.271-.11.121a11.319,11.319,0,0,0-1.493,2.308c-.155.293-.313.589-.484.881l-.148.248c-.1.155-.2.314-.311.469a2.524,2.524,0,0,1-.278.333l-.119.11c-.689.58-1.586.313-3.306-.986a106.835,106.835,0,0,1-8.227-8.02l-.212-.231q-.267-.294-.477-.534c1.122-.98,2.8-2.6,4.179-3.986,1.85-1.852,4.109-4.205,4.9-5.255a12.685,12.685,0,0,0,1.006-1.508l.062-.116q.132-.246.236-.494l.086-.209a3.169,3.169,0,0,0-1.247-3.985,15.508,15.508,0,0,0-1.8-1.072,6.394,6.394,0,0,1-2.756-2.207,2.7,2.7,0,0,1-.355-2,5.481,5.481,0,0,1,1.553-2.724l.1-.1c1.175-1.176,3.116-2.2,4.72-1.2a6.39,6.39,0,0,1,2.2,2.759,15.5,15.5,0,0,0,1.071,1.8,3.321,3.321,0,0,0,2.187,1.473c1.44.226,2.83-.642,4.118-1.615,1.05-.792,3.4-3.053,5.251-4.9,1.662-1.664,3.05-3.122,3.907-4.1.928.814,2.4,2.213,4.022,3.838l.195.2c2.189,2.2,3.98,4.119,4.562,4.893,1.255,1.667,1.544,2.578,1.032,3.25,0,0-.045.048-.085.088a2.578,2.578,0,0,1-.333.278,13.982,13.982,0,0,1-1.6.946A10.211,10.211,0,0,0,65.291,76.6a5.844,5.844,0,0,0-.522.6,6.05,6.05,0,0,0-.44.619c-1.582,2.548-.176,5.387,1.51,7.042l.14.14a8.323,8.323,0,0,0,1.246.994,5.127,5.127,0,0,0,5.646.373,6.083,6.083,0,0,0,1.115-.884,6.833,6.833,0,0,0,.472-.526,12,12,0,0,0,1.347-2.141,14.116,14.116,0,0,1,.944-1.6c.036-.05.071-.095.1-.138.019-.021.059-.065.1-.105.38-.38.9-.719,2.275.086a12.014,12.014,0,0,1,1.153.789c.219.166.515.416.867.728,1.814,1.608,5.106,4.864,7.191,7.108.358.387.635.694.848.938-.974.858-2.425,2.242-4.078,3.9-.312.313-.624.628-.93.939-.929.945-3.175,3.258-3.986,4.333-.972,1.29-1.839,2.682-1.613,4.123a3.319,3.319,0,0,0,1.471,2.189,15.616,15.616,0,0,0,1.8,1.071,6.393,6.393,0,0,1,2.758,2.208c1,1.605-.022,3.548-1.2,4.725ZM56.541,62.462c.878-.908,1.6-1.682,2.112-2.263-1.174-1.024-2.83-2.646-3.6-3.405l-.55-.548L53.079,54.8c-.808-.829-2.767-2.863-3.5-3.838-.87-1.154-2.681-3.556-.93-5.6a3.984,3.984,0,0,1,.291-.329,4.516,4.516,0,0,1,.563-.475c.19-.136.381-.262.573-.38.094-.058.189-.115.284-.171.314-.183.631-.353.944-.52a8.656,8.656,0,0,0,2.147-1.43l.084-.087c.065-.07.129-.145.179-.2.1-.125.191-.258.281-.4,1.33-2.144-.963-4.5-1.25-4.781-.261-.266-2.613-2.561-4.755-1.229a4.354,4.354,0,0,0-.789.626c-.1.1-.189.2-.264.288a10.9,10.9,0,0,0-1.085,1.766c-.167.312-.335.627-.517.94l-.172.285c-.119.193-.245.384-.377.57-.082.115-.166.222-.231.3a4.3,4.3,0,0,1-.321.362c-2.1,2.1-4.711.127-5.827-.715-1.06-.8-3.5-3.155-5.275-4.93l-.185-.185c-1.628-1.636-2.968-3.048-3.781-3.983-.937.827-2.37,2.2-3.973,3.8-.744.744-1.483,1.5-2.159,2.2-1.27,1.327-2.182,2.34-2.568,2.852-.695.923-1.39,1.97-1.269,2.739a1.538,1.538,0,0,0,.718.969,13.882,13.882,0,0,0,1.6.944,8.045,8.045,0,0,1,3.459,2.865c1.533,2.471.224,5.26-1.363,6.9l-.194.2C21.766,55.8,18.95,57.168,16.431,55.6a8.064,8.064,0,0,1-2.863-3.464,13.922,13.922,0,0,0-.941-1.6,1.535,1.535,0,0,0-.97-.719c-.767-.121-1.813.574-2.734,1.27-.791.6-2.825,2.5-5.06,4.739-.8.8-1.579,1.6-2.27,2.323C.94,58.84.4,59.429,0,59.884a108.453,108.453,0,0,1,9.075,9.237c.841,1.117,2.811,3.734.714,5.833a4.346,4.346,0,0,1-.342.306c-.07.056-.142.111-.223.17a15.762,15.762,0,0,1-1.8,1.071A10.7,10.7,0,0,0,5.63,77.61c-.118.1-.233.2-.345.313a4.348,4.348,0,0,0-.627.791c-1.33,2.144.963,4.5,1.25,4.781.261.266,2.613,2.561,4.754,1.23a4.518,4.518,0,0,0,.422-.3,4.361,4.361,0,0,0,.369-.329,8.7,8.7,0,0,0,1.421-2.141,15.746,15.746,0,0,1,1.069-1.8,4.513,4.513,0,0,1,.474-.564c.083-.083.167-.16.251-.229,2.057-1.714,4.436.079,5.579.942a108.483,108.483,0,0,1,9.231,9.087c.933-.817,2.416-2.231,4.057-3.874.556-.556,1.11-1.119,1.636-1.663,1.527-1.575,2.656-2.814,3.1-3.4a11.355,11.355,0,0,0,.874-1.3l.014-.026c.072-.134.139-.269.2-.414a1.389,1.389,0,0,0-.538-1.963,13.94,13.94,0,0,0-1.6-.944,8.038,8.038,0,0,1-3.459-2.865c-1.565-2.52-.2-5.34,1.451-6.989l.1-.1c1.647-1.648,4.464-3.018,6.982-1.453a8.07,8.07,0,0,1,2.862,3.465,13.929,13.929,0,0,0,.942,1.6,1.537,1.537,0,0,0,.968.719c.768.121,1.814-.574,2.736-1.27.791-.6,2.823-2.5,5.056-4.735C55.439,63.591,56.008,63.013,56.541,62.462ZM120,60.155a107.987,107.987,0,0,1-9.08-9.242c-.842-1.118-2.812-3.734-.715-5.833a4.416,4.416,0,0,1,.563-.474,15.608,15.608,0,0,1,1.8-1.071,8.676,8.676,0,0,0,2.14-1.423,4.362,4.362,0,0,0,.627-.793c1.331-2.143-.962-4.5-1.249-4.78A4.778,4.778,0,0,0,110.4,34.92a2.676,2.676,0,0,0-1.068.389,4.36,4.36,0,0,0-.792.628,8.7,8.7,0,0,0-1.421,2.141,15.759,15.759,0,0,1-1.07,1.8,4.617,4.617,0,0,1-.475.565,3.03,3.03,0,0,1-1.778.911c-1.418.187-2.786-.671-4.052-1.627a108.456,108.456,0,0,1-9.226-9.081c-.934.819-2.417,2.232-4.059,3.876-2.179,2.181-4.014,4.139-4.677,4.99l-.056.073c-.695.923-1.389,1.97-1.268,2.738a1.542,1.542,0,0,0,.718.97,13.79,13.79,0,0,0,1.6.943A8.047,8.047,0,0,1,86.236,47.1c1.216,1.958.814,4.42-1.075,6.586-.124.141-.25.276-.376.4l-.1.1c-1.647,1.648-4.463,3.018-6.981,1.452a8.054,8.054,0,0,1-2.863-3.465,14.014,14.014,0,0,0-.942-1.6,1.544,1.544,0,0,0-.968-.719c-.768-.121-1.814.575-2.736,1.27-.791.6-2.823,2.5-5.057,4.736-1.592,1.595-2.954,3.023-3.785,3.964,1.4,1.219,3.668,3.448,5.459,5.284.836.857,2.862,2.957,3.608,3.948.865,1.147,2.665,3.536.956,5.565a3.7,3.7,0,0,1-.321.367,4.48,4.48,0,0,1-.558.47,15.694,15.694,0,0,1-1.8,1.071,8.688,8.688,0,0,0-2.14,1.424c-.106.106-.208.219-.292.322a4.4,4.4,0,0,0-.26.374c-1.257,2.025.711,4.228,1.123,4.653l.128.13c.261.266,2.612,2.562,4.755,1.229a4.366,4.366,0,0,0,.79-.627c.1-.1.189-.2.264-.288A10.981,10.981,0,0,0,74.143,82a15.616,15.616,0,0,1,1.069-1.8c.086-.121.173-.232.242-.311a4.331,4.331,0,0,1,.31-.349c2.1-2.1,4.711-.127,5.827.715,1.06.8,3.507,3.158,5.28,4.934.685.686,2.687,2.708,3.9,4.091l.018-.018.066.082c.3-.266.654-.588,1.05-.959.845-.792,1.846-1.765,2.9-2.816h0c2.234-2.237,4.136-4.272,4.734-5.064.695-.923,1.388-1.97,1.268-2.739a1.538,1.538,0,0,0-.718-.968,13.968,13.968,0,0,0-1.6-.944,8.049,8.049,0,0,1-3.46-2.866c-1.564-2.519-.195-5.34,1.452-6.988,0,0,.26-.257.346-.337,1.7-1.565,4.358-2.707,6.743-1.224a8.06,8.06,0,0,1,2.863,3.465,13.929,13.929,0,0,0,.942,1.6,1.534,1.534,0,0,0,.968.719c.768.121,1.814-.574,2.736-1.27.271-.2.837-.676,1.989-1.754.895-.839,1.981-1.895,3.058-2.973C117.767,62.577,119.181,61.091,120,60.155ZM83.454,52.829c.1-.1.2-.207.3-.319.5-.572,2.037-2.58.9-4.408A6.379,6.379,0,0,0,81.9,45.9a15.793,15.793,0,0,1-1.8-1.072,3.328,3.328,0,0,1-1.471-2.189c-.224-1.431.63-2.814,1.592-4.095l.1-.127c.853-1.1,3.052-3.382,4.825-5.157,1.382-1.384,3.061-3.011,4.184-3.991-.212-.242-.488-.549-.846-.937-2.034-2.192-5.333-5.457-7.151-7.076l-.5-.434c-.162-.138-.3-.254-.426-.345-.243-.184-.491-.364-.741-.531-1.679-1.118-2.267-.764-2.686-.345a2.737,2.737,0,0,0-.281.338,13.908,13.908,0,0,0-.944,1.6,10.251,10.251,0,0,1-1.74,2.572,6.144,6.144,0,0,1-1.117.885c-1.735,1.08-3.888.879-5.907-.55-.159-.112-.312-.229-.463-.352l-.213-.179c-.084-.074-.165-.147-.235-.216s-.149-.142-.215-.21c-1.686-1.655-3.091-4.493-1.508-7.043a6.146,6.146,0,0,1,.884-1.118A10.206,10.206,0,0,1,67.8,13.581a13.961,13.961,0,0,0,1.6-.945,2.642,2.642,0,0,0,.337-.282,1.208,1.208,0,0,0,.4-.8l0-.105,0-.1A2.271,2.271,0,0,0,70,10.8l-.032-.087a8.56,8.56,0,0,0-1.107-1.789c-.583-.774-2.374-2.7-4.563-4.893l-.195-.2C62.486,2.215,61.02.818,60.089,0,59.11,1.124,57.482,2.808,56.1,4.192c-.881.882-1.778,1.76-2.59,2.532-.851.81-2,1.879-2.665,2.378-1.288.972-2.679,1.841-4.119,1.615a3.321,3.321,0,0,1-2.187-1.473,15.7,15.7,0,0,1-1.069-1.8,6.39,6.39,0,0,0-2.2-2.761c-2.016-1.253-4.22.714-4.639,1.12l-.174.172c-1.175,1.176-2.193,3.119-1.2,4.724A6.382,6.382,0,0,0,38.01,12.9a15.64,15.64,0,0,1,1.8,1.072,3.319,3.319,0,0,1,1.471,2.188c.226,1.442-.641,2.834-1.613,4.123-.791,1.051-3.049,3.4-4.9,5.256-.839.84-1.681,1.665-2.44,2.387-.491.468-1.107,1.044-1.652,1.524.137.156.674.747.674.747a106.641,106.641,0,0,0,8.228,8.02c2.031,1.535,2.784,1.494,3.42.881.046-.046.091-.094.115-.121l.1-.128a14.237,14.237,0,0,0,.945-1.6,11.868,11.868,0,0,1,1.349-2.143,6.736,6.736,0,0,1,.474-.53l.123-.119a6.258,6.258,0,0,1,.986-.759c2.546-1.583,5.381-.176,7.034,1.507,1.684,1.657,3.089,4.495,1.508,7.043a6.132,6.132,0,0,1-.47.655,6.056,6.056,0,0,1-.492.556A10.241,10.241,0,0,1,52.1,45.2a13.922,13.922,0,0,0-1.6.946,2.661,2.661,0,0,0-.332.278l-.075.077c-.526.675-.24,1.59,1.021,3.263a105.73,105.73,0,0,0,7.982,8.21v-.211l.865.866c.861-.976,2.224-2.4,3.846-4.028,1.85-1.852,4.2-4.112,5.25-4.9,1.288-.973,2.678-1.841,4.119-1.615a3.315,3.315,0,0,1,2.186,1.473,15.422,15.422,0,0,1,1.071,1.8,6.39,6.39,0,0,0,2.205,2.759c1.6,1,3.545-.023,4.721-1.2Z" fill="#00a67c" opacity="0.4"/></svg>