<svg xmlns="http://www.w3.org/2000/svg" width="120" height="120" viewBox="0 0 120 120"><g transform="translate(0 -0.301)" opacity="0.3"><path d="M82.309,64.5c.347,2.478.746,5.844.888,7.479a3.326,3.326,0,0,1-3.127,3.352c-1.862.208-3.6-.777-3.859-2.189s-.85-4.581-1.309-7.04l-1.083-5.8c-.46-2.46-.94-5.03-1.067-5.712s-.45-1.214-.716-1.183-.486.481-.486,1v8.873c0,2.5.143,6.592.318,9.088l3.038,43.392a4.193,4.193,0,0,1-4.231,4.539h-.992a5.3,5.3,0,0,1-5.111-4.515l-3.6-28.912c-.309-2.484-.6-4.681-.655-4.883a4.308,4.308,0,0,0-.338-.817c0-.009-.009-.025-.013-.038H59.5a.393.393,0,0,1-.014.038,4.443,4.443,0,0,0-.338.817c-.051.2-.346,2.4-.655,4.883l-3.6,28.912a5.3,5.3,0,0,1-5.112,4.515h-.992a4.193,4.193,0,0,1-4.231-4.539L47.6,72.37c.175-2.5.318-6.586.318-9.088V59.9c0-2.5.041-6.061,0-6.578-.58-7.377-1.994-10.124-8.042-22.762C33.348,16.929,27.549,5.442,27.549,5.442A3.539,3.539,0,0,1,29.348.7c1.988-1,3.615-.006,4.7,1.807C34.894,3.911,41.287,16.435,49.1,28.13c2.025,3.029,3.476,4.757,4.9,4.757H65.46l5.3.745c2.478.349,5.3,1.768,6.267,3.155a19.546,19.546,0,0,1,2.392,7.027ZM59.587,30.028a11,11,0,1,0-10.993-11A10.995,10.995,0,0,0,59.587,30.028ZM81.612,8.15c-1.032,5.373-1.869,6.209-7.246,7.24,5.377,1.031,6.214,1.867,7.246,7.24,1.032-5.373,1.868-6.209,7.246-7.24C83.48,14.359,82.644,13.523,81.612,8.15Zm6.406,13.52c-.456,2.376-.826,2.745-3.2,3.2,2.377.456,2.747.825,3.2,3.2.456-2.375.826-2.744,3.2-3.2C88.844,24.415,88.474,24.046,88.018,21.67ZM21.964,13.261c-.457,2.375-.826,2.744-3.2,3.2,2.377.456,2.746.826,3.2,3.2.456-2.375.826-2.745,3.2-3.2C22.79,16,22.42,15.636,21.964,13.261Z" fill="#f53"/><path d="M14.581,49.371A8.592,8.592,0,1,0,7.6,42.362,8.579,8.579,0,0,0,14.581,49.371Z" fill="#f53"/><path d="M16.142,90.027c.444,0,.889.485,1.015,1.455l.421,24.991A4.281,4.281,0,0,0,21.77,120h.813a3.345,3.345,0,0,0,3.47-3.545l.04-33.892V67.744c.219-.024.725.2.725.933V88.713a.82.82,0,0,0,.838.8c1.531-.012,4.628-.483,4.628-4.117V60.258a14.792,14.792,0,0,0-1.962-5.488c-.8-1.083-3.107-2.192-5.139-2.464l-4.345-.582H11.446L7.1,52.306c-2.032.272-4.344,1.381-5.139,2.464A14.792,14.792,0,0,0,0,60.258V85.4c0,3.634,3.1,4.1,4.628,4.117a.82.82,0,0,0,.838-.8V68.677c0-.735.507-.957.725-.933V82.563l.04,33.892A3.345,3.345,0,0,0,9.7,120h.813a4.281,4.281,0,0,0,4.192-3.527l.421-24.991c.127-.97.571-1.455,1.015-1.455Z" fill="#f53"/><path d="M102.3,49.371a8.592,8.592,0,1,0-6.981-7.009A8.579,8.579,0,0,0,102.3,49.371Z" fill="#f53"/><path d="M103.858,90.027c.444,0,.888.485,1.015,1.455l.421,24.991A4.281,4.281,0,0,0,109.486,120h.813a3.345,3.345,0,0,0,3.47-3.545l.04-33.892V67.744c.218-.024.725.2.725.933V88.713a.82.82,0,0,0,.838.8C116.9,89.5,120,89.034,120,85.4V60.258a14.792,14.792,0,0,0-1.962-5.488c-.8-1.083-3.107-2.192-5.139-2.464l-4.345-.582H99.162l-4.345.582c-2.032.272-4.344,1.381-5.139,2.464a14.792,14.792,0,0,0-1.962,5.488V85.4c0,3.634,3.1,4.1,4.628,4.117a.82.82,0,0,0,.838-.8V68.677c0-.735.506-.957.725-.933V82.563l.04,33.892A3.345,3.345,0,0,0,97.417,120h.813a4.281,4.281,0,0,0,4.192-3.527l.421-24.991c.126-.97.571-1.455,1.015-1.455Z" fill="#f53"/></g></svg>