<svg xmlns="http://www.w3.org/2000/svg" width="120" height="104" viewBox="0 0 120 104"><path d="M11.524,95.423V84.8a69.389,69.389,0,0,0,14.16,1.422c2.425,0,4.874-.122,7.274-.362V96.54a71.832,71.832,0,0,1-7.274.359A63.451,63.451,0,0,1,11.524,95.423ZM.032,80.276V87.3c0,.027-.007.054-.009.08a1.039,1.039,0,0,1-.011.147v1.1c0,1.389,1.585,3,4.512,4.427V82.707A20.845,20.845,0,0,1,.032,80.276ZM.024,37.846v8.6c.161,1.334,1.738,2.843,4.5,4.192V40.284A20.807,20.807,0,0,1,.024,37.846ZM25.676,54.479h0ZM.024,52v8.586c.161,1.331,1.738,2.839,4.5,4.187V54.434A20.937,20.937,0,0,1,.024,52Zm25.651,2.479c15.9,0,25.673-4.81,25.673-8.266l.014-8.362c-5.255,3.9-15.681,5.952-25.667,5.952a69.361,69.361,0,0,1-14.171-1.426V53A63.242,63.242,0,0,0,25.675,54.479ZM94.317,24.528h0c15.9,0,25.672-4.81,25.672-8.265S110.217,8,94.313,8s-25.675,4.811-25.675,8.264S78.41,24.528,94.317,24.528ZM25.676,82.765h0Zm.019-42.424c15.9,0,25.673-4.81,25.673-8.266S41.6,23.812,25.695,23.812.02,28.622.02,32.076,9.791,40.341,25.695,40.341Zm-.022,42.424a71.759,71.759,0,0,0,7.285-.362V71.717c-2.4.24-4.856.362-7.286.362A69.421,69.421,0,0,1,11.524,70.66V81.291A63.5,63.5,0,0,0,25.673,82.765ZM.02,66.137v7.026c0,.028,0,.055-.009.082A1.473,1.473,0,0,1,0,73.393v1.1c0,1.392,1.59,3,4.524,4.434V68.573A20.907,20.907,0,0,1,.02,66.137ZM61.91,53.053c-15.907,0-25.675,4.812-25.675,8.265s9.771,8.265,25.675,8.265,25.672-4.81,25.672-8.265S77.814,53.053,61.91,53.053ZM36.235,67.084ZM11.524,56.523V67.134a63.31,63.31,0,0,0,14.153,1.485,72.362,72.362,0,0,0,7.286-.359v-7a3.306,3.306,0,0,1,.025-.41,6.166,6.166,0,0,1,1.525-3.437,72.911,72.911,0,0,1-8.837.537A69.317,69.317,0,0,1,11.524,56.523ZM90.851,61.5v5.367c1.115.049,2.261.08,3.445.08,15.9,0,25.674-4.814,25.674-8.269l0,0,.014-8.386c-5.249,3.909-15.689,5.968-25.69,5.968-2.155,0-4.33-.1-6.47-.285a7.137,7.137,0,0,1,3.006,4.879c.008.072.014.141.016.211s.009.152.009.245Zm29.131,11.32h0l.014-8.386c-5.249,3.909-15.69,5.968-25.69,5.968-1.149,0-2.3-.029-3.459-.083V81.009q1.68.079,3.461.081C110.213,81.09,119.982,76.277,119.982,72.824ZM94.31,84.582q-1.731,0-3.465-.084V95.184q1.682.078,3.466.08c15.907,0,25.675-4.81,25.675-8.265L120,78.613C114.751,82.522,104.31,84.582,94.31,84.582ZM36.235,95.373V102.4c0,.027-.005.053-.009.08a1.23,1.23,0,0,1-.011.149v1.1c0,1.391,1.587,3,4.519,4.431V97.807A20.818,20.818,0,0,1,36.235,95.373ZM61.887,112c15.9,0,25.676-4.811,25.676-8.266l.013-8.387c-5.248,3.909-15.689,5.968-25.689,5.968a69.4,69.4,0,0,1-14.153-1.42v10.632A63.532,63.532,0,0,0,61.887,112Zm0-14.145c15.906,0,25.676-4.811,25.676-8.264l.013-8.381c-5.248,3.909-15.689,5.97-25.689,5.97a69.257,69.257,0,0,1-14.153-1.423V96.371A63.263,63.263,0,0,0,61.887,97.855ZM36.235,81.232h0V89.82c.161,1.333,1.738,2.841,4.5,4.19V83.667A20.862,20.862,0,0,1,36.235,81.232Zm25.652,2.485c15.906,0,25.676-4.811,25.676-8.266l.013-8.363c-5.256,3.9-15.682,5.952-25.666,5.952a69.347,69.347,0,0,1-14.176-1.427v10.62A63.263,63.263,0,0,0,61.887,83.717ZM36.235,67.084v8.6c.161,1.334,1.738,2.843,4.5,4.192V69.522A20.818,20.818,0,0,1,36.235,67.084ZM68.642,22.032v8.6c.162,1.334,1.739,2.843,4.5,4.193V24.471A20.836,20.836,0,0,1,68.642,22.032ZM94.291,38.667h0c15.907,0,25.676-4.811,25.676-8.267l.014-8.362c-5.256,3.9-15.683,5.952-25.667,5.952a69.327,69.327,0,0,1-14.174-1.427v10.62A63.208,63.208,0,0,0,94.291,38.667ZM68.642,36.181v8.587c.162,1.334,1.739,2.842,4.5,4.191V38.616A20.923,20.923,0,0,1,68.642,36.181Zm11.5,4.525V51.32A63.273,63.273,0,0,0,94.291,52.8h0c15.907,0,25.676-4.811,25.676-8.265l.014-8.379c-5.249,3.909-15.689,5.97-25.69,5.97A69.3,69.3,0,0,1,80.143,40.706Z" transform="translate(0 -8)" fill="#04a800" opacity="0.3"/></svg>