<svg xmlns="http://www.w3.org/2000/svg" width="119.999" height="104" viewBox="0 0 119.999 104"><path d="M13.478,58.555H2.171A2.15,2.15,0,0,1,.8,54.734L57.265,9.126a4.357,4.357,0,0,1,5.47,0L119.2,54.734a2.15,2.15,0,0,1-1.367,3.821H106.522v53.606H13.478Zm87.254-4.886a1,1,0,0,0-.15-1.406L60.628,19.989a1,1,0,0,0-1.256,0L19.417,52.263a1,1,0,0,0,1.257,1.555L60,22.052,99.326,53.818a1,1,0,0,0,1.406-.149ZM57,64a2.006,2.006,0,0,0-2-2H40a2.006,2.006,0,0,0-2,2V77a2.006,2.006,0,0,0,2,2H55a2.006,2.006,0,0,0,2-2Zm0,23a2.006,2.006,0,0,0-2-2H40a2.006,2.006,0,0,0-2,2v13a2.006,2.006,0,0,0,2,2H55a2.006,2.006,0,0,0,2-2ZM82,64a2.006,2.006,0,0,0-2-2H65a2.006,2.006,0,0,0-2,2V77a2.006,2.006,0,0,0,2,2H80a2.006,2.006,0,0,0,2-2Z" transform="translate(0 -8.161)" fill="#04a800" opacity="0.3"/></svg>