<svg xmlns="http://www.w3.org/2000/svg" width="120" height="110" viewBox="0 0 120 110"><path d="M13.219,92.1V54.666H29.35V92.1Zm93.562,0V54.666H90.65V92.1ZM51.934,54.666V92.1H68.066V54.666Zm65.938,51.758a1.924,1.924,0,0,0-1.92-1.916H4.048a1.924,1.924,0,0,0-1.92,1.916v6.83a1.924,1.924,0,0,0,1.92,1.916h111.9a1.924,1.924,0,0,0,1.92-1.916ZM120,41.72V35.58a3.9,3.9,0,0,0-2.219-3.5L64.452,6.191a10.219,10.219,0,0,0-8.9,0L2.219,32.082A3.9,3.9,0,0,0,0,35.58v6.145a.544.544,0,0,0,.55.537H119.445A.55.55,0,0,0,120,41.72ZM35.009,46.094a1.924,1.924,0,0,0-1.92-1.916H9.479a1.924,1.924,0,0,0-1.92,1.916v4.741a1.923,1.923,0,0,0,1.92,1.915h23.61a1.923,1.923,0,0,0,1.92-1.915Zm38.716,0a1.924,1.924,0,0,0-1.92-1.916H48.195a1.924,1.924,0,0,0-1.92,1.916v4.741a1.923,1.923,0,0,0,1.92,1.915h23.61a1.923,1.923,0,0,0,1.92-1.915Zm38.716,0a1.924,1.924,0,0,0-1.92-1.916H86.911a1.924,1.924,0,0,0-1.92,1.916v4.741a1.923,1.923,0,0,0,1.92,1.915h23.61a1.923,1.923,0,0,0,1.92-1.915Zm-27.45,54.583a1.924,1.924,0,0,0,1.92,1.916h23.61a1.924,1.924,0,0,0,1.92-1.916V95.936a1.924,1.924,0,0,0-1.92-1.916H86.911a1.924,1.924,0,0,0-1.92,1.916Zm-38.716,0a1.924,1.924,0,0,0,1.92,1.916h23.61a1.924,1.924,0,0,0,1.92-1.916V95.936a1.924,1.924,0,0,0-1.92-1.916H48.195a1.924,1.924,0,0,0-1.92,1.916Zm-38.716,0a1.924,1.924,0,0,0,1.92,1.916h23.61a1.924,1.924,0,0,0,1.92-1.916V95.936a1.924,1.924,0,0,0-1.92-1.916H9.479a1.924,1.924,0,0,0-1.92,1.916Z" transform="translate(0 -5.17)" fill="#04a800" opacity="0.3"/></svg>