<svg xmlns="http://www.w3.org/2000/svg" width="100.001" height="120" viewBox="0 0 100.001 120"><g transform="translate(-9.992)" opacity="0.3"><path d="M109.939,25.376c-.034-.976-.235-1.036-.946-1.694-9.632-8.766-3.081-17.9-2.313-18.909.695-.89,1.343-2.7.746-3.645C106.819.209,105.487,0,104.357,0H24.517c-8.65,0-14.284,5.469-14.5,13.971a1.4,1.4,0,0,0-.029.218v91.745a3.108,3.108,0,0,0,.069.616c.666,8.745,7.6,13.318,14.456,13.318,5.668,0,82.381.117,82.381.117.041,0,.093.015.138.015,2.467,0,2.955-.7,2.955-2.958C109.991,117.042,110.008,26.281,109.939,25.376ZM88.18,56.165h-56.3V45.31h56.3ZM24.517,23.41c-4.3,0-8.605-2.756-8.605-8.918,0-7.1,4.664-8.588,8.605-8.588h76.656a18.594,18.594,0,0,0,1.653,17.506Z" fill="#f53"/><path d="M92.793,12.465H22.842a1.966,1.966,0,1,0,0,3.932H92.793a1.966,1.966,0,0,0,0-3.932Z" fill="#f53"/></g></svg>