<svg xmlns="http://www.w3.org/2000/svg" width="120" height="87" viewBox="0 0 120 87"><path d="M120,41.476v2.762a3.57,3.57,0,0,1-3.573,3.567h-4.8a3.675,3.675,0,0,1-.768-.087l-.737,3.471,4.253,5.982a9.483,9.483,0,0,1,1.743,5.946l-1.172,24.647a3.564,3.564,0,0,1-2.31,3.163v9.109a3.468,3.468,0,0,1-3.471,3.465H103a3.468,3.468,0,0,1-3.471-3.464h0V91.859a763.852,763.852,0,0,1-79.068,0v8.177a3.468,3.468,0,0,1-3.471,3.465h-6.16a3.468,3.468,0,0,1-3.47-3.465h0V90.924a3.561,3.561,0,0,1-2.311-3.162L3.881,63.114a9.473,9.473,0,0,1,1.743-5.947l4.254-5.978-.736-3.468a3.565,3.565,0,0,1-.77.087h-4.8A3.57,3.57,0,0,1,0,44.241V41.476a3.57,3.57,0,0,1,3.573-3.567h4.8a3.57,3.57,0,0,1,3.573,3.567v2.762a3.538,3.538,0,0,1-.587,1.952l.476,2.241,2.035-2.863L24.859,18.719A3.572,3.572,0,0,1,28.171,16.5H91.835a3.571,3.571,0,0,1,3.311,2.218l10.983,26.85,2.035,2.863.476-2.241a3.54,3.54,0,0,1-.589-1.952V41.476a3.57,3.57,0,0,1,3.574-3.567h4.8A3.57,3.57,0,0,1,120,41.474ZM18.217,49.73h83.565l-10.945-25.8a2.382,2.382,0,0,0-2.2-1.479H31.372a2.381,2.381,0,0,0-2.207,1.479Zm-2.4,22.6a6.393,6.393,0,1,0-6.4-6.392h0A6.4,6.4,0,0,0,15.818,72.329Zm31.13,13.485q-15.252-.287-30.5-1.243v2.577q15.236.957,30.5,1.244Zm33.876-7.439a1.232,1.232,0,0,0,.674-.2,19.018,19.018,0,0,0,7.837-11.154,1.2,1.2,0,0,0-1.145-1.536H31.809a1.2,1.2,0,0,0-1.145,1.536A19.011,19.011,0,0,0,38.5,78.173a1.231,1.231,0,0,0,.674.2Zm22.722,6.2q-15.234.957-30.494,1.243v2.578Q88.3,88.1,103.546,87.148Zm.637-25.029a6.393,6.393,0,1,0,6.4,6.393h0a6.4,6.4,0,0,0-6.4-6.393h0Z" transform="translate(0 -16.501)" fill="#04a800" opacity="0.3"/></svg>