<svg xmlns="http://www.w3.org/2000/svg" width="120" height="96" viewBox="0 0 120 96"><path d="M116.1,11.585H97.187a3.984,3.984,0,0,0-3.826,2.909L90.307,25.248H4.062a3.965,3.965,0,0,0-3.1,1.5,4.039,4.039,0,0,0-.787,3.376l9.963,45.817a3.986,3.986,0,0,0,3.886,3.153h.022l61.06-.323-2.014,7.093H16.82a4.015,4.015,0,0,0,0,8.029h8.536a6.888,6.888,0,1,0,3.293,0H65.507a6.887,6.887,0,1,0,3.292,0h7.292a3.986,3.986,0,0,0,3.826-2.909l20.269-71.369H116.1a4.014,4.014,0,0,0,0-8.028ZM50.853,70.869V64.537H61.419l-.9,6.281Zm-16.9.09-.92-6.422h9.859v6.374ZM12.475,49.216H22.8l1.045,7.293H14.061Zm18.366,0H42.894v7.293H31.885Zm12.053-8.028h-13.2l-1.134-7.912H42.894Zm7.959-7.912H65.9l-1.133,7.912H50.853Zm0,23.233V49.216H63.614l-1.045,7.293Zm20.8-7.293H83.5l-2.071,7.293H70.611ZM85.78,41.188H72.805l1.134-7.912H88.027ZM20.516,33.276l1.133,7.912h-10.1a3.961,3.961,0,0,0-.805.083L9.009,33.276ZM15.807,64.537h9.187L25.92,71l-8.7.046ZM77.25,70.73h-.021l-8.662.046.894-6.239h9.687l-1.76,6.2C77.342,70.735,77.3,70.73,77.25,70.73Z" transform="translate(-0.083 -11.585)" fill="#04a800" opacity="0.3"/></svg>