<svg xmlns="http://www.w3.org/2000/svg" width="120" height="104" viewBox="0 0 120 104"><path d="M10,31.388h8V112H10a9.976,9.976,0,0,1-10-9.952V41.34A9.976,9.976,0,0,1,10,31.388ZM120,41.34v60.708A9.976,9.976,0,0,1,110,112h-8V80.616L98,84.6V112H22V31.388H39V15.6A7.628,7.628,0,0,1,46.638,8H73.362A7.628,7.628,0,0,1,81,15.6V31.388H98V60a4.506,4.506,0,0,1,4,.651V31.388h8A9.976,9.976,0,0,1,120,41.34ZM76,31.388V15.6a2.635,2.635,0,0,0-2.638-2.626H46.638A2.635,2.635,0,0,0,44,15.6V31.388Zm.712,11.622c-5.89,1.57-9.864,5.818-8.876,9.488S74.4,57.873,80.288,56.3s9.864-5.817,8.876-9.488S82.6,41.441,76.712,43.01ZM52.859,72.9l-9.192,9.148L58.516,96.83l9.192-9.148Zm33.055,1.9a1.989,1.989,0,0,0,0,2.815l6.364,6.334a2.014,2.014,0,0,0,2.829,0l12.02-11.964a1.988,1.988,0,0,0,0-2.814l-6.364-6.334a2.012,2.012,0,0,0-2.828,0Z" transform="translate(0 -8)" fill="#f53" opacity="0.3"/></svg>