<svg xmlns="http://www.w3.org/2000/svg" width="120" height="108" viewBox="0 0 120 108"><path d="M9.072,8.785A4,4,0,0,1,12.84,6h94.32a4,4,0,0,1,3.768,2.785L120,34H0ZM96,38H0V50.771C0,56.973,5.373,62,12,62s12-5.027,12-11.229h0C24,56.973,29.373,62,36,62s12-5.027,12-11.229h0C48,56.973,53.373,62,60,62s12-5.027,12-11.229h0C72,56.973,77.373,62,84,62s12-5.027,12-11.229h0C96,56.973,101.373,62,108,62s12-5.027,12-11.229V38ZM10,108v6H46v-6Zm64,6h36v-6H74Zm34.485-49.657A14.416,14.416,0,0,1,96.364,58a14.754,14.754,0,0,1-24.243,0,14.753,14.753,0,0,1-24.242,0,14.754,14.754,0,0,1-24.243,0,14.415,14.415,0,0,1-12.121,6.343c-.512,0-1.017-.028-1.515-.077V104H46V90A13,13,0,0,1,59,77h2A13,13,0,0,1,74,90v14h36V64.266C109.5,64.315,109,64.343,108.485,64.343Z" transform="translate(0 -6)" fill="#04a800" opacity="0.3"/></svg>