<svg xmlns="http://www.w3.org/2000/svg" width="120" height="112" viewBox="0 0 120 112"><path d="M58.006,26.327a10.974,10.974,0,1,0-8.916-8.953A10.958,10.958,0,0,0,58.006,26.327ZM60,78.256c.55,0,1.1.62,1.258,1.858l.522,31.921a5.353,5.353,0,0,0,5.193,4.5h1.008a4.216,4.216,0,0,0,4.3-4.528l.05-43.29V49.794c.271-.031.9.254.9,1.192V76.578A1.03,1.03,0,0,0,74.265,77.6c1.9-.014,5.735-.617,5.735-5.257V40.233a19.266,19.266,0,0,0-2.431-7.01c-.984-1.384-3.85-2.8-6.367-3.148l-5.384-.743H54.182l-5.384.743c-2.517.348-5.383,1.764-6.367,3.148A19.266,19.266,0,0,0,40,40.233V72.347c0,4.64,3.837,5.243,5.735,5.257a1.03,1.03,0,0,0,1.037-1.026V50.986c0-.938.628-1.223.9-1.192V68.722l.05,43.29a4.216,4.216,0,0,0,4.3,4.528h1.008a5.353,5.353,0,0,0,5.193-4.5l.522-31.921c.157-1.238.708-1.858,1.258-1.858Zm-43.836-40.4a9.524,9.524,0,1,0-7.738-7.77A9.509,9.509,0,0,0,16.164,37.854ZM17.9,82.925c.492,0,.985.538,1.125,1.613l.467,27.7a4.745,4.745,0,0,0,4.647,3.909h.9a3.709,3.709,0,0,0,3.846-3.93l.045-37.571V58.223c.242-.027.8.219.8,1.033V81.469a.908.908,0,0,0,.928.89c1.7-.012,5.131-.535,5.131-4.563V49.924a16.41,16.41,0,0,0-2.174-6.085c-.881-1.2-3.445-2.429-5.7-2.731L23.1,40.463H12.689l-4.817.645c-2.252.3-4.816,1.531-5.7,2.731A16.409,16.409,0,0,0,0,49.924V77.8c0,4.028,3.433,4.551,5.131,4.563a.908.908,0,0,0,.928-.89V59.256c0-.814.562-1.06.8-1.033V74.651l.044,37.571a3.709,3.709,0,0,0,3.847,3.93h.9a4.745,4.745,0,0,0,4.646-3.909l.467-27.7c.141-1.075.633-1.613,1.126-1.613Zm82.48-45.071a9.524,9.524,0,1,0-7.739-7.77A9.509,9.509,0,0,0,100.375,37.854Zm1.73,45.071c.493,0,.985.538,1.126,1.613l.467,27.7a4.745,4.745,0,0,0,4.646,3.909h.9a3.709,3.709,0,0,0,3.847-3.93l.044-37.571V58.223c.243-.027.805.219.805,1.033V81.469a.908.908,0,0,0,.928.89c1.7-.012,5.131-.535,5.131-4.563V49.924a16.409,16.409,0,0,0-2.175-6.085c-.881-1.2-3.445-2.429-5.7-2.731l-4.817-.645H96.9l-4.817.645c-2.253.3-4.817,1.531-5.7,2.731a16.41,16.41,0,0,0-2.174,6.085V77.8c0,4.028,3.433,4.551,5.131,4.563a.908.908,0,0,0,.928-.89V59.256c0-.814.562-1.06.8-1.033V74.651l.045,37.571a3.709,3.709,0,0,0,3.846,3.93h.9a4.745,4.745,0,0,0,4.647-3.909l.467-27.7c.14-1.075.633-1.613,1.125-1.613Z" transform="translate(0 -4.54)" fill="#00a67c" opacity="0.4"/></svg>