<svg xmlns="http://www.w3.org/2000/svg" width="120" height="112" viewBox="0 0 120 112"><path d="M49.035,15.759a11.654,11.654,0,0,1,3.407-8.2l0,0a11.974,11.974,0,0,1,3.776-2.523,11.533,11.533,0,0,1,8.879,0A11.985,11.985,0,0,1,68.871,7.56a11.579,11.579,0,0,1,3.272,6.563,12.051,12.051,0,0,1,.119,1.622,11.67,11.67,0,0,1-.107,1.6,11.55,11.55,0,0,1-1.1,3.566A11.721,11.721,0,0,1,65.1,26.475a11.527,11.527,0,0,1-8.878,0,11.814,11.814,0,0,1-3.776-2.535A11.6,11.6,0,0,1,49.035,15.759Zm70.827,46.058c-.38,3.093-2.73,5.152-5.591,6.124a13.075,13.075,0,0,1-3.632.687h-.024a13.907,13.907,0,0,1-1.555.012h-.012c-1.081-.036-1.46-.131-1.449.7.012.13.012.26.024.391.036.355.036.71.047,1.067v.048l.012.058v.723c.012.213,0,.426,0,.639v.214l-.012.213v.285l-.012.07v.214l-.012.071v.141l-.012.071v.143l-.012.071V73.9l-.012.07v.071l-.012.071v.071l-.012.071v.141l-.012.071v.071l-.012.071-.012.071v.071l-.012.071v.07l-.012.071v.072l-.012.071-.012.071v.071l-.012.071-.012.07c-1.271,8.849-6.434,16.786-14.151,22.768-3.133,2.44-2.5,1.351-3.288,5.377l-2.588,10.626a2.122,2.122,0,0,1-1.994,1.99H71.979a2.071,2.071,0,0,1-2-1.99l-.51-3.991c-.238-1.789-.072-1.658-1.852-1.386a63.655,63.655,0,0,1-9.6.71,65.8,65.8,0,0,1-8.737-.58c-1.935-.273-1.484-.332-2.006,1.741l-.9,3.506c-.273,1.054-.9,1.99-2,1.99H30.905a2.133,2.133,0,0,1-2.006-1.99l-2.3-11.349c-.582-2.949-.368-1.919-2.576-3.814-2.5-2.144-4.7-4.869-7.086-7.072-5.271-4.881-4.31-5.8-10.53-5.886a1.849,1.849,0,0,1-1.164-.214A5.1,5.1,0,0,1,2.216,81.9L-.075,67.628a4.025,4.025,0,0,1,2.493-3.683c1.128-.462,2.754-.143,4.357-.722,2.85-1.055,3.479-3.6,5.46-7.179a36.8,36.8,0,0,1,9.023-10.792c.534-.45.261-.486.166-.936-.938-4.418-1.983-6.325-4.558-10.211-.974-1.469-.9-2.867,1.424-2.973,7.847-.332,13.771.912,20.229,4.667a62.7,62.7,0,0,1,17.725-3.08c.332-.012.664-.012.984-.024h1.567l1.425.036H60.3c.475.024.95.036,1.413.071h.119c.463.024.926.059,1.389.1l.131.012.8.071.154.023.427.036.178.024c.237.024.475.047.7.083l.226.024c.131.012.261.036.392.047l.249.036c.214.024.416.048.617.083l.273.036c.131.024.249.036.368.058h.012c.166.024.332.048.487.084h.012c.119.012.237.036.356.059l.285.047c.154.024.309.048.463.083l.4.071.355.071.3.058c.154.024.309.06.463.1s.273.059.4.083l.3.059.427.107a3.312,3.312,0,0,1,.368.082,3.523,3.523,0,0,1,.392.1l.309.071c.166.036.344.083.511.13l.285.071c.131.036.261.07.4.106l.273.071c.19.048.368.107.558.154l.237.071c.142.036.285.083.427.13l.226.06c.2.059.392.119.593.19l.19.059c.166.047.344.106.511.166l.142.047c.2.059.4.131.606.2l.2.071c.178.058.344.118.522.177l.143.047c.19.071.38.142.582.213l.19.07c.2.083.4.155.6.238l.107.036c.178.071.356.142.546.225l.154.059.605.249.119.058c.19.072.368.155.546.226l.131.059c.2.1.4.177.605.272l.143.059c.178.083.344.166.522.248l.119.047c.2.1.4.19.594.3l.154.07c.19.1.38.178.558.273l.059.036c.2.1.4.2.606.308l.142.071c.2.107.4.213.606.332,1.009.545,2.007,1.126,2.991,1.753l0,0a43.909,43.909,0,0,1,10.672,9.359,33.95,33.95,0,0,1,4.57,7.438l.012.06.024.047.024.047.024.048v.012l.024.048.012.047h.012l.024.059.012.036.012.012.012.047.024.036v.024l.024.048.012.036.012.024.024.047.012.024.012.024.012.059.012.024.024.058.012.012.012.024.012.036.012.047.012.024.012.036.024.047v.012l.024.047.012.047.012.012.012.036.024.058v.012l.024.036.012.059h.012l.012.047.024.059.024.047.012.059.024.047.012.046.012.012.012.048.024.047v.012l.036.083V60.2l.036.083v.024l.024.046.012.036.012.024.012.047.012.036.036.071V60.6l.012.024.024.048V60.7l.012.036.024.058v.012l.012.036.024.059v.012l.024.036.048.178.024.047.012.058.024.048.012.047v.012l.024.047.012.047v.012l.059.154.012.046v.012l.011.036.013.036.011.024v.012c.119.391.237.8.344,1.184a5.632,5.632,0,0,0,.19.581,2.478,2.478,0,0,0,2.66,1.789h.926l.024-.012h.214l.036-.012h.131l.048-.012h.071l.059-.012h.059c.083-.012.154-.012.238-.024l.059-.012h.059l.036-.012h.024l.047-.012h.024l.059-.012h.059l.012-.012h.012l.071-.012h.024l.047-.012h.012l.059-.012h.059l.023-.012h.024l.049-.011h.011l.059-.012h.012l.048-.012.024-.012h.036l.036-.012h.024l.048-.012h.012l.059-.012.012-.012h.036l.036-.012.024-.012.047-.012h.012l.06-.012.059-.012.012-.012h.036l.036-.012.024-.012.059-.012.048-.012.024-.012.059-.012h.012l.024-.012.048-.012.059-.024.047-.012.024-.012.036-.012.036-.012h.024l.048-.023c1.6-.546,3.111-1.588,3.336-3.365a4.285,4.285,0,0,0-.5-2.694,2.66,2.66,0,0,0-1.662-1.255,2.629,2.629,0,0,0-1.092-.047,2.527,2.527,0,0,0-1.033.379,1.066,1.066,0,0,0-.392,1.3,1.007,1.007,0,0,0,.487.544,1.669,1.669,0,1,1-1.362,3.047,1.591,1.591,0,0,1-.2-.108,4.4,4.4,0,0,1-.3-7.606l.012-.012a5.9,5.9,0,0,1,2.279-.841,6.023,6.023,0,0,1,6.149,2.9A7.727,7.727,0,0,1,119.862,61.817Zm-92.8-3.253a3.267,3.267,0,0,0-3.264-3.27h-.023a3.264,3.264,0,1,0,3.287,3.27ZM75.031,41.482A46.912,46.912,0,0,0,46.219,39.6h0a1.666,1.666,0,0,0,.878,3.21,43.894,43.894,0,0,1,26.7,1.765,1.665,1.665,0,1,0,1.235-3.093Z" transform="translate(0.075 -4.148)" fill="#04a800" opacity="0.3"/></svg>