<?xml version="1.0" encoding="utf-8"?>
<!-- Generator: Adobe Illustrator 26.0.2, SVG Export Plug-In . SVG Version: 6.00 Build 0)  -->
<svg version="1.1" id="レイヤー_1" xmlns="http://www.w3.org/2000/svg" xmlns:xlink="http://www.w3.org/1999/xlink" x="0px"
	 y="0px" width="254px" height="210px" viewBox="0 0 254 210" style="enable-background:new 0 0 254 210;" xml:space="preserve">
<style type="text/css">
	.st0{enable-background:new    ;}
	.st1{fill:#FF3C00;}
	.st2{opacity:0.4;fill:#00A67C;enable-background:new    ;}
</style>
<g id="グループ_7368" transform="translate(-594 -2392)">
	<g id="グループ_7369" transform="translate(476 2388)">
		<g class="st0">
			<path class="st1" d="M206.3,45.8c0-3.6,1.8-5.6,4.3-5.6c2.5,0,4.3,2,4.3,5.6c0,3.6-1.8,5.7-4.3,5.7
				C208,51.5,206.3,49.4,206.3,45.8z M212.4,45.8c0-2.6-0.8-3.6-1.8-3.6s-1.8,1-1.8,3.6s0.8,3.7,1.8,3.7S212.4,48.4,212.4,45.8z
				 M220.8,40.2h2.1l-9.6,18.4h-2.1L220.8,40.2z M219.2,53c0-3.6,1.8-5.6,4.3-5.6c2.5,0,4.3,2,4.3,5.6c0,3.6-1.8,5.7-4.3,5.7
				C221,58.7,219.2,56.6,219.2,53z M225.3,53c0-2.6-0.8-3.6-1.8-3.6s-1.8,1-1.8,3.6s0.8,3.6,1.8,3.6S225.3,55.6,225.3,53z"/>
		</g>
		<g class="st0">
			<path class="st1" d="M130.7,53.2h-12.6v-4l11-17.6h7.1v17.2h3.5v4.5h-3.5v7.2h-5.5V53.2z M130.7,48.7v-5.8c0-1.7,0.1-4.4,0.2-6.2
				h-0.2c-0.7,1.6-1.5,3-2.4,4.6l-4.6,7.3H130.7z"/>
			<path class="st1" d="M142.7,53c0-3.6,2.4-5.8,5.1-7.3v-0.2c-2.2-1.6-3.9-3.8-3.9-6.8c0-4.8,3.8-7.8,8.9-7.8
				c5.2,0,8.6,3.1,8.6,7.8c0,2.8-1.9,5.2-3.8,6.5v0.2c2.7,1.5,5,3.6,5,7.5c0,4.5-4,7.9-10,7.9C146.9,60.9,142.7,57.6,142.7,53z
				 M157,52.8c0-2.9-2.8-3.9-6.6-5.5c-1.6,1.2-2.7,3-2.7,5c0,2.7,2.2,4.4,5,4.4C155.2,56.7,157,55.3,157,52.8z M156.5,39.2
				c0-2.4-1.4-4.1-3.9-4.1c-2,0-3.6,1.3-3.6,3.6c0,2.6,2.3,3.9,5.4,5.1C155.8,42.4,156.5,40.8,156.5,39.2z"/>
			<path class="st1" d="M167.2,57.1c0-2.2,1.6-3.8,3.6-3.8c2.1,0,3.7,1.6,3.7,3.8c0,2.2-1.6,3.8-3.7,3.8
				C168.7,60.9,167.2,59.2,167.2,57.1z"/>
			<path class="st1" d="M190.8,53.2h-12.6v-4l11-17.6h7.1v17.2h3.5v4.5h-3.5v7.2h-5.5V53.2z M190.8,48.7v-5.8c0-1.7,0.1-4.4,0.2-6.2
				h-0.2c-0.7,1.6-1.5,3-2.4,4.6l-4.6,7.3H190.8z"/>
		</g>
	</g>
	<g class="st0">
		<path class="st1" d="M622.5,2471.1h2.6v-8.4H623v-0.9c1-0.2,1.8-0.4,2.4-0.8h1.1v10.2h2.4v1.2h-6.4V2471.1z"/>
		<path class="st1" d="M630.8,2474.5c1-0.4,1.6-1.2,1.6-2.2c-0.1,0-0.1,0-0.2,0c-0.6,0-1.1-0.4-1.1-1c0-0.6,0.5-1,1.1-1
			c0.8,0,1.2,0.7,1.2,1.7c0,1.5-0.9,2.7-2.3,3.3L630.8,2474.5z"/>
		<path class="st1" d="M635.3,2467.1c0-4.6,2.1-6.4,4.4-6.4c1.2,0,2.1,0.5,2.7,1.2l-0.8,0.9c-0.5-0.6-1.2-0.9-1.9-0.9
			c-1.6,0-3,1.2-3,4.9c0.7-0.9,1.7-1.4,2.7-1.4c2,0,3.2,1.2,3.2,3.5c0,2.2-1.5,3.7-3.4,3.7C636.9,2472.5,635.3,2470.7,635.3,2467.1z
			 M636.7,2468c0.2,2.2,1.1,3.4,2.5,3.4c1.1,0,2-1,2-2.5c0-1.5-0.7-2.4-2.1-2.4C638.3,2466.5,637.4,2466.9,636.7,2468z"/>
		<path class="st1" d="M644.7,2471.1h2.6v-8.4h-2.1v-0.9c1-0.2,1.8-0.4,2.4-0.8h1.1v10.2h2.4v1.2h-6.4V2471.1z"/>
		<path class="st1" d="M657.6,2469.2h-5.1v-1l4.9-7.3h1.6v7.1h1.6v1.2H659v3.2h-1.4V2469.2z M657.6,2468v-3.3c0-0.6,0-1.6,0.1-2.2
			h-0.1c-0.3,0.5-0.6,1-0.9,1.6l-2.7,3.9H657.6z"/>
		<path class="st1" d="M669.5,2459.4c0,0.2,0,0.5,0,0.7c0.1,2.1,1,9.5,7,12.3c-0.3,0.3-0.7,0.7-0.9,1c-4.1-2-5.9-6-6.7-9.3
			c-0.7,3.2-2.4,7.1-6.4,9.3c-0.2-0.3-0.6-0.7-1-0.9c6.5-3.3,6.5-10.9,6.6-13.1H669.5z"/>
	</g>
	<g class="st0">
		<path class="st1" d="M646,2398.3c-0.5,2.2-1.2,3.9-2.1,5.3c1.7,0.8,3.2,1.7,4.3,2.4l-1.5,1.8c-1-0.8-2.6-1.8-4.3-2.7
			c-1.7,1.4-4.1,2.1-7.3,2.6c-0.2-0.6-0.6-1.4-1-1.9c2.7-0.3,4.7-0.8,6.2-1.7c-0.9-0.4-1.7-0.8-2.6-1.1l-0.3,0.6l-1.9-0.7
			c0.6-1.2,1.3-2.9,2-4.6h-3.6v-1.9h4.4c0.5-1.2,0.9-2.5,1.3-3.6l2.1,0.4c-0.4,1-0.8,2.1-1.2,3.2h8v1.9H646z M639.6,2398.3
			c-0.4,1-0.8,2-1.2,3c1.1,0.4,2.3,0.8,3.5,1.4c0.9-1.1,1.5-2.5,2-4.4H639.6z"/>
		<path class="st1" d="M664.5,2405.4v1.8h-10v-1.8h4.3v-3.2h-3.1v-1.8h3.1v-2.6H657c-0.2,0.8-0.6,1.6-0.9,2.2
			c-0.4-0.2-1.2-0.7-1.7-0.9c0.2-0.3,0.3-0.6,0.5-0.9l-0.9,0.4c-0.1-0.5-0.3-1.2-0.6-1.8v10.9h-1.9v-11.4c-0.1,1.3-0.4,3.1-0.7,4.2
			l-1.4-0.5c0.4-1.1,0.7-2.8,0.8-4.2l1.3,0.2v-3.3h1.9v3l0.9-0.4c0.3,0.6,0.7,1.4,0.9,2c0.4-1.2,0.7-2.5,0.8-3.9l1.9,0.3
			c-0.1,0.8-0.2,1.5-0.4,2.2h1.3v-3.1h1.9v3.1h3.3v1.8h-3.3v2.6h2.9v1.8h-2.9v3.2H664.5z"/>
	</g>
</g>
<g id="グループ_7369-2" transform="translate(-450 -2392)">
	<g id="グループ_7369-3" transform="translate(476 2388)">
		<g class="st0">
			<path class="st1" d="M206.3,45.8c0-3.6,1.8-5.6,4.3-5.6c2.5,0,4.3,2,4.3,5.6c0,3.6-1.8,5.7-4.3,5.7
				C208,51.5,206.3,49.4,206.3,45.8z M212.4,45.8c0-2.6-0.8-3.6-1.8-3.6s-1.8,1-1.8,3.6s0.8,3.7,1.8,3.7S212.4,48.4,212.4,45.8z
				 M220.8,40.2h2.1l-9.6,18.4h-2.1L220.8,40.2z M219.2,53c0-3.6,1.8-5.6,4.3-5.6c2.5,0,4.3,2,4.3,5.6c0,3.6-1.8,5.7-4.3,5.7
				C221,58.7,219.2,56.6,219.2,53z M225.3,53c0-2.6-0.8-3.6-1.8-3.6s-1.8,1-1.8,3.6s0.8,3.6,1.8,3.6S225.3,55.6,225.3,53z"/>
		</g>
		<g class="st0">
			<path class="st1" d="M118.3,56.9l2.7-3.8c1.7,1.6,3.8,3,6.5,3c3.1,0,5.2-1.8,5.2-5c0-3.2-2-5-5-5c-1.8,0-2.7,0.4-4.4,1.6
				l-2.7-1.7l0.8-14.4h15.8v4.9h-10.8l-0.6,6.3c1.2-0.5,2.2-0.8,3.6-0.8c5,0,9.1,2.8,9.1,9c0,6.4-4.9,10-10.4,10
				C123.6,60.9,120.5,59.1,118.3,56.9z"/>
			<path class="st1" d="M144.1,55.6h6.4v-18h-5.4V34c3-0.6,5-1.3,6.9-2.5h4.4v24.1h5.6v4.8h-17.8V55.6z"/>
			<path class="st1" d="M167.2,57.1c0-2.2,1.6-3.8,3.6-3.8c2.1,0,3.7,1.6,3.7,3.8c0,2.2-1.6,3.8-3.7,3.8
				C168.7,60.9,167.2,59.2,167.2,57.1z"/>
			<path class="st1" d="M179.3,46.7c0-11,5.5-15.8,11.5-15.8c3.6,0,6.2,1.5,8,3.4l-3.1,3.5c-1-1.2-2.8-2.1-4.6-2.1
				c-3.4,0-6.2,2.5-6.4,10c1.6-2,4.2-3.2,6.1-3.2c5,0,8.5,2.8,8.5,8.9c0,5.9-4.2,9.6-9.3,9.6C184.3,60.9,179.3,56.6,179.3,46.7z
				 M184.8,49.7c0.6,4.9,2.6,6.7,5,6.7c2.2,0,4-1.7,4-5.2c0-3.2-1.7-4.7-4.2-4.7C188.1,46.6,186.3,47.4,184.8,49.7z"/>
		</g>
	</g>
	<g class="st0">
		<path class="st1" d="M622.5,2471.1h2.6v-8.4H623v-0.9c1-0.2,1.8-0.4,2.4-0.8h1.1v10.2h2.4v1.2h-6.4V2471.1z"/>
		<path class="st1" d="M630.8,2474.5c1-0.4,1.6-1.2,1.6-2.2c-0.1,0-0.1,0-0.2,0c-0.6,0-1.1-0.4-1.1-1c0-0.6,0.5-1,1.1-1
			c0.8,0,1.2,0.7,1.2,1.7c0,1.5-0.9,2.7-2.3,3.3L630.8,2474.5z"/>
		<path class="st1" d="M640.9,2462.2h-5.7v-1.2h7.3v0.9c-2.7,3.5-3.3,6.1-3.4,10.5h-1.5C637.8,2468,638.6,2465.3,640.9,2462.2z"/>
		<path class="st1" d="M644.7,2471.1h2.6v-8.4h-2.1v-0.9c1-0.2,1.8-0.4,2.4-0.8h1.1v10.2h2.4v1.2h-6.4V2471.1z"/>
		<path class="st1" d="M653.1,2471.3l0.8-0.9c0.4,0.6,1.2,0.9,1.9,0.9c1.6,0,3-1.2,3-4.9c-0.7,0.9-1.7,1.5-2.7,1.5
			c-2,0-3.3-1.2-3.3-3.5c0-2.2,1.5-3.6,3.4-3.6c2.3,0,3.9,1.8,3.9,5.5c0,4.6-2.1,6.3-4.3,6.3C654.6,2472.5,653.7,2472,653.1,2471.3z
			 M656.4,2466.8c0.7,0,1.7-0.5,2.4-1.6c-0.2-2.2-1.1-3.4-2.5-3.4c-1.1,0-2,1-2,2.5C654.2,2465.9,654.9,2466.8,656.4,2466.8z"/>
		<path class="st1" d="M669.5,2459.4c0,0.2,0,0.5,0,0.7c0.1,2.1,1,9.5,7,12.3c-0.3,0.3-0.7,0.7-0.9,1c-4.1-2-5.9-6-6.7-9.3
			c-0.7,3.2-2.4,7.1-6.4,9.3c-0.2-0.3-0.6-0.7-1-0.9c6.5-3.3,6.5-10.9,6.6-13.1H669.5z"/>
	</g>
	<g class="st0">
		<path class="st1" d="M647.4,2401.5c0,0,0,0.5-0.1,0.8c-0.3,2.9-0.6,4.2-1.1,4.7c-0.4,0.4-0.9,0.6-1.6,0.6c-0.6,0-1.5,0-2.5,0
			c0-0.5-0.3-1.3-0.6-1.7c1,0.1,2,0.1,2.4,0.1c0.3,0,0.5,0,0.7-0.2c0.3-0.2,0.5-1,0.7-2.6h-4.2c-0.8,2.1-2.5,3.6-6.5,4.5
			c-0.1-0.5-0.6-1.2-1-1.7c3.1-0.6,4.6-1.6,5.4-2.8h-4.7v-1.7h5.3c0.1-0.4,0.1-0.7,0.2-1.1h-4.4v-6.8h11.5v6.8h-5.1
			c0,0.4-0.1,0.7-0.2,1.1H647.4z M637.2,2396.2h2.8v-1.1h-2.8V2396.2z M637.2,2398.8h2.8v-1.1h-2.8V2398.8z M644.8,2395.1H642v1.1
			h2.9V2395.1z M644.8,2397.7H642v1.1h2.9V2397.7z"/>
		<path class="st1" d="M664.5,2405.4v1.8h-10v-1.8h4.3v-3.2h-3.1v-1.8h3.1v-2.6H657c-0.2,0.8-0.6,1.6-0.9,2.2
			c-0.4-0.2-1.2-0.7-1.7-0.9c0.2-0.3,0.3-0.6,0.5-0.9l-0.9,0.4c-0.1-0.5-0.3-1.2-0.6-1.8v10.9h-1.9v-11.4c-0.1,1.3-0.4,3.1-0.7,4.2
			l-1.4-0.5c0.4-1.1,0.7-2.8,0.8-4.2l1.3,0.2v-3.3h1.9v3l0.9-0.4c0.3,0.6,0.7,1.4,0.9,2c0.4-1.2,0.7-2.5,0.8-3.9l1.9,0.3
			c-0.1,0.8-0.2,1.5-0.4,2.2h1.3v-3.1h1.9v3.1h3.3v1.8h-3.3v2.6h2.9v1.8h-2.9v3.2H664.5z"/>
	</g>
</g>
<path id="パス_1508" class="st2" d="M77.1,164.2c-1.5,0.6-3.1-0.2-3.7-1.7c0,0,0,0,0-0.1l-5.5-14.7c-0.6-1.5-1.5-3.8-2.1-5.1
	s-1.2-1-1.3,0.6l-0.1,1.1c-0.1,1.9,0.2,3.9,0.8,5.7l2.3,6c0.6,1.5,1.5,4,2.1,5.6l2.4,6.5c0.5,1.3,0.9,2.7,1.2,4.1
	c0.1,0.7-1.1,1.7-2.7,2.2l-0.9,0.3c-1.3,0.4-2.6,0.7-3.9,1c-0.6,0.1-1.1,0.6-1.1,1.2c0,0.6-0.2,2.4-0.4,4.1l-3.1,26.4
	c-0.1,1.6-1.4,2.8-3,2.9h-5.7c-1.6-0.1-2.8-1.4-3-2.9L46.1,181c-0.2-1.6-0.4-3.4-0.4-4.1c-0.1-0.6-0.5-1.1-1.1-1.2
	c-1.3-0.3-2.6-0.6-3.9-1l-0.9-0.3c-1.6-0.5-2.8-1.5-2.7-2.2c0.3-1.4,0.7-2.8,1.2-4.1l2.4-6.5c0.6-1.5,1.5-4,2.1-5.6l2.3-6
	c0.6-1.8,0.9-3.8,0.8-5.7l-0.1-1.1c-0.1-1.6-0.7-1.9-1.3-0.6s-1.5,3.6-2.1,5.1l-5.5,14.7c-0.5,1.5-2.2,2.3-3.7,1.7c0,0,0,0-0.1,0
	c-1.5-0.6-2.3-2.3-1.8-3.9l7.1-23.7c0.6-1.8,1.3-3.6,2.1-5.4c0.9-1.6,2.4-2.8,4.1-3.4l5.3-1.6c3.4,1.2,7.2,1.2,10.6,0.1l5.1,1.6
	c1.7,0.6,3.2,1.8,4.1,3.4c0.8,1.7,1.5,3.5,2.1,5.4l7.1,23.7C79.4,161.9,78.6,163.5,77.1,164.2z M55.2,123.8
	c5.9,0,10.7-4.9,10.7-10.8c0-5.9-4.9-10.7-10.8-10.7c-5.9,0-10.7,4.8-10.7,10.7C44.4,119,49.3,123.8,55.2,123.8
	C55.2,123.8,55.2,123.8,55.2,123.8z"/>
<path id="パス_1509" class="st2" d="M221.2,156.7l-2.8-19.9c-0.3-2.4-1.1-4.7-2.3-6.8c-0.9-1.3-3.6-2.7-6-3l-5.1-0.7h-11L189,127
	c-2.4,0.3-5.1,1.7-6,3c-1.2,2.1-2,4.4-2.3,6.8l-2.8,19.9c-0.3,2.4-0.7,5.6-0.9,7.2c0,1.7,1.3,3.1,3,3.2c1.8,0.2,3.4-0.7,3.7-2.1
	s0.8-4.4,1.3-6.8l1-5.6l1-5.5c0.1-0.7,0.4-1.2,0.7-1.1s0.5,0.5,0.5,1v8.5c0,2.4-0.1,6.3-0.3,8.7L185,206c-0.2,2.2,1.5,4.2,3.7,4.4
	c0.1,0,0.3,0,0.4,0h1c2.5-0.1,4.5-1.9,4.9-4.3l3.5-27.8c0.3-2.4,0.6-4.5,0.6-4.7c0.1-0.3,0.2-0.5,0.3-0.8c0,0,0,0,0,0h0.4
	c0,0,0,0,0,0c0.1,0.3,0.2,0.5,0.3,0.8c0,0.2,0.3,2.3,0.6,4.7l3.5,27.8c0.4,2.4,2.4,4.3,4.9,4.3h0.9c2.2,0,4-1.8,4.1-4
	c0-0.1,0-0.3,0-0.4l-2.9-41.7c-0.2-2.4-0.3-6.3-0.3-8.7V147c0-0.5,0.2-0.9,0.5-1s0.6,0.5,0.7,1.1s0.6,3.1,1,5.5l1,5.6
	c0.4,2.4,1,5.4,1.3,6.8s1.9,2.3,3.7,2.1c1.7-0.1,3-1.5,3-3.2C221.9,162.3,221.5,159,221.2,156.7z M199.4,123.5
	c5.8,0,10.6-4.7,10.6-10.5s-4.7-10.6-10.5-10.6c-5.8,0-10.6,4.7-10.6,10.5c0,0,0,0,0,0C188.9,118.7,193.6,123.5,199.4,123.5
	L199.4,123.5z"/>
</svg>
