<svg xmlns="http://www.w3.org/2000/svg" width="120" height="100" viewBox="0 0 120 100"><path d="M22.877,97.337c-.507,1.5-1.776,5.25-1.781,5.263a2.515,2.515,0,0,1-.5.832l-7.411,8.294a2.523,2.523,0,1,1-3.761-3.364l7.048-7.887,2.418-8.885c.222.441.473.85.676,1.176a48.542,48.542,0,0,0,2.923,4.08q.191.246.384.491Zm16.167-9.956a2.4,2.4,0,0,1,1.665,2.932,2.437,2.437,0,0,1-3.124,1.436q-3.465-1.116-6.932-2.223a2.687,2.687,0,0,1-2.071-1.969q.211-.673.424-1.348c.39-1.239.792-2.473,1.189-3.709.31-.964.691-1.969.936-2.984.527,1.619,1.062,3.245,1.56,4.862.358,1.163.307,1.063,1.5,1.427l4.857,1.576ZM28.405,63.833a4.879,4.879,0,1,1-4.879,4.879,4.879,4.879,0,0,1,4.879-4.879Zm-.423,22.053c-.481,1.552-.971,3.1-1.454,4.65-.227.727.007.949.452,1.522.865,1.112,1.714,2.318,2.551,3.46l2.6,3.552a2.509,2.509,0,0,1,.459.921l2.486,9.386a2.526,2.526,0,0,1-4.886,1.288l-2.355-8.894c-1.577-2.055-8.894-10.422-8.4-12.2.413-1.339.775-2.482,1.188-3.821.47-1.52.932-2.947,1.34-4.472.094-.365-.239-.248-.739-.1-.532.161-2.336.642-2.872.787-1.06.286-1.036.877-1.331,1.825-.575,1.85-1.19,3.705-1.784,5.551a2.454,2.454,0,0,1-3.133,1.585,2.276,2.276,0,0,1-1.48-3.017l2.509-8.2a2.53,2.53,0,0,1,1.728-1.7c2.9-.889,7.961-2.809,10.856-3.7a3.556,3.556,0,0,1,4.063,1.408c1.193,1.972.025,4.476-.611,6.454q-.6,1.857-1.191,3.715ZM116.21,116V24a4,4,0,0,0-4-4H51.853a4,4,0,0,0-4,4v92H0v4H120v-4ZM78.993,36.91h7.6v7.6h-7.6Zm0,15.2h7.6v7.6h-7.6Zm0,15.2h7.6v7.6h-7.6ZM61.524,36.91h7.6v7.6h-7.6Zm0,15.2h7.6v7.6h-7.6Zm0,15.2h7.6v7.6h-7.6ZM80.512,116H68.36V98.281H80.512Zm16.714,0H85.069V98.281H97.222ZM103.3,74.909h-7.6v-7.6h7.6Zm0-15.2h-7.6v-7.6h7.6Zm0-15.2h-7.6v-7.6h7.6Z" transform="translate(0 -20)" fill="#00a67c" fill-rule="evenodd" opacity="0.4"/></svg>