<svg xmlns="http://www.w3.org/2000/svg" width="120" height="100" viewBox="0 0 120 100"><path d="M116.2,106V36.8a4,4,0,0,0-4-4H80.708a4,4,0,0,0-4,4V106H72.151V14a4,4,0,0,0-4-4H7.794a4,4,0,0,0-4,4v92H0v4H120v-4ZM34.934,26.91h7.6v7.6h-7.6Zm0,15.2h7.6v7.6h-7.6Zm0,15.2h7.6v7.6h-7.6ZM17.465,26.91H25.06v7.6H17.465Zm0,15.2H25.06v7.6H17.465Zm0,15.2H25.06v7.6H17.465ZM36.453,106H24.3V88.281H36.453Zm16.714,0H41.01V88.281H53.162Zm6.076-41.089h-7.6v-7.6h7.6Zm0-15.2h-7.6v-7.6h7.6Zm0-15.2h-7.6v-7.6h7.6Zm33.419,45.6h-7.6v-7.6h7.6Zm0-15.2h-7.6v-7.6h7.6Zm0-15.2h-7.6v-7.6h7.6Zm15.191,30.4h-7.6v-7.6h7.6Zm0-15.2h-7.6v-7.6h7.6Zm0-15.2h-7.6v-7.6h7.6Z" transform="translate(0 -10)" fill="#04a800" opacity="0.3"/></svg>