<svg xmlns="http://www.w3.org/2000/svg" width="120" height="78.995" viewBox="0 0 120 78.995"><path d="M0,95.5a4,4,0,0,0,4,4H116a4,4,0,0,0,4-4V39.833H0ZM21.75,89h-11a1.5,1.5,0,0,1,0-3h11a1.5,1.5,0,0,1,0,3Zm87.5,0h-11a1.5,1.5,0,0,1,0-3h11a1.5,1.5,0,0,1,0,3ZM80.75,78.333h28.5a1.5,1.5,0,0,1,0,3H80.75a1.5,1.5,0,0,1,0-3Zm0,7.667h11a1.5,1.5,0,0,1,0,3h-11a1.5,1.5,0,0,1,0-3Zm-17.5,0h11a1.5,1.5,0,0,1,0,3h-11a1.5,1.5,0,0,1,0-3Zm-17.5,0h11a1.5,1.5,0,0,1,0,3h-11a1.5,1.5,0,0,1,0-3Zm-5,1.5a1.5,1.5,0,0,1-1.5,1.5h-11a1.5,1.5,0,0,1,0-3h11A1.5,1.5,0,0,1,40.75,87.5Zm-14.4-36.609h1.4a5.135,5.135,0,0,1,5.12,5.12v1.641H26.352Zm0,9.341h6.523V66.16H26.352Zm0,8.508h6.523v1.03a5.136,5.136,0,0,1-5.12,5.121h-1.4ZM18.145,50.891h5.627v24H18.145Zm-9.27,5.121A5.135,5.135,0,0,1,14,50.891h1.569v6.761H8.875Zm0,4.22h6.69V66.16H8.875Zm0,8.508h6.69v6.151H14A5.136,5.136,0,0,1,8.875,69.77ZM120,24.5v5.331H0V24.5a4,4,0,0,1,4-4H116A4,4,0,0,1,120,24.5ZM9.752,32.833v4l-5.421-2Z" transform="translate(0 -20.502)" fill="#04a800" opacity="0.3"/></svg>