<svg xmlns="http://www.w3.org/2000/svg" width="120" height="120" viewBox="0 0 120 120"><path d="M60,120a60,60,0,1,1,60-60A60,60,0,0,1,60,120ZM60,19.174a3,3,0,0,0,3-3V10.348a3,3,0,0,0-6,0v5.826A3,3,0,0,0,60,19.174ZM109.652,57h-5.826a3,3,0,1,0,0,6h5.826a3,3,0,0,0,0-6ZM60,100.826a3,3,0,0,0-3,3v5.826a3,3,0,0,0,6,0v-5.826A3,3,0,0,0,60,100.826ZM16.174,57H10.348a3,3,0,0,0,0,6h5.826a3,3,0,1,0,0-6ZM63,58.7V26.8a3,3,0,1,0-6,0V53.059l-.319-.3A3,3,0,1,0,52.57,57.13L57,61.3v6.082a3,3,0,0,0,6,0v-.438L74.068,77.352A3,3,0,0,0,78.18,72.98Z" fill="#f53" opacity="0.3"/></svg>