<svg xmlns="http://www.w3.org/2000/svg" width="120" height="112" viewBox="0 0 120 112"><path d="M96.144,4H91.089L88.741,18.187h-5.68V34.6h5.871V27.579h4.25l8.944,8.595L120,21.82ZM0,109.351H3.056V116H0ZM21.045,96.882v8.938h9.661l1.867-2.234h2.74l1.736,2.234h5.382V93.671H29.886ZM96.778,37.723H92.587v4.818h-4.8V37.723H83.071V55.6l-.009.007L65.517,69.556h-3.6V65.648H56.938v6.913L48.686,79.68h-23.6l-4.039,4.878v7.109h27.9v14.154H59.164V90.968h3.341v5.365H73.427l2.286-3.651h4.2v3.651H85.43V89.968h4.9V86.092h3.045V95.51l5.672-4.445V48.385L96.78,42.54ZM44.265,93.878h2.576v2.327H44.265ZM76.019,58.113H71.68L68.7,60.441h4.339ZM2.514,84.775v7.307H5.592V89.43h1.7V115.5l4.867-2.176v-2.96l2.349-.907v2.38l3.291-2.09V84.775Z" transform="translate(0 -4)" fill="#04a800" opacity="0.3"/></svg>