<svg xmlns="http://www.w3.org/2000/svg" width="72" height="67.972" viewBox="0 0 72 67.972"><g transform="translate(0 -2.014)"><path d="M31.437,41.073V3.014H71V61.879H38.031" fill="none" stroke="#ff3c00" stroke-linecap="round" stroke-linejoin="round" stroke-width="2"/><rect width="7.101" height="8.12" transform="translate(39.552 13.164)" fill="none" stroke="#ff3c00" stroke-linecap="round" stroke-linejoin="round" stroke-width="2"/><rect width="7.101" height="8.12" transform="translate(55.783 13.164)" fill="none" stroke="#ff3c00" stroke-linecap="round" stroke-linejoin="round" stroke-width="2"/><rect width="7.101" height="8.119" transform="translate(39.552 26.357)" fill="none" stroke="#ff3c00" stroke-linecap="round" stroke-linejoin="round" stroke-width="2"/><rect width="7.101" height="8.119" transform="translate(55.783 26.357)" fill="none" stroke="#ff3c00" stroke-linecap="round" stroke-linejoin="round" stroke-width="2"/><rect width="7.101" height="8.119" transform="translate(39.552 40.566)" fill="none" stroke="#ff3c00" stroke-linecap="round" stroke-linejoin="round" stroke-width="2"/><rect width="7.101" height="8.119" transform="translate(55.783 40.566)" fill="none" stroke="#ff3c00" stroke-linecap="round" stroke-linejoin="round" stroke-width="2"/><path d="M15.139,56.807H3.029A2.029,2.029,0,0,1,1,54.777V48.688a2.029,2.029,0,0,1,2.029-2.03H32.448a2.029,2.029,0,0,1,2.029,2.03v6.089a2.03,2.03,0,0,1-2.029,2.03H19.767" fill="none" stroke="#ff3c00" stroke-linecap="round" stroke-linejoin="round" stroke-width="2"/><path d="M32.448,57.822v9.134a2.03,2.03,0,0,1-2.029,2.03H5.058a2.029,2.029,0,0,1-2.029-2.03V57.822" fill="none" stroke="#ff3c00" stroke-linecap="round" stroke-linejoin="round" stroke-width="2"/><path d="M18.944,59.851H15.661a.192.192,0,0,1-.191-.17l-.656-5.689a.206.206,0,0,1,.2-.23h4.567a.206.206,0,0,1,.2.23l-.656,5.689A.192.192,0,0,1,18.944,59.851Z" fill="none" stroke="#ff3c00" stroke-linecap="round" stroke-linejoin="round" stroke-width="2"/><path d="M11.144,46.15v-.969a3.6,3.6,0,0,1,3.6-3.6h4.98a3.6,3.6,0,0,1,3.6,3.6v.969" fill="none" stroke="#ff3c00" stroke-linecap="round" stroke-linejoin="round" stroke-width="2"/></g></svg>