<svg xmlns="http://www.w3.org/2000/svg" width="72" height="62" viewBox="0 0 72 62"><g transform="translate(0 -1)"><path d="M9.538,46.326H5a4.012,4.012,0,0,1-4-4V6A4,4,0,0,1,5,2H67a4.012,4.012,0,0,1,4,4V42.326a4.012,4.012,0,0,1-4,4H62.291" fill="none" stroke="#ff3c00" stroke-linecap="round" stroke-linejoin="round" stroke-width="2"/><path d="M26.109,42.09V38.671a4.984,4.984,0,0,1,4.727-5.208H41.164a4.984,4.984,0,0,1,4.727,5.208V42.09" fill="none" stroke="#ff3c00" stroke-linecap="round" stroke-linejoin="round" stroke-width="2"/><circle cx="6.087" cy="6.087" r="6.087" transform="translate(29.913 16.629)" fill="none" stroke="#ff3c00" stroke-linecap="round" stroke-linejoin="round" stroke-width="2"/><rect width="42.609" height="8.059" rx="1" transform="translate(14.696 43.482)" fill="none" stroke="#ff3c00" stroke-linecap="round" stroke-linejoin="round" stroke-width="2"/><line y2="10.133" transform="translate(17.232 51.867)" fill="none" stroke="#ff3c00" stroke-linecap="round" stroke-linejoin="round" stroke-width="2"/><line y2="10.133" transform="translate(55.275 51.867)" fill="none" stroke="#ff3c00" stroke-linecap="round" stroke-linejoin="round" stroke-width="2"/><path d="M20.275,42.851V30.765l4.565-2.631" fill="none" stroke="#ff3c00" stroke-linecap="round" stroke-linejoin="round" stroke-width="2"/></g></svg>