<svg xmlns="http://www.w3.org/2000/svg" width="60.87" height="72" viewBox="0 0 60.87 72"><g transform="translate(-85.565)"><path d="M132.274,71H90.565a4,4,0,0,1-4-4V5a4,4,0,0,1,4-4h50.87a4,4,0,0,1,4,4V57.839Z" fill="none" stroke="#ff3c00" stroke-linecap="round" stroke-linejoin="round" stroke-width="2"/><path d="M129.254,65.42V54.261h11.165" fill="none" stroke="#ff3c00" stroke-linecap="round" stroke-linejoin="round" stroke-width="2"/><path d="M96.226,34.986V30.314c0-2.784,1.98-5.041,4.423-5.041h9.666c2.443,0,4.423,2.257,4.423,5.041v4.672" fill="none" stroke="#ff3c00" stroke-linecap="round" stroke-linejoin="round" stroke-width="2"/><circle cx="5.582" cy="5.582" r="5.582" transform="translate(99.9 9.66)" fill="none" stroke="#ff3c00" stroke-linecap="round" stroke-linejoin="round" stroke-width="2"/><line x2="17.255" transform="translate(122.095 33.464)" fill="none" stroke="#ff3c00" stroke-linecap="round" stroke-linejoin="round" stroke-width="2"/><line x2="17.255" transform="translate(122.095 24.333)" fill="none" stroke="#ff3c00" stroke-linecap="round" stroke-linejoin="round" stroke-width="2"/><line x2="17.255" transform="translate(122.095 15.203)" fill="none" stroke="#ff3c00" stroke-linecap="round" stroke-linejoin="round" stroke-width="2"/><line x2="43.645" transform="translate(94.685 45.499)" fill="none" stroke="#ff3c00" stroke-linecap="round" stroke-linejoin="round" stroke-width="2"/><line x2="26.39" transform="translate(94.685 56.605)" fill="none" stroke="#ff3c00" stroke-linecap="round" stroke-linejoin="round" stroke-width="2"/></g></svg>