<?xml version="1.0" encoding="utf-8"?>
<!-- Generator: Adobe Illustrator 26.0.3, SVG Export Plug-In . SVG Version: 6.00 Build 0)  -->
<svg version="1.1" id="レイヤー_1" xmlns="http://www.w3.org/2000/svg" xmlns:xlink="http://www.w3.org/1999/xlink" x="0px"
	 y="0px" width="468px" height="147px" viewBox="0 0 468 147" style="enable-background:new 0 0 468 147;" xml:space="preserve">
<style type="text/css">
	.st0{enable-background:new    ;}
	.st1{fill:#FFFFFF;}
</style>
<g id="グループ_41" transform="translate(-457 -355)">
	<g class="st0">
		<path class="st1" d="M563.8,369.7c0-4.8,3.7-8.3,8.7-8.3c5,0,8.7,3.5,8.7,8.3c0,4.8-3.7,8.3-8.7,8.3
			C567.5,378,563.8,374.5,563.8,369.7z M578.1,369.7c0-3.3-2.4-5.7-5.7-5.7c-3.2,0-5.7,2.4-5.7,5.7c0,3.3,2.4,5.7,5.7,5.7
			C575.7,375.3,578.1,373,578.1,369.7z"/>
		<path class="st1" d="M594.8,377.7l-3.3-4.7c-0.2,0-0.4,0-0.6,0h-3.6v4.7h-3v-16.1h6.6c4.2,0,6.9,2.2,6.9,5.7
			c0,2.4-1.2,4.2-3.4,5.1l3.7,5.3H594.8z M590.8,364.2h-3.5v6.4h3.5c2.6,0,4-1.2,4-3.2S593.4,364.2,590.8,364.2z"/>
		<path class="st1" d="M601.1,361.6h3v16.1h-3V361.6z"/>
		<path class="st1" d="M607.3,369.7c0-4.8,3.7-8.3,8.6-8.3c2.6,0,4.9,0.9,6.4,2.7l-1.9,1.8c-1.2-1.3-2.6-1.9-4.3-1.9
			c-3.3,0-5.7,2.3-5.7,5.7c0,3.3,2.4,5.7,5.7,5.7c1.7,0,3.1-0.6,4.3-1.9l1.9,1.8c-1.5,1.7-3.7,2.7-6.4,2.7
			C611,378,607.3,374.5,607.3,369.7z"/>
		<path class="st1" d="M623.7,369.7c0-4.8,3.7-8.3,8.7-8.3c5,0,8.7,3.5,8.7,8.3c0,4.8-3.7,8.3-8.7,8.3
			C627.4,378,623.7,374.5,623.7,369.7z M638,369.7c0-3.3-2.4-5.7-5.7-5.7c-3.2,0-5.7,2.4-5.7,5.7c0,3.3,2.4,5.7,5.7,5.7
			C635.6,375.3,638,373,638,369.7z"/>
		<path class="st1" d="M661.1,377.7l-3.3-4.7c-0.2,0-0.4,0-0.6,0h-3.6v4.7h-3v-16.1h6.6c4.2,0,6.9,2.2,6.9,5.7
			c0,2.4-1.2,4.2-3.4,5.1l3.7,5.3H661.1z M657,364.2h-3.5v6.4h3.5c2.6,0,4-1.2,4-3.2S659.7,364.2,657,364.2z"/>
		<path class="st1" d="M679.4,375.2v2.5h-12.1v-16.1h11.8v2.5h-8.8v4.2h7.8v2.5h-7.8v4.4H679.4z"/>
		<path class="st1" d="M681.6,369.7c0-4.8,3.7-8.3,8.6-8.3c2.6,0,4.9,0.9,6.4,2.7l-1.9,1.8c-1.2-1.3-2.6-1.9-4.3-1.9
			c-3.3,0-5.7,2.3-5.7,5.7c0,3.3,2.4,5.7,5.7,5.7c1.7,0,3.1-0.6,4.3-1.9l1.9,1.8c-1.5,1.7-3.7,2.7-6.4,2.7
			C685.2,378,681.6,374.5,681.6,369.7z"/>
		<path class="st1" d="M710,377.7l-3.3-4.7c-0.2,0-0.4,0-0.6,0h-3.6v4.7h-3v-16.1h6.6c4.2,0,6.9,2.2,6.9,5.7c0,2.4-1.2,4.2-3.4,5.1
			l3.7,5.3H710z M705.9,364.2h-3.5v6.4h3.5c2.6,0,4-1.2,4-3.2S708.5,364.2,705.9,364.2z"/>
		<path class="st1" d="M716.1,370.7v-9.1h3v9c0,3.3,1.5,4.7,4.1,4.7s4.1-1.4,4.1-4.7v-9h2.9v9.1c0,4.7-2.6,7.2-7,7.2
			C718.7,378,716.1,375.4,716.1,370.7z"/>
		<path class="st1" d="M734.4,361.6h3v16.1h-3V361.6z"/>
		<path class="st1" d="M745,364.2h-5.3v-2.5h13.7v2.5H748v13.6h-3V364.2z"/>
		<path class="st1" d="M772,375.2v2.5h-11.9v-2l6.4-6.1c1.6-1.5,1.8-2.4,1.8-3.3c0-1.5-1-2.3-3-2.3c-1.6,0-2.9,0.5-3.8,1.7l-2.1-1.6
			c1.2-1.7,3.5-2.7,6.1-2.7c3.5,0,5.7,1.8,5.7,4.6c0,1.6-0.4,3-2.7,5.1l-4.3,4.1H772z"/>
		<path class="st1" d="M773.4,369.7c0-5.3,2.9-8.3,6.7-8.3c3.8,0,6.7,3,6.7,8.3c0,5.3-2.9,8.3-6.7,8.3
			C776.3,378,773.4,375,773.4,369.7z M783.8,369.7c0-3.9-1.5-5.7-3.7-5.7c-2.2,0-3.7,1.8-3.7,5.7c0,3.9,1.5,5.7,3.7,5.7
			C782.3,375.4,783.8,373.6,783.8,369.7z"/>
		<path class="st1" d="M800.2,375.2v2.5h-11.9v-2l6.4-6.1c1.6-1.5,1.8-2.4,1.8-3.3c0-1.5-1-2.3-3-2.3c-1.6,0-2.9,0.5-3.8,1.7
			l-2.1-1.6c1.2-1.7,3.5-2.7,6.1-2.7c3.5,0,5.7,1.8,5.7,4.6c0,1.6-0.4,3-2.7,5.1l-4.3,4.1H800.2z"/>
		<path class="st1" d="M813.1,372.9c0,2.7-2,5.1-6.4,5.1c-2.3,0-4.6-0.7-6-1.9l1.3-2.3c1.2,1,2.9,1.6,4.7,1.6c2.1,0,3.4-0.9,3.4-2.4
			c0-1.4-1.1-2.4-3.5-2.4h-1.5v-2l3.7-4.3h-7.3v-2.5h11v2l-3.9,4.6C811.6,368.7,813.1,370.5,813.1,372.9z"/>
	</g>
	<g class="st0">
		<path class="st1" d="M474.4,405.2c2.3,0,13-0.5,16.2-0.9c1.5-0.2,2.6-0.4,3.3-0.6l3.4,3.9c-0.9,0.5-2.5,1.7-3.5,2.4
			c-3.9,3.2-10.7,8.9-14.7,12c7.8-0.8,17.2-1.5,24.4-1.5l0.1,5.1c-5.2-0.3-10.5-0.3-13.8,0.2c-5.1,0.8-9.8,4.8-9.8,9.6
			c0,5,3.9,6.7,8.9,7.3c3.1,0.4,5.9,0.3,7.9,0.1l-1.1,5.6c-13.4,0.5-21-3.6-21-12.2c0-4,2.8-7.7,5.2-9.5c-5.4,0.4-12.1,1.2-18.1,2.3
			l-0.5-5.1c2.9-0.3,6.6-0.8,9.4-1.1c5.4-3.7,13.3-10.6,16.7-13.6c-2.3,0.2-10.5,0.5-12.8,0.7c-1.4,0.1-3.1,0.3-4.5,0.4l-0.3-5.5
			C471.2,405.1,472.7,405.2,474.4,405.2z"/>
		<path class="st1" d="M534.7,447.8l-3.2-5.1c1.8-0.2,3.5-0.4,4.8-0.8c6.9-1.6,13.1-6.6,13.1-15.3c0-7.8-4.8-14-13.1-15.1
			c-0.8,4.9-1.7,10.1-3.2,15.2c-3.2,11-7.7,17.1-13.1,17.1c-5.3,0-10.3-5.9-10.3-15c0-12.1,10.6-22.5,24.1-22.5
			c13,0,21.2,9.1,21.2,20.4C555.1,438.1,547.8,445.9,534.7,447.8z M520.2,437.4c2.4,0,5-3.5,7.5-11.8c1.4-4.3,2.3-9.2,3-13.9
			c-9.7,1.6-15.4,10-15.4,16.7C515.2,434.6,517.8,437.4,520.2,437.4z"/>
		<path class="st1" d="M608.9,403.7v4.3h-12.1v2.4h-5V408h-13v2.4H574V408h-11.9v-4.3H574v-3.3h4.9v3.3h13v-3.3h5v3.3H608.9z
			 M562.2,425.3h46.7v9.1H604v-5.3h-19.1c-0.8,1-1.6,1.9-2.5,2.8h13.8l0.9-0.2l3.2,1.7c-5.6,10.1-18.7,14.7-31.8,16.7
			c-0.4-1.2-1.4-3.2-2.2-4.2c5.2-0.6,10.5-1.7,15.1-3.4c-2.3-1.6-5.2-3.2-8-4.4c-1.8,0.9-3.7,1.7-5.8,2.5c-0.6-1.1-1.9-2.7-3-3.5
			c6.7-2.1,11.6-5,14.6-8h-12v5.3h-4.7V425.3z M604.9,411.3v11.4h-38.6v-11.4H604.9z M577.6,414.7h-6.8v4.6h6.8V414.7z M577.9,435.4
			l-0.6,0.4c3.1,1.3,6.4,3.1,8.5,4.7c2.9-1.4,5.3-3.1,7.2-5.1H577.9z M588.9,414.7h-7.1v4.6h7.1V414.7z M600.2,414.7h-7.1v4.6h7.1
			V414.7z"/>
		<path class="st1" d="M638.1,447.8l-3.2-5.1c1.8-0.2,3.5-0.4,4.8-0.8c6.9-1.6,13.1-6.6,13.1-15.3c0-7.8-4.8-14-13.1-15.1
			c-0.8,4.9-1.7,10.1-3.2,15.2c-3.2,11-7.7,17.1-13.1,17.1c-5.3,0-10.3-5.9-10.3-15c0-12.1,10.6-22.5,24.1-22.5
			c13,0,21.2,9.1,21.2,20.4C658.4,438.1,651.2,445.9,638.1,447.8z M623.5,437.4c2.4,0,5-3.5,7.5-11.8c1.4-4.3,2.3-9.2,3-13.9
			c-9.7,1.6-15.4,10-15.4,16.7C618.6,434.6,621.2,437.4,623.5,437.4z"/>
	</g>
	<g class="st0">
		<path class="st1" d="M659.7,437.1l4.4-3.9c3.8,3.1,8.9,8.2,11.9,11.9l-4.6,3.9C668.1,444.9,663.5,440.3,659.7,437.1z"/>
	</g>
	<g class="st0">
		<path class="st1" d="M734.4,421.9v5.5h-49.1v-5.5H734.4z"/>
		<path class="st1" d="M761.3,421.6h-21.4v-4.8h7.6v-12.5h5.1v12.5h8.7v-16.4h5.1v5.7h16.1v4.6h-16.1v6.1h21.3v4.8h-21.4v11.3
			c0,2.4-0.5,3.7-2.4,4.4c-1.8,0.7-4.6,0.8-8.6,0.8c-0.2-1.5-0.9-3.3-1.6-4.6c2.8,0.1,5.7,0.1,6.5,0.1c0.8,0,1-0.2,1-0.8V421.6z
			 M755.5,424.5c-2.8,4.6-7.1,9.3-11,12.4c-1-0.9-3.2-2.5-4.5-3.2c3.9-2.6,7.9-6.8,10.3-10.8L755.5,424.5z M779.2,431.9
			c-4.8,11.8-15.3,16.4-32.7,18.5c-0.3-1.6-1.4-3.7-2.4-4.9c16-1.3,25.7-5.1,29.9-15.2L779.2,431.9z M777.1,422.7
			c3.8,3.2,8.6,7.9,10.6,11.2l-4.3,2.9c-2-3.3-6.5-8.2-10.4-11.6L777.1,422.7z"/>
		<path class="st1" d="M835.2,444.4c1.8,0,2.1-1.1,2.3-7.8c1.1,0.9,3.2,1.7,4.5,2.1c-0.5,8.3-1.8,10.5-6.4,10.5h-7
			c-5.3,0-6.6-1.6-6.6-6.7v-14.6h-9.1c-1.2,10-4.1,17.9-16.4,22.4c-0.6-1.3-2-3.3-3.1-4.4c11.1-3.4,13.3-9.9,14.2-18h-13.4v-4.9
			h21.1v-9.9h-10.3c-1.3,2.9-2.8,5.7-4.4,7.9c-1.2-0.8-3.2-1.9-4.4-2.4c3.6-4.4,6.3-11.7,7.5-17.1l5.1,1c-0.5,1.8-1.1,3.8-1.8,5.8
			h8.4v-7.9h5.1v7.9h17.1v4.8h-17.1v9.9h21.1v4.9H827v14.6c0,1.7,0.3,1.9,2.2,1.9H835.2z"/>
		<path class="st1" d="M851.7,426.5c2.8-2.8,7.1-8.6,10.4-12.5c3.4-3.9,6.5-4.4,10.3-0.6c3.4,3.4,7.6,8.9,11,12.4
			c3.3,3.7,8.4,9,13.4,13.4l-4.4,5c-4-3.8-8.8-9.1-12.4-13.3c-3.5-3.9-7.5-9.1-10-12c-2.1-2.3-3.1-1.9-4.9,0.2
			c-2.4,3-6.5,8.7-9.1,11.9c-1.1,1.6-2.4,3.3-3.3,4.6l-5.1-5.2C849,429.3,850.2,428.1,851.7,426.5z"/>
		<path class="st1" d="M919,440.9c0,4.6-3.7,8.4-8.4,8.4c-4.6,0-8.5-3.8-8.5-8.4c0-4.6,3.8-8.5,8.5-8.5
			C915.3,432.5,919,436.3,919,440.9z M915.8,440.9c0-2.9-2.3-5.2-5.2-5.2c-2.9,0-5.2,2.3-5.2,5.2c0,2.9,2.3,5.2,5.2,5.2
			C913.5,446.1,915.8,443.8,915.8,440.9z"/>
	</g>
</g>
</svg>
