<svg xmlns="http://www.w3.org/2000/svg" viewBox="0 0 64 64"><defs><style>.a{fill:none;stroke:#ff3c00;stroke-linecap:round;stroke-linejoin:round;stroke-width:2px;}</style></defs><path class="a" d="M31.44,44.09H27.6a2.67,2.67,0,0,1-2.67-2.66V3a2,2,0,0,1,2-1.95H50.65a2,2,0,0,1,2,2V41.43a2.67,2.67,0,0,1-2.67,2.66H40.83"/><path class="a" d="M39.7,63s1.13-9.28,1.13-15.56A65.18,65.18,0,0,0,40,34.29c-.85-5.49-6.38-5.13-7-.27l-1.56,10H26.68a1.73,1.73,0,0,1-1.75-1.73V19.43L12.87,34.18a6.58,6.58,0,0,0-.86,7L22.36,63"/><rect class="a" x="36.21" y="7.3" width="6.31" height="6.3" rx="1"/><line class="a" x1="47.36" y1="7.3" x2="47.36" y2="37.79"/></svg>