<svg xmlns="http://www.w3.org/2000/svg" viewBox="0 0 64 64"><defs><style>.a,.b{fill:none;stroke:#ff3c00;stroke-linecap:round;stroke-width:2px;}.a{stroke-miterlimit:10;}.b{stroke-linejoin:round;}</style></defs><path class="a" d="M19.88,59V39.77a.41.41,0,0,1,.42-.41h7.9a.41.41,0,0,1,.41.41V59"/><path class="a" d="M35.13,59V32a.41.41,0,0,1,.42-.41h7.9a.41.41,0,0,1,.42.41V59"/><path class="a" d="M13.36,59V47.55a.41.41,0,0,0-.42-.41H5a.41.41,0,0,0-.41.41V59"/><path class="a" d="M50.39,59V24.09a.41.41,0,0,1,.42-.4H58.7a.41.41,0,0,1,.42.4V59"/><line class="a" x1="1" y1="59.39" x2="63" y2="59.39"/><line class="a" x1="3.4" y1="33.29" x2="58.57" y2="7.08"/><polyline class="b" points="50.94 4.62 58.57 7.08 56.05 14.54"/></svg>