<svg xmlns="http://www.w3.org/2000/svg" viewBox="0 0 64 64"><defs><style>.a{fill:none;stroke:#ff3c00;stroke-linecap:round;stroke-miterlimit:10;stroke-width:2px;}</style></defs><path class="a" d="M33.72,35.5,6.5,23.88a.65.65,0,0,1,0-1.2L33.72,11.06a2.08,2.08,0,0,1,1.66,0L62.6,22.68a.65.65,0,0,1,0,1.2L35.38,35.5A2.08,2.08,0,0,1,33.72,35.5Z"/><path class="a" d="M17.2,29l-1,11.76c0,6.82,8.2,12.35,18.32,12.35s18.32-5.53,18.32-12.35L51.9,29"/><line class="a" x1="6.1" y1="23.28" x2="6.1" y2="33.08"/><path class="a" d="M1.6,45.32h9a.6.6,0,0,0,.55-.83L6.1,32.56l-5,11.93A.6.6,0,0,0,1.6,45.32Z"/></svg>