<svg xmlns="http://www.w3.org/2000/svg" viewBox="0 0 64 64"><defs><style>.a,.b{fill:none;stroke:#ff3c00;stroke-linecap:round;stroke-width:1.5px;}.a{stroke-miterlimit:10;}.b{stroke-linejoin:round;}</style></defs><line class="a" x1="7.63" y1="27.56" x2="7.63" y2="49.19"/><line class="a" x1="16.04" y1="27.56" x2="16.04" y2="49.19"/><line class="a" x1="56.37" y1="27.56" x2="56.37" y2="49.19"/><line class="a" x1="47.96" y1="27.56" x2="47.96" y2="49.19"/><line class="a" x1="27.8" y1="27.56" x2="27.8" y2="49.19"/><line class="a" x1="36.2" y1="27.56" x2="36.2" y2="49.19"/><rect class="a" x="1.86" y="54.18" width="60.28" height="7.65" rx="1.08"/><path class="a" d="M63,22.57H1a.29.29,0,0,1-.29-.29V18A.42.42,0,0,1,1,17.59L31.88,2.2a.25.25,0,0,1,.24,0L63,17.59a.42.42,0,0,1,.23.37v4.32A.29.29,0,0,1,63,22.57Z"/><rect class="b" x="4.69" y="22.57" width="14.3" height="4.47"/><rect class="b" x="4.69" y="49.7" width="14.3" height="4.47"/><rect class="b" x="24.85" y="22.57" width="14.3" height="4.47"/><rect class="b" x="24.85" y="49.7" width="14.3" height="4.47"/><rect class="b" x="45.02" y="22.57" width="14.3" height="4.47"/><rect class="b" x="45.02" y="49.7" width="14.3" height="4.47"/></svg>