<svg xmlns="http://www.w3.org/2000/svg" viewBox="0 0 64 64"><defs><style>.a{fill:none;stroke:#ff3c00;stroke-linecap:round;stroke-linejoin:round;stroke-width:2px;}.b{fill:#ff3c00;}</style></defs><polygon class="a" points="58.96 25.06 47.64 30.48 32 15.58 17.92 30.48 5.04 25.06 9.25 45.37 54.74 45.37 58.96 25.06"/><path class="a" d="M9.82,49.37l2,9.48H52.22l2-9.48Z"/><path class="a" d="M35.17,8.33A3.17,3.17,0,1,1,32,5.15,3.18,3.18,0,0,1,35.17,8.33Z"/><path class="a" d="M7.34,19a3.17,3.17,0,1,1-3.17-3.19A3.18,3.18,0,0,1,7.34,19Z"/><path class="a" d="M63,19a3.17,3.17,0,1,1-3.17-3.19A3.18,3.18,0,0,1,63,19Z"/><path class="b" d="M17,56.14a2,2,0,1,1,2-2A2,2,0,0,1,17,56.14Z"/><path class="b" d="M24.59,56.14a2,2,0,1,1,2-2A2,2,0,0,1,24.59,56.14Z"/><path class="b" d="M32.17,56.14a2,2,0,1,1,2-2A2,2,0,0,1,32.17,56.14Z"/><path class="b" d="M39.41,56.14a2,2,0,1,1,2-2A2,2,0,0,1,39.41,56.14Z"/><path class="b" d="M47,56.14a2,2,0,1,1,2-2A2,2,0,0,1,47,56.14Z"/></svg>