<svg xmlns="http://www.w3.org/2000/svg" viewBox="0 0 64 64"><defs><style>.a{fill:#fff;}.b,.c{fill:none;stroke:#ff3c00;stroke-linejoin:round;}.b{stroke-linecap:round;stroke-width:2px;}.c{stroke-width:4px;}</style></defs><path class="a" d="M37.29,60.07a4.3,4.3,0,0,1-5.26-3L21.6,18.55a4.31,4.31,0,0,1,3-5.27L47.17,7.14a4.29,4.29,0,0,1,5.25,3l10.43,38.5a4.31,4.31,0,0,1-3,5.27Z"/><path class="b" d="M37.29,60.07a4.3,4.3,0,0,1-5.26-3L21.6,18.55a4.31,4.31,0,0,1,3-5.27L47.17,7.14a4.29,4.29,0,0,1,5.25,3l10.43,38.5a4.31,4.31,0,0,1-3,5.27Z"/><path class="a" d="M30.68,57.68a4.28,4.28,0,0,1-6-1L1.78,24.05a4.32,4.32,0,0,1,1-6l19.1-13.5a4.29,4.29,0,0,1,6,1L50.81,38.2a4.3,4.3,0,0,1-1,6Z"/><path class="b" d="M30.68,57.68a4.28,4.28,0,0,1-6-1L1.78,24.05a4.32,4.32,0,0,1,1-6l19.1-13.5a4.29,4.29,0,0,1,6,1L50.81,38.2a4.3,4.3,0,0,1-1,6Z"/><path class="a" d="M34,58.85a4.3,4.3,0,0,1-5.7-2.06L11.4,20.69A4.31,4.31,0,0,1,13.46,15L34.6,5a4.3,4.3,0,0,1,5.71,2.05l16.93,36.1a4.31,4.31,0,0,1-2.05,5.72Z"/><path class="b" d="M34,58.85a4.3,4.3,0,0,1-5.7-2.06L11.4,20.69A4.31,4.31,0,0,1,13.46,15L34.6,5a4.3,4.3,0,0,1,5.71,2.05l16.93,36.1a4.31,4.31,0,0,1-2.05,5.72Z"/><path class="a" d="M30.68,57.68a4.28,4.28,0,0,1-6-1L1.78,24.05a4.32,4.32,0,0,1,1-6l19.1-13.5a4.29,4.29,0,0,1,6,1L50.81,38.2a4.3,4.3,0,0,1-1,6Z"/><path class="b" d="M30.68,57.68a4.28,4.28,0,0,1-6-1L1.78,24.05a4.32,4.32,0,0,1,1-6l19.1-13.5a4.29,4.29,0,0,1,6,1L50.81,38.2a4.3,4.3,0,0,1-1,6Z"/><line class="c" x1="18.41" y1="7.04" x2="46.28" y2="46.66"/><path class="b" d="M16,24.71a1.07,1.07,0,0,1-1.5-.26l-2.66-3.78a1.07,1.07,0,0,1,.26-1.49l3.76-2.66a1.06,1.06,0,0,1,1.49.26l2.66,3.78a1.07,1.07,0,0,1-.25,1.49Z"/></svg>