<?xml version="1.0" encoding="utf-8"?>
<!-- Generator: Adobe Illustrator 26.0.2, SVG Export Plug-In . SVG Version: 6.00 Build 0)  -->
<svg version="1.1" id="レイヤー_1" xmlns="http://www.w3.org/2000/svg" xmlns:xlink="http://www.w3.org/1999/xlink" x="0px"
	 y="0px" width="699px" height="219px" viewBox="0 0 699 219" style="enable-background:new 0 0 699 219;" xml:space="preserve">
<style type="text/css">
	.st0{fill:#F7F0E2;}
	.st1{opacity:0.5;}
	.st2{fill:none;}
	.st3{fill:none;stroke:#FF3C00;}
	.st4{enable-background:new    ;}
	.st5{fill:#FF3C00;}
</style>
<circle id="楕円形_22" class="st0" cx="416.2" cy="25.3" r="20"/>
<g id="楕円形_56" transform="translate(244)" class="st1">
	<circle class="st2" cx="105.7" cy="108.8" r="107.5"/>
	<circle class="st3" cx="105.7" cy="108.8" r="107"/>
</g>
<g id="グループ_6653" transform="translate(-369 -6433)">
	<g class="st4">
		<path d="M387.3,6578.3l0-1.9h1.7l0,1.9l-0.3,3.3h-1L387.3,6578.3z M390.9,6578.3l-0.1-1.9h1.7l0,1.9l-0.3,3.3h-1L390.9,6578.3z"/>
		<path d="M402.1,6589.1c-0.4-0.5-1.3-1.3-2.1-2v4.6h-1.3v-4.7c-0.9,1.4-2,2.7-3,3.5c-0.2-0.3-0.6-0.7-0.9-1
			c1.3-0.8,2.7-2.5,3.6-4.1h-3.2v-1.1h3.5v-1.9h-3.6v-1.1h8.4v1.1H400v1.9h3.3v1.1H400v0.4c0.7,0.5,2.4,1.9,2.8,2.3L402.1,6589.1z
			 M403.3,6578.3h-7.9v-1.1h3.3v-1.8h1.3v1.8h3.3V6578.3z M397.2,6581.2c-0.1-0.7-0.4-1.8-0.7-2.6l1-0.3c0.4,0.8,0.7,1.9,0.8,2.6
			L397.2,6581.2z M400.1,6580.9c0.3-0.7,0.7-1.8,0.9-2.6l1.2,0.3c-0.3,0.9-0.7,1.9-1,2.6L400.1,6580.9z M411.4,6582.6h-2v9h-1.3v-9
			h-2.7v0.5c0,2.7-0.3,6.3-2.9,8.8c-0.2-0.3-0.6-0.8-1-0.9c2.3-2.2,2.5-5.3,2.5-7.9v-6.3l1,0.3c1.8-0.4,3.9-1,5-1.5l1.1,1
			c-1.5,0.7-3.8,1.2-5.8,1.6v3.2h6V6582.6z"/>
		<path d="M418.8,6588.2h-3.9v1.5h-1.2v-13.2h5.1V6588.2z M414.9,6577.7v4h2.6v-4H414.9z M417.5,6587v-4.2h-2.6v4.2H417.5z
			 M427.2,6582.1v2h2.1v1.2h-2.1v4.8c0,0.8-0.2,1.2-0.7,1.4c-0.6,0.2-1.5,0.2-2.9,0.2c-0.1-0.4-0.2-0.9-0.4-1.2c1.1,0,2.1,0,2.4,0
			c0.3,0,0.4-0.1,0.4-0.4v-4.8h-6.8v-1.2h6.8v-2H419v-1.2h4.5v-2.3h-3.7v-1.2h3.7v-2.1h1.3v2.1h3.9v1.2h-3.9v2.3h4.6v1.2H427.2z
			 M421.3,6585.9c0.9,0.9,1.9,2.2,2.3,3.1l-1.1,0.7c-0.4-0.9-1.4-2.2-2.3-3.2L421.3,6585.9z"/>
		<path d="M437.1,6575.9c-0.5,1.3-1.2,2.5-1.9,3.6v12.2h-1.4v-10.2c-0.8,1-1.6,1.9-2.4,2.6c-0.1-0.3-0.5-1-0.8-1.3
			c2.1-1.7,4-4.5,5.2-7.3L437.1,6575.9z M441.9,6582c0.6,4.8,1.8,8,3.7,8.2c0.5,0,0.8-1,1-3.1c0.3,0.3,0.8,0.6,1.1,0.7
			c-0.4,3.1-1.1,4-2.1,4c-3-0.2-4.4-3.9-5.1-9.6l-4.3,0.5l-0.2-1.3l4.4-0.5c-0.1-1.7-0.3-3.5-0.3-5.3h1.3c0.1,1.8,0.2,3.6,0.3,5.1
			l5.4-0.7l0.2,1.3L441.9,6582z M445.9,6579.3c-0.6-0.8-1.8-2.1-2.9-3l1-0.6c1.1,0.8,2.4,2.1,3,2.9L445.9,6579.3z"/>
		<path d="M457.5,6590.9l-0.8-1.3c0.6-0.1,1.1-0.1,1.5-0.2c2.3-0.5,4.6-2.2,4.6-5.3c0-2.7-1.7-5-4.8-5.2c-0.2,1.7-0.6,3.5-1.1,5.2
			c-1.1,3.7-2.5,5.6-4.2,5.6c-1.6,0-3.2-1.8-3.2-4.8c0-3.9,3.5-7.3,7.9-7.3c4.2,0,6.9,3,6.9,6.6
			C464.3,6587.8,461.8,6590.3,457.5,6590.9z M452.8,6587.9c0.8,0,1.8-1.2,2.7-4.2c0.5-1.5,0.8-3.2,1-4.9c-3.5,0.4-5.6,3.4-5.6,5.8
			C450.9,6586.9,452,6587.9,452.8,6587.9z"/>
		<path d="M477.1,6577.7c0,0.4,0,1,0,1.7h2.8c0.5,0,1.2-0.1,1.5-0.1v1.5c-0.4,0-1,0-1.5,0h-2.9c0.1,2.7,0.1,6.3,0.1,8.5
			c0,0.9-0.6,1.4-1.6,1.4c-0.9,0-2,0-2.9-0.1l-0.1-1.5c0.9,0.1,1.9,0.2,2.5,0.2c0.5,0,0.7-0.2,0.7-0.7c0-1.4,0-4.1-0.1-6.5
			c-1.5,2.1-4.6,5-7.9,6.8l-1-1.2c3.7-1.8,6.9-4.8,8.3-6.9h-5.9c-0.6,0-1.1,0-1.7,0.1v-1.5c0.5,0.1,1.1,0.1,1.7,0.1h6.6
			c0-0.7,0-1.3-0.1-1.7c-0.1-0.7-0.1-1.1-0.2-1.5h1.7C477.1,6576.7,477.1,6577.2,477.1,6577.7z"/>
		<path d="M486.4,6578.1v6c0,0.5,0,1,0.1,1.4h-1.7c0-0.3,0.1-0.8,0.1-1.4v-6c0-0.3,0-1-0.1-1.3h1.6
			C486.4,6577.2,486.4,6577.7,486.4,6578.1z M494.8,6578.2v2.9c0,4.3-0.6,5.7-1.9,7.3c-1.2,1.4-3,2.2-4.3,2.6l-1.2-1.2
			c1.7-0.4,3.2-1.1,4.3-2.4c1.3-1.5,1.5-3,1.5-6.4v-2.8c0-0.6,0-1.1-0.1-1.6h1.7C494.8,6577.1,494.8,6577.6,494.8,6578.2z"/>
		<path d="M501,6578.1h8.9c0.4,0,1,0,1.3,0c0,0.4-0.1,1-0.1,1.4v9.3c0,0.6,0.1,1.5,0.1,1.7h-1.6c0-0.2,0-0.6,0-1h-8.8
			c-0.7,0-1.5,0-2,0.1v-1.6c0.5,0.1,1.2,0.1,2,0.1h8.8v-8.5h-8.6c-0.7,0-1.6,0-2,0.1v-1.6C499.7,6578.1,500.5,6578.1,501,6578.1z"/>
		<path d="M515.7,6578.3l0-1.9h1.7l0,1.9l-0.3,3.3h-1L515.7,6578.3z M519.2,6578.3l-0.1-1.9h1.7l0,1.9l-0.3,3.3h-1L519.2,6578.3z"/>
		<path d="M526.8,6578c-0.3,1.7-0.9,4.9-0.9,6.9c0,0.9,0.1,1.6,0.2,2.5c0.3-0.8,0.7-1.9,1-2.6l0.8,0.6c-0.5,1.3-1.1,3.2-1.3,4
			c-0.1,0.3-0.1,0.6-0.1,0.8s0,0.5,0.1,0.6l-1.3,0.1c-0.4-1.3-0.7-3.3-0.7-5.8c0-2.6,0.6-5.7,0.8-7.2c0.1-0.4,0.1-0.9,0.1-1.3
			l1.6,0.1C527,6577.1,526.9,6577.7,526.8,6578z M531,6587.2c0,0.8,0.6,1.6,3,1.6c1.6,0,3-0.1,4.5-0.5l0,1.5
			c-1.1,0.2-2.6,0.4-4.5,0.4c-3,0-4.4-1-4.4-2.7c0-0.6,0.1-1.2,0.3-2.1l1.3,0.1C531.1,6586.2,531,6586.7,531,6587.2z M538,6578.2
			v1.5c-1.9,0.2-5.4,0.2-7.4,0v-1.4C532.5,6578.5,536.2,6578.4,538,6578.2z"/>
		<path d="M556.1,6589.9c0,0.9-0.2,1.3-0.8,1.5c-0.6,0.2-1.7,0.2-3.4,0.2c-0.1-0.4-0.3-1-0.5-1.4c1.3,0.1,2.5,0.1,2.9,0
			c0.3,0,0.4-0.1,0.4-0.5v-10.3H543v12h-1.3v-13.3h4.9c0.5-1,0.9-2.2,1.2-3.1l1.6,0.3c-0.4,1-0.9,2-1.3,2.8h8V6589.9z M546.6,6588
			v1.3h-1.2v-7.2h7v5.9H546.6z M546.6,6583.2v3.5h4.5v-3.5H546.6z"/>
		<path d="M562.1,6577.7c-0.6,2.6-1.2,6.6-0.5,9.5c0.3-0.8,0.6-1.9,1-2.8l0.8,0.5c-0.4,1.3-1,3.1-1.2,4c-0.1,0.3-0.1,0.6-0.1,0.8
			c0,0.2,0,0.4,0.1,0.6l-1.2,0.1c-0.4-1.1-1-3.4-1-5.7c0-2.9,0.5-5.7,0.7-7.2c0.1-0.4,0.1-0.9,0.1-1.2l1.7,0.2
			C562.3,6576.9,562.2,6577.4,562.1,6577.7z M571.5,6577.4c0,0.4,0,1.6,0,2.7c1.1-0.1,2.1-0.2,2.9-0.4v1.5c-0.8,0.1-1.8,0.2-2.9,0.3
			c0,0.3,0,0.5,0,0.6c0,4.1,0,7.1-3.8,9.3l-1.3-1c0.6-0.2,1.3-0.7,1.7-1.1c1.9-1.7,2-3.7,2-7.2c0-0.2,0-0.3,0-0.6
			c-0.8,0-1.5,0.1-2.3,0.1c-0.9,0-2.1-0.1-2.9-0.1v-1.4c0.8,0.1,1.9,0.2,2.9,0.2c0.7,0,1.5,0,2.3-0.1c0-1.1-0.1-2.3-0.1-2.8
			c0-0.4-0.1-0.8-0.2-1.1h1.7C571.5,6576.6,571.5,6577,571.5,6577.4z"/>
		<path d="M582.6,6577.6c-0.1,0.4-0.2,0.8-0.3,1.3c1.2-0.1,2.4-0.4,3.5-0.6v1.4c-1.2,0.3-2.5,0.5-3.7,0.6c-0.2,0.8-0.4,1.6-0.6,2.4
			c-0.6,2.6-1.9,6.3-2.8,8.2l-1.6-0.5c1.1-1.9,2.4-5.5,3-8c0.2-0.6,0.3-1.3,0.5-1.9c-0.6,0-1.2,0.1-1.7,0.1c-0.8,0-1.4,0-2.1-0.1
			l-0.1-1.4c0.9,0.1,1.5,0.1,2.2,0.1c0.6,0,1.2,0,1.9-0.1c0.1-0.6,0.2-1.2,0.3-1.6c0.1-0.5,0.1-1.1,0.1-1.5l1.7,0.1
			C582.8,6576.6,582.7,6577.2,582.6,6577.6z M584.8,6587.7c0,0.8,0.5,1.7,3,1.7c1.2,0,2.4-0.1,3.5-0.4l-0.1,1.5
			c-1,0.1-2.2,0.3-3.5,0.3c-2.8,0-4.4-0.9-4.4-2.6c0-0.7,0.1-1.4,0.3-2.1l1.4,0.1C584.8,6586.6,584.8,6587.2,584.8,6587.7z
			 M587.9,6581.5c1.1,0,2.1,0.1,3.1,0.2l0,1.4c-0.9-0.1-2-0.2-3-0.2c-1.1,0-2.2,0.1-3.3,0.2v-1.3
			C585.6,6581.6,586.8,6581.5,587.9,6581.5z"/>
		<path d="M598.8,6583.7c0,0,0,0.4,0,0.6c-0.2,4.5-0.4,6.2-0.9,6.8c-0.3,0.4-0.6,0.5-1.2,0.5c-0.5,0.1-1.3,0.1-2.2,0
			c0-0.4-0.2-0.9-0.4-1.3c0.9,0.1,1.7,0.1,2.1,0.1c0.3,0,0.5,0,0.6-0.2c0.3-0.4,0.6-1.8,0.7-5.3h-2.7c0,0.3-0.1,0.6-0.1,0.8
			l-1.2-0.2c0.2-1.4,0.5-3.7,0.6-5.4h3.4v-2.7h-3.7v-1.2h5v5.1h-3.6c-0.1,0.8-0.1,1.6-0.2,2.4H598.8z M609,6591.9
			c-0.1-0.4-0.4-0.8-0.6-1.2c-3.3,0.3-6.8,0.6-9.1,0.8l-0.2-1.3c1.3-0.1,2.9-0.2,4.7-0.3v-3h-3.9v-4.8h3.9v-1.9
			c-1.6,0.1-3.1,0.2-4.3,0.3l-0.2-1.3l1.5-0.1c0.7-1.1,1.5-2.7,1.9-3.8l1.4,0.4c-0.6,1.1-1.3,2.4-1.9,3.4c1.5-0.1,3.3-0.2,5-0.3
			c-0.4-0.5-0.9-1-1.3-1.5l1.1-0.5c1.1,1.1,2.4,2.6,2.9,3.6l-1.2,0.6c-0.2-0.3-0.4-0.7-0.7-1.1c-1,0.1-2,0.1-3,0.2v2h4v4.8h-4v2.9
			l2.6-0.2c-0.4-0.6-0.9-1.2-1.3-1.7l1.1-0.5c1.1,1.2,2.2,2.9,2.7,4.1L609,6591.9z M603.8,6585.7v-2.6h-2.7v2.6H603.8z
			 M605.1,6583.1v2.6h2.7v-2.6H605.1z"/>
		<path d="M627,6576.1v15.6h-1.4v-0.8h-12v0.8h-1.3v-15.6H627z M625.6,6589.7v-12.3h-12v12.3H625.6z M620.3,6581.3v2.1h3.2v4.7h-7.6
			v-4.7h3.1v-2.1h-4.2v-1.1h4.2v-2h1.3v2h4.4v1.1H620.3z M622.3,6584.4h-5.1v2.6h5.1V6584.4z"/>
		<path d="M636.1,6578.8c0.9-0.1,1.9-0.4,2.8-0.7l0,1.4c-1,0.3-2.1,0.5-3.3,0.7c-0.9,2.5-2.5,5.7-3.9,7.6l-1.4-0.7
			c1.5-1.7,3-4.6,3.9-6.7c-0.5,0-1.1,0.1-1.6,0.1c-0.7,0-1.4,0-2.1-0.1l-0.1-1.4c0.7,0.1,1.4,0.1,2.2,0.1c0.6,0,1.3,0,2-0.1
			c0.3-1,0.5-2.1,0.6-3.1l1.6,0.1C636.6,6576.7,636.4,6577.8,636.1,6578.8z M641,6583.5c0,0.7,0.1,1.8,0.1,3
			c1.5,0.6,2.8,1.4,3.7,2.2l-0.8,1.2c-0.8-0.7-1.7-1.5-2.9-2.1c0,0.3,0,0.5,0,0.8c0,1.4-0.9,2.6-3.2,2.6c-2,0-3.6-0.8-3.6-2.6
			c0-1.7,1.6-2.7,3.6-2.7c0.6,0,1.2,0.1,1.8,0.2c-0.1-1.5-0.2-3.3-0.2-4.5h1.4C641,6582.3,641,6582.9,641,6583.5z M637.9,6590
			c1.5,0,2-0.8,2-1.8c0-0.2,0-0.5,0-0.8c-0.6-0.2-1.2-0.3-1.9-0.3c-1.3,0-2.2,0.6-2.2,1.4C635.8,6589.4,636.5,6590,637.9,6590z
			 M640.5,6579.6l0.7-1.1c1.3,0.6,3.3,1.7,4.2,2.4l-0.8,1.2C643.7,6581.3,641.7,6580.1,640.5,6579.6z"/>
		<path d="M651.9,6575.3h1.3v16.3h-1.3v-4.8c-1.7,0.5-3.3,0.9-4.6,1.3l-0.3-1.3c0.4-0.1,0.8-0.2,1.3-0.3v-9.2h1.2v8.9
			c0.8-0.2,1.6-0.4,2.4-0.6V6575.3z M663,6576.9c-0.6,4.1-1.8,7.4-3.5,9.9c1.1,1.6,2.5,2.9,4.2,3.8c-0.3,0.2-0.8,0.8-1,1.1
			c-1.7-0.9-3-2.1-4.1-3.7c-1.2,1.6-2.6,2.8-4.2,3.7c-0.2-0.3-0.6-0.9-0.9-1.1c1.6-0.8,3.1-2.1,4.3-3.8c-1.4-2.3-2.3-5.2-3-8.5
			l1.3-0.2c0.5,2.8,1.4,5.3,2.5,7.4c1.3-2.1,2.3-4.6,2.8-7.5H654v-1.3h7.9l0.2-0.1L663,6576.9z"/>
		<path d="M676.3,6580.2c1.3,2.1,3.4,4.1,5.4,5c-0.3,0.2-0.7,0.7-0.9,1.1c-0.6-0.3-1.2-0.7-1.8-1.2v4.8h2.4v1.2h-16.3v-1.2h2.5v-4.7
			c-0.6,0.5-1.2,0.9-1.8,1.3c-0.2-0.3-0.7-0.8-1-1c2.1-1.2,4.1-3.1,5.3-5.3h-4.5v-1.2h4.5c-0.4-0.9-1.2-2.2-1.9-3.2l1.1-0.5
			c0.8,1,1.7,2.3,2.1,3.3l-0.8,0.4h5.5l-1-0.3c0.7-0.9,1.7-2.4,2.2-3.4l1.4,0.4c-0.7,1.2-1.6,2.5-2.4,3.3h4.7v1.2H676.3z
			 M678.7,6584.9c-1.5-1.3-2.9-2.9-3.8-4.7h-3.2c-0.9,1.8-2.2,3.4-3.6,4.7H678.7z M671,6586h-2.1v3.9h2.1V6586z M674.4,6586h-2.2
			v3.9h2.2V6586z M677.8,6590v-3.9h-2.2v3.9H677.8z"/>
		<path d="M688.1,6575.7c-0.4,1.3-1,2.6-1.6,3.8v12.2h-1.3v-10c-0.5,0.8-1,1.5-1.5,2.1c-0.1-0.3-0.5-1-0.8-1.3
			c1.6-1.7,3-4.4,3.9-7.1L688.1,6575.7z M694.9,6580.2c1.1,3,2.9,6,4.9,7.6c-0.3,0.2-0.8,0.7-1,1.1c-1.9-1.7-3.6-4.8-4.7-7.9v6.2
			h2.9v1.2H694v3.2h-1.3v-3.2h-2.9v-1.2h2.9v-6.1c-1.2,3.1-2.9,6.1-4.8,7.8c-0.2-0.3-0.7-0.8-1-1c2-1.6,3.8-4.6,4.9-7.7h-4.2v-1.3h5
			v-3.5h1.3v3.5h5.4v1.3H694.9z"/>
		<path d="M703.7,6578.9c-0.2,1.1-0.6,2.3-1.7,3.2c-0.2-0.3-0.6-0.7-0.9-0.9c1.3-1.2,1.5-2.6,1.5-3.7v-1.8l1.1,0.3
			c1.5-0.2,3.2-0.5,4.2-0.7l0.9,0.8c-1.3,0.4-3.2,0.6-4.9,0.8v0.6v0.3h5.4v1h-2.1v2.3h-1.2v-2.3H703.7z M707.8,6589.6
			c-1.5,0.8-3.7,1.7-5.5,2.2c-0.2-0.3-0.7-0.8-1-1c1.8-0.4,4-1,5.3-1.7L707.8,6589.6z M703.6,6581.5h11.7v7.3h-11.7V6581.5z
			 M704.8,6583.7h9.1v-1.2h-9.1V6583.7z M704.8,6585.8h9.1v-1.3h-9.1V6585.8z M704.8,6587.9h9.1v-1.3h-9.1V6587.9z M717.3,6577.9v1
			h-2.7v2.3h-1.2v-2.3h-2.5c-0.3,0.9-0.8,1.8-1.9,2.5c-0.2-0.3-0.5-0.7-0.8-0.9c1.5-1,1.7-2.1,1.7-3.1v-1.6l1,0.3
			c1.7-0.2,3.5-0.4,4.5-0.7l0.9,0.8c-1.4,0.4-3.5,0.6-5.3,0.8v0.5c0,0.1,0,0.3,0,0.4H717.3z M711.9,6589.1c1.9,0.6,4.1,1.4,5.4,2
			l-1.5,0.7c-1.1-0.6-3.1-1.3-5-2L711.9,6589.1z"/>
		<path d="M727.6,6590.9l-0.8-1.3c0.6-0.1,1.1-0.1,1.5-0.2c2.3-0.5,4.6-2.2,4.6-5.3c0-2.7-1.7-5-4.8-5.2c-0.2,1.7-0.6,3.5-1.1,5.2
			c-1.1,3.7-2.5,5.6-4.2,5.6c-1.6,0-3.2-1.8-3.2-4.8c0-3.9,3.5-7.3,7.9-7.3c4.2,0,6.9,3,6.9,6.6
			C734.4,6587.8,731.9,6590.3,727.6,6590.9z M722.9,6587.9c0.8,0,1.8-1.2,2.7-4.2c0.5-1.5,0.8-3.2,1-4.9c-3.5,0.4-5.6,3.4-5.6,5.8
			C721,6586.9,722,6587.9,722.9,6587.9z"/>
		<path d="M752.9,6587.4h-2.2v2.7c0,0.8-0.2,1.2-0.8,1.4c-0.6,0.2-1.6,0.2-3.1,0.2c-0.1-0.4-0.3-0.9-0.5-1.3c1.2,0,2.3,0,2.6,0
			c0.3,0,0.4-0.1,0.4-0.4v-2.7h-9.6v4.4h-1.3v-4.4h-2.1v-1.2h2.1v-6.8h5.4v-1.7h-6.8v-1.3h15.2v1.3h-7v1.7h5.5v6.8h2.2V6587.4z
			 M739.9,6580.6v2.2h4.1v-2.2H739.9z M739.9,6586.1h4.1v-2.2h-4.1V6586.1z M745.2,6580.6v2.2h4.2v-2.2H745.2z M749.4,6586.1v-2.2
			h-4.2v2.2H749.4z"/>
		<path d="M759.8,6585.8c-0.3-0.6-0.9-1.7-1.4-2.6v8.5h-1.2v-8.4c-0.6,2-1.4,3.9-2.2,5c-0.1-0.3-0.5-0.8-0.7-1.2
			c1.1-1.5,2.2-4.3,2.7-6.8h-2.4v-1.2h2.5v-3.9h1.2v3.9h2.1v1.2h-2.1v1.2c0.5,0.7,1.8,2.7,2.1,3.2L759.8,6585.8z M771.1,6588.8h-1.2
			v1.5c0,0.6-0.1,1-0.6,1.2c-0.5,0.2-1.2,0.2-2.4,0.2c-0.1-0.3-0.2-0.8-0.4-1.1c0.9,0,1.6,0,1.9,0c0.2,0,0.3-0.1,0.3-0.3v-1.5h-6.1
			v2.9h-1.2v-2.9h-1.2v-1h1.2v-4.5h3.6v-1.1h-4.5v-1h2.5v-1.2h-1.7v-1h1.7v-1.2h-2.1v-1h2.1v-1.5h1.2v1.5h2.9v-1.5h1.3v1.5h2.2v1
			h-2.2v1.2h2v1h-2v1.2h2.6v1h-4.7v1.1h3.8v4.5h1.2V6588.8z M762.5,6584.2v1.2h2.4v-1.2H762.5z M762.5,6587.7h2.4v-1.3h-2.4V6587.7z
			 M764.1,6578.9h2.9v-1.2h-2.9V6578.9z M764.1,6581.1h2.9v-1.2h-2.9V6581.1z M766.1,6584.2v1.2h2.5v-1.2H766.1z M768.7,6587.7v-1.3
			h-2.5v1.3H768.7z"/>
		<path d="M782.3,6587.4c1.7,1.2,4.3,2.2,6.7,2.7c-0.3,0.3-0.7,0.8-0.9,1.1c-2.4-0.6-5.1-1.9-6.9-3.4v3.8H780v-3.9
			c-1.7,1.5-4.5,2.8-6.8,3.4c-0.2-0.3-0.6-0.8-0.8-1.1c2.3-0.5,4.9-1.5,6.6-2.8h-6.2v-1.1h7.3v-1.4c-0.4,0.4-1,0.7-1.7,1
			c-0.2-0.3-0.6-0.7-0.9-0.9c2.4-0.9,2.8-2.1,2.8-3.2v-1.8h6.3v3.6c0,0.3,0,0.5,0.1,0.6c0.1,0,0.1,0.1,0.3,0.1h0.5
			c0.1,0,0.3,0,0.4-0.1c0.1,0,0.1-0.2,0.2-0.4c0-0.2,0.1-0.7,0.1-1.4c0.2,0.2,0.6,0.4,0.9,0.5c0,0.7-0.1,1.4-0.2,1.7
			c-0.1,0.3-0.3,0.5-0.5,0.6c-0.2,0.1-0.5,0.2-0.8,0.2h-0.8c-0.4,0-0.8-0.1-1-0.3c-0.3-0.2-0.3-0.5-0.3-1.5v-2.6h-3.8v0.9
			c0,1.1-0.3,2.2-1.5,3.1h1.3v1.4h7.4v1.1H782.3z M775,6577.7c-0.5,0.7-1,1.4-1.5,1.9c-0.3-0.2-0.8-0.6-1.1-0.7
			c1.1-0.9,2-2.3,2.6-3.7l1.2,0.3c-0.2,0.4-0.3,0.8-0.5,1.1h4.7v1.1c0.7-0.7,1.2-1.6,1.6-2.5l1.3,0.3c-0.2,0.4-0.4,0.8-0.6,1.2h6.1
			v1.1h-4c0.4,0.5,0.7,1,0.9,1.4l-1.1,0.4c-0.2-0.5-0.7-1.2-1.2-1.8H782c-0.5,0.7-1.1,1.3-1.7,1.8c-0.3-0.2-0.8-0.5-1.2-0.7
			c0.4-0.3,0.8-0.7,1.2-1.1H777c0.3,0.5,0.6,1.1,0.7,1.5l-1.1,0.3c-0.1-0.5-0.5-1.2-0.8-1.8H775z M772.6,6583.9
			c0.8-0.1,1.8-0.3,2.9-0.4v-2.4h-2.5v-1h6.3v1h-2.5v2.2c0.8-0.1,1.7-0.3,2.6-0.4l0.1,1c-2.3,0.4-4.8,0.8-6.5,1.1L772.6,6583.9z
			 M782.5,6581.6c0.9,0.5,2,1.3,2.5,1.8l-0.8,0.8c-0.5-0.6-1.6-1.4-2.5-1.9L782.5,6581.6z"/>
		<path d="M797.1,6581.7c1.7-1,3.6-2,4.6-2.5c0.5-0.3,0.9-0.5,1.3-0.8l0.8,1.3c-0.4,0.3-0.9,0.5-1.4,0.8c-1.2,0.6-3.7,1.8-5.5,3
			c-1.7,1.1-2.7,2.3-2.7,3.6c0,1.5,1.4,2.4,4.3,2.4c2,0,4.4-0.3,5.8-0.6v1.6c-1.4,0.2-3.4,0.5-5.7,0.5c-3.4,0-5.8-1-5.8-3.7
			c0-1.9,1.2-3.3,3.1-4.7c-0.8-1.5-1.8-3.6-2.6-5.5l1.4-0.6C795.4,6578.3,796.3,6580.3,797.1,6581.7z"/>
		<path d="M813.3,6589.1c-0.4-0.5-1.3-1.3-2.1-2v4.6H810v-4.7c-0.9,1.4-2,2.7-3,3.5c-0.2-0.3-0.6-0.7-0.9-1c1.3-0.8,2.7-2.5,3.6-4.1
			h-3.2v-1.1h3.5v-1.9h-3.6v-1.1h8.4v1.1h-3.5v1.9h3.3v1.1h-3.3v0.4c0.7,0.5,2.4,1.9,2.8,2.3L813.3,6589.1z M814.6,6578.3h-7.9v-1.1
			h3.3v-1.8h1.3v1.8h3.3V6578.3z M808.5,6581.2c-0.1-0.7-0.4-1.8-0.7-2.6l1-0.3c0.4,0.8,0.7,1.9,0.8,2.6L808.5,6581.2z
			 M811.4,6580.9c0.3-0.7,0.7-1.8,0.9-2.6l1.2,0.3c-0.3,0.9-0.7,1.9-1,2.6L811.4,6580.9z M822.7,6582.6h-2v9h-1.3v-9h-2.7v0.5
			c0,2.7-0.3,6.3-2.9,8.8c-0.2-0.3-0.6-0.8-1-0.9c2.3-2.2,2.5-5.3,2.5-7.9v-6.3l1,0.3c1.8-0.4,3.9-1,5-1.5l1.1,1
			c-1.5,0.7-3.8,1.2-5.8,1.6v3.2h6V6582.6z"/>
		<path d="M830.7,6577.6c-0.1,0.4-0.2,0.8-0.3,1.3c1.2-0.1,2.4-0.4,3.5-0.6v1.4c-1.2,0.3-2.5,0.5-3.7,0.6c-0.2,0.8-0.4,1.6-0.6,2.4
			c-0.6,2.6-1.9,6.3-2.8,8.2l-1.6-0.5c1.1-1.9,2.4-5.5,3-8c0.2-0.6,0.3-1.3,0.5-1.9c-0.6,0-1.2,0.1-1.7,0.1c-0.8,0-1.4,0-2.1-0.1
			l-0.1-1.4c0.9,0.1,1.5,0.1,2.2,0.1c0.6,0,1.2,0,1.9-0.1c0.1-0.6,0.2-1.2,0.3-1.6c0.1-0.5,0.1-1.1,0.1-1.5l1.7,0.1
			C830.9,6576.6,830.7,6577.2,830.7,6577.6z M832.8,6587.7c0,0.8,0.5,1.7,3,1.7c1.2,0,2.4-0.1,3.5-0.4l-0.1,1.5
			c-1,0.1-2.2,0.3-3.5,0.3c-2.8,0-4.4-0.9-4.4-2.6c0-0.7,0.1-1.4,0.3-2.1l1.4,0.1C832.9,6586.6,832.8,6587.2,832.8,6587.7z
			 M836,6581.5c1.1,0,2.1,0.1,3.1,0.2l0,1.4c-0.9-0.1-2-0.2-3-0.2c-1.1,0-2.2,0.1-3.3,0.2v-1.3
			C833.6,6581.6,834.8,6581.5,836,6581.5z"/>
		<path d="M848.1,6578.8c0.9-0.1,1.9-0.4,2.8-0.7l0,1.4c-1,0.3-2.1,0.5-3.3,0.7c-0.9,2.5-2.5,5.7-3.9,7.6l-1.4-0.7
			c1.5-1.7,3-4.6,3.9-6.7c-0.5,0-1.1,0.1-1.6,0.1c-0.7,0-1.4,0-2.1-0.1l-0.1-1.4c0.7,0.1,1.4,0.1,2.2,0.1c0.6,0,1.3,0,2-0.1
			c0.3-1,0.5-2.1,0.6-3.1l1.6,0.1C848.7,6576.7,848.4,6577.8,848.1,6578.8z M853.1,6583.5c0,0.7,0.1,1.8,0.1,3
			c1.5,0.6,2.8,1.4,3.7,2.2l-0.8,1.2c-0.8-0.7-1.7-1.5-2.9-2.1c0,0.3,0,0.5,0,0.8c0,1.4-0.9,2.6-3.2,2.6c-2,0-3.6-0.8-3.6-2.6
			c0-1.7,1.6-2.7,3.6-2.7c0.6,0,1.2,0.1,1.8,0.2c-0.1-1.5-0.2-3.3-0.2-4.5h1.4C853,6582.3,853,6582.9,853.1,6583.5z M849.9,6590
			c1.5,0,2-0.8,2-1.8c0-0.2,0-0.5,0-0.8c-0.6-0.2-1.2-0.3-1.9-0.3c-1.3,0-2.2,0.6-2.2,1.4C847.8,6589.4,848.5,6590,849.9,6590z
			 M852.6,6579.6l0.7-1.1c1.3,0.6,3.3,1.7,4.2,2.4l-0.8,1.2C855.7,6581.3,853.8,6580.1,852.6,6579.6z"/>
		<path d="M862.8,6578.3v4.1c2.1-0.5,5-1.4,6.8-2.2c0.5-0.2,1.1-0.5,1.6-0.8l0.6,1.4c-0.5,0.2-1.2,0.5-1.7,0.7
			c-2,0.8-5.1,1.8-7.4,2.3v4c0,0.9,0.4,1.2,1.3,1.3c0.6,0.1,1.5,0.1,2.4,0.1c1.9,0,4.7-0.2,6.2-0.6v1.6c-1.6,0.2-4.3,0.4-6.2,0.4
			c-1.1,0-2.1-0.1-2.9-0.2c-1.4-0.3-2.2-0.9-2.2-2.3v-9.9c0-0.4,0-1-0.1-1.5h1.7C862.9,6577.2,862.8,6577.8,862.8,6578.3z
			 M872.5,6578.7l-1,0.5c-0.4-0.7-1-1.8-1.5-2.5l1-0.4C871.4,6576.9,872.1,6578,872.5,6578.7z M874.5,6577.9l-1,0.5
			c-0.4-0.8-1-1.8-1.5-2.5l1-0.4C873.4,6576.2,874.1,6577.3,874.5,6577.9z"/>
		<path d="M881.3,6583.1l-0.8,1.3c-0.9-0.6-2.8-1.9-3.9-2.5l0.8-1.2C878.4,6581.3,880.5,6582.6,881.3,6583.1z M883.4,6587.4
			c3-1.7,5.4-4.1,6.8-6.6l0.9,1.5c-1.6,2.4-4.1,4.7-6.9,6.4c-1.8,1.1-4.3,1.9-6,2.2l-0.8-1.5
			C879.4,6589.2,881.6,6588.4,883.4,6587.4z M884,6579.2l-0.8,1.2c-0.9-0.7-2.8-2-3.9-2.6l0.8-1.2
			C881.2,6577.2,883.2,6578.6,884,6579.2z M889.5,6579.7l-1,0.5c-0.5-0.9-1-2-1.6-2.8l1-0.4C888.2,6577.6,889,6578.8,889.5,6579.7z
			 M891.9,6578.8l-1,0.5c-0.5-1-1.1-2-1.7-2.8l1-0.4C890.6,6576.7,891.4,6578,891.9,6578.8z"/>
		<path d="M902,6577.5v1.2h3c0.4,0,0.8,0,1.1-0.1l0.9,0.9c-0.3,0.3-0.7,0.8-1,1.1c-0.9,1.1-2.4,2.6-4.1,3.7c0,1.5,0,3.6,0,4.8
			c0,0.6,0.1,1.4,0.1,2h-1.6c0.1-0.5,0.1-1.3,0.1-2c0-1,0-2.7,0-3.9c-1.7,1-3.7,1.8-6.1,2.5l-0.9-1.3c3.4-0.8,5.7-2,7.3-3.1
			c1.6-1,3-2.4,3.7-3.3H897c-0.6,0-1.7,0-2.2,0.1v-1.5c0.6,0.1,1.6,0.1,2.2,0.1h3.5v-1.2c0-0.5,0-1.2-0.1-1.6h1.7
			C902,6576.3,902,6577,902,6577.5z M903.5,6585.1l0.9-1.1c1.7,0.9,2.7,1.5,4.3,2.6l-0.9,1.2C906.3,6586.8,905.2,6586,903.5,6585.1z
			"/>
		<path d="M922.8,6579.1c-0.6,1.5-1.7,3.7-3,5.3c1.9,1.6,4.1,4,5.3,5.4l-1.3,1.1c-1.2-1.6-3.1-3.7-5-5.3c-1.9,2.1-4.4,4.1-7,5.3
			l-1.2-1.2c2.9-1.1,5.6-3.3,7.4-5.3c1.2-1.4,2.5-3.5,3-5h-7c-0.6,0-1.6,0.1-1.8,0.1v-1.6c0.3,0,1.3,0.1,1.8,0.1h7
			c0.6,0,1.1-0.1,1.4-0.1l0.9,0.7C923.1,6578.4,922.9,6578.8,922.8,6579.1z"/>
		<path d="M930.1,6577.6h8.6c0.6,0,1.1,0,1.5-0.1v1.4c-0.4,0-0.8-0.1-1.5-0.1H934v3.8h6.1c0.4,0,1.1,0,1.5-0.1v1.5
			c-0.4-0.1-1.1-0.1-1.5-0.1H934v3.6c0,0.9,0.6,1.4,2.3,1.4c1.7,0,3.2-0.1,4.7-0.3l-0.1,1.5c-1.4,0.1-3.1,0.2-4.8,0.2
			c-2.7,0-3.6-1-3.6-2.4v-4.1H929c-0.5,0-1.2,0-1.7,0.1v-1.5c0.5,0,1.2,0.1,1.7,0.1h3.5v-3.8h-2.4c-0.6,0-1.1,0-1.6,0.1v-1.4
			C929,6577.6,929.5,6577.6,930.1,6577.6z"/>
		<path d="M945.5,6581.8h11.8c0.4,0,1,0,1.4-0.1v1.5c-0.4,0-1,0-1.4,0h-4.9c-0.1,1.9-0.3,3.6-1.1,4.9c-0.6,1.2-2,2.5-3.5,3.3l-1.3-1
			c1.4-0.6,2.7-1.6,3.4-2.8c0.8-1.2,1-2.8,1-4.5h-5.4c-0.5,0-1.1,0-1.5,0v-1.5C944.5,6581.7,945,6581.8,945.5,6581.8z M947.7,6577.3
			h6.2c0.5,0,1.2,0,1.7-0.1v1.5c-0.5,0-1.2-0.1-1.7-0.1h-6.2c-0.6,0-1.2,0-1.7,0.1v-1.5C946.6,6577.2,947.2,6577.3,947.7,6577.3z
			 M958.1,6578.2l-1,0.4c-0.4-0.7-1-1.8-1.5-2.5l1-0.4C957,6576.3,957.7,6577.4,958.1,6578.2z M960.1,6577.4l-1,0.4
			c-0.4-0.8-1-1.8-1.5-2.5l1-0.4C959,6575.6,959.7,6576.8,960.1,6577.4z"/>
		<path d="M963.3,6585.4c0.5-1.6,0.5-5.2,0.5-7.2c0-0.5-0.1-0.9-0.1-1.3h1.7c0,0.2-0.1,0.8-0.1,1.3c0,2-0.1,5.9-0.6,7.7
			c-0.5,1.9-1.7,3.7-3.2,5l-1.4-0.9C961.7,6588.8,962.8,6587.2,963.3,6585.4z M968.6,6588.9v-10.8c0-0.7-0.1-1.2-0.1-1.3h1.7
			c0,0.1-0.1,0.6-0.1,1.3v10.4c1.7-0.8,3.9-2.4,5.3-4.4l0.8,1.2c-1.5,2.1-4.1,4-6.1,5c-0.3,0.2-0.5,0.3-0.6,0.4l-1-0.8
			C968.5,6589.7,968.6,6589.3,968.6,6588.9z"/>
		<path d="M986,6590.9l-0.8-1.3c0.6-0.1,1.1-0.1,1.5-0.2c2.3-0.5,4.6-2.2,4.6-5.3c0-2.7-1.7-5-4.8-5.2c-0.2,1.7-0.6,3.5-1.1,5.2
			c-1.1,3.7-2.5,5.6-4.2,5.6c-1.6,0-3.2-1.8-3.2-4.8c0-3.9,3.5-7.3,7.9-7.3c4.2,0,6.9,3,6.9,6.6
			C992.8,6587.8,990.3,6590.3,986,6590.9z M981.3,6587.9c0.8,0,1.8-1.2,2.7-4.2c0.5-1.5,0.8-3.2,1-4.9c-3.5,0.4-5.6,3.4-5.6,5.8
			C979.4,6586.9,980.5,6587.9,981.3,6587.9z"/>
		<path d="M1000.7,6575.4c1.3,1,3,2.4,3.9,3.4l-0.9,1c-0.8-0.9-2.2-2.3-3.5-3.2c-0.5,0.6-1.1,1.4-1.9,2.1h4.2v1h-4.4v-0.8
			c-0.7,0.7-1.6,1.4-2.6,2c-0.2-0.3-0.6-0.7-0.8-0.9c2.2-1.3,3.8-3.2,4.7-4.6H1000.7z M997.7,6585.6c0,0.4-0.1,0.7-0.2,1.1h6.5v4.8
			h-1.2v-0.6h-4.1v0.7h-1.2v-4.7c-0.3,1.5-0.9,3.1-1.9,4.3c-0.2-0.3-0.6-0.7-0.9-0.8c1.7-2.1,1.9-4.8,1.9-6.9v-2.9h7.1v5H997.7z
			 M1002.5,6584.6v-1h-4.7v0c0,0.3,0,0.7,0,1H1002.5z M997.8,6581.7v1h4.7v-1H997.8z M998.7,6587.8v2.1h4.1v-2.1H998.7z
			 M1006.5,6587.3h-1.3v-9.9h1.3V6587.3z M1010.5,6575.6v14.3c0,0.9-0.2,1.3-0.8,1.5c-0.6,0.2-1.5,0.3-3.1,0.2
			c-0.1-0.3-0.3-1-0.5-1.3c1.2,0.1,2.3,0,2.6,0c0.3,0,0.5-0.1,0.5-0.4v-14.3H1010.5z"/>
		<path d="M1028.1,6584.3v7.4h-1.4v-1.1h-11.2v1.1h-1.3v-7.4h1.3v5h4.8v-6.1h-5.5v-6.2h1.3v4.9h4.1v-6.5h1.4v6.5h4.3v-4.9h1.4v6.2
			h-5.7v6.1h5.1v-5H1028.1z"/>
	</g>
	<g class="st4">
		<path d="M373.3,6504.1h7.3v39.2h-7.3V6504.1z"/>
		<path d="M420,6526.2v17.1h-7v-16.2c0-5.3-2.6-7.9-7.1-7.9c-5,0-8.3,3-8.3,9v15.1h-7v-29.9h6.7v3.9c2.3-2.7,5.9-4.2,10.3-4.2
			C414.7,6513.1,420,6517.2,420,6526.2z"/>
		<path d="M458.4,6526.2v17.1h-7v-16.2c0-5.3-2.6-7.9-7.1-7.9c-5,0-8.3,3-8.3,9v15.1h-7v-29.9h6.7v3.9c2.3-2.7,5.9-4.2,10.3-4.2
			C453,6513.1,458.4,6517.2,458.4,6526.2z"/>
		<path d="M465.1,6528.4c0-9,6.7-15.3,15.9-15.3c9.3,0,16,6.3,16,15.3s-6.7,15.3-16,15.3C471.8,6543.7,465.1,6537.3,465.1,6528.4z
			 M489.9,6528.4c0-5.7-3.8-9.4-8.9-9.4c-5,0-8.8,3.6-8.8,9.4s3.8,9.4,8.8,9.4C486.1,6537.7,489.9,6534.1,489.9,6528.4z"/>
		<path d="M530.8,6513.4l-12.8,29.9h-7.2l-12.8-29.9h7.3l9.3,22.2l9.6-22.2H530.8z"/>
		<path d="M559.3,6525.8v17.5h-6.6v-3.6c-1.7,2.6-4.9,4-9.4,4c-6.8,0-11.1-3.8-11.1-9c0-5,3.4-8.9,12.4-8.9h7.7v-0.4
			c0-4.1-2.5-6.5-7.4-6.5c-3.4,0-6.8,1.1-9.1,3l-2.7-5.1c3.2-2.5,7.8-3.7,12.7-3.7C554.3,6513.1,559.3,6517.2,559.3,6525.8z
			 M552.3,6534v-3.5H545c-4.8,0-6,1.8-6,4c0,2.5,2.1,4.1,5.7,4.1C548.1,6538.6,551.1,6537.1,552.3,6534z"/>
		<path d="M586.2,6541.7c-1.7,1.3-4.2,2-6.7,2c-6.6,0-10.3-3.5-10.3-10.1v-14.4h-4.9v-5.6h4.9v-6.8h7v6.8h8v5.6h-8v14.2
			c0,2.9,1.5,4.5,4.1,4.5c1.5,0,2.9-0.4,3.9-1.2L586.2,6541.7z"/>
		<path d="M591,6504.3c0-2.4,1.9-4.2,4.5-4.2s4.5,1.7,4.5,4c0,2.5-1.8,4.4-4.5,4.4C592.9,6508.5,591,6506.7,591,6504.3z M592,6513.4
			h7v29.9h-7V6513.4z"/>
		<path d="M605.7,6528.4c0-9,6.7-15.3,15.9-15.3c9.3,0,16,6.3,16,15.3s-6.7,15.3-16,15.3C612.4,6543.7,605.7,6537.3,605.7,6528.4z
			 M630.5,6528.4c0-5.7-3.8-9.4-8.9-9.4c-5,0-8.8,3.6-8.8,9.4s3.8,9.4,8.8,9.4C626.7,6537.7,630.5,6534.1,630.5,6528.4z"/>
		<path d="M673.7,6526.2v17.1h-7v-16.2c0-5.3-2.6-7.9-7.1-7.9c-5,0-8.3,3-8.3,9v15.1h-7v-29.9h6.7v3.9c2.3-2.7,5.9-4.2,10.3-4.2
			C668.4,6513.1,673.7,6517.2,673.7,6526.2z"/>
	</g>
	<g class="st4">
		<path d="M700.7,6524.4v6.8h10.8v3.5h-10.8v8.6h-4.2v-22.4h16.4v3.5H700.7z"/>
		<path d="M714.6,6534.8c0-5.1,3.8-8.7,9.1-8.7c5.3,0,9.1,3.6,9.1,8.7c0,5.1-3.8,8.8-9.1,8.8
			C718.5,6543.6,714.6,6539.9,714.6,6534.8z M728.8,6534.8c0-3.3-2.2-5.3-5.1-5.3c-2.9,0-5.1,2.1-5.1,5.3c0,3.3,2.2,5.3,5.1,5.3
			C726.6,6540.1,728.8,6538.1,728.8,6534.8z"/>
		<path d="M746.5,6526.1v3.8c-0.4-0.1-0.6-0.1-0.9-0.1c-3,0-5,1.8-5,5.3v8.3h-4v-17.1h3.8v2.5C741.6,6527,743.7,6526.1,746.5,6526.1
			z"/>
	</g>
	<g class="st4">
		<path class="st5" d="M803,6504.1v39.2h-6l-21.6-26.5v26.5h-7.2v-39.2h6l21.6,26.5v-26.5H803z"/>
		<path class="st5" d="M840.9,6530.6h-23.5c0.8,4.4,4.5,7.2,9.7,7.2c3.4,0,6-1.1,8.1-3.2l3.8,4.3c-2.7,3.2-6.9,4.9-12,4.9
			c-10,0-16.5-6.4-16.5-15.3c0-8.9,6.6-15.3,15.5-15.3c8.7,0,15.1,6.1,15.1,15.5C841,6529.1,840.9,6530,840.9,6530.6z M817.4,6526
			h17c-0.6-4.3-3.9-7.3-8.5-7.3C821.3,6518.7,818,6521.6,817.4,6526z"/>
		<path class="st5" d="M865.9,6543.3l-7.7-10.4l-7.7,10.4h-7.7l11.6-15.2l-11.1-14.7h7.8l7.3,9.8l7.3-9.8h7.6l-11.2,14.6l11.7,15.3
			H865.9z"/>
		<path class="st5" d="M896.9,6541.7c-1.7,1.3-4.2,2-6.7,2c-6.6,0-10.3-3.5-10.3-10.1v-14.4H875v-5.6h4.9v-6.8h7v6.8h8v5.6h-8v14.2
			c0,2.9,1.5,4.5,4.1,4.5c1.5,0,2.9-0.4,3.9-1.2L896.9,6541.7z"/>
		<path class="st5" d="M916,6523.7c0-11.6,9-20.2,21.1-20.2c12.2,0,21.1,8.5,21.1,20.2c0,11.6-9,20.2-21.1,20.2
			C925,6543.9,916,6535.3,916,6523.7z M950.9,6523.7c0-8-5.9-13.8-13.8-13.8c-7.9,0-13.8,5.8-13.8,13.8s5.9,13.8,13.8,13.8
			C945,6537.5,950.9,6531.7,950.9,6523.7z"/>
		<path class="st5" d="M982.6,6513.1v6.7c-0.6-0.1-1.1-0.2-1.6-0.2c-5.3,0-8.7,3.1-8.7,9.2v14.5h-7v-29.9h6.7v4.4
			C974,6514.7,977.6,6513.1,982.6,6513.1z"/>
		<path class="st5" d="M987.6,6504.3c0-2.4,1.9-4.2,4.5-4.2s4.5,1.7,4.5,4c0,2.5-1.8,4.4-4.5,4.4
			C989.5,6508.5,987.6,6506.7,987.6,6504.3z M988.6,6513.4h7v29.9h-7V6513.4z"/>
		<path class="st5" d="M1002.3,6528.4c0-9,6.7-15.3,16.2-15.3c5.8,0,10.5,2.4,12.8,6.9l-5.4,3.1c-1.8-2.9-4.5-4.1-7.4-4.1
			c-5.2,0-9.1,3.6-9.1,9.4c0,5.8,3.9,9.4,9.1,9.4c3,0,5.7-1.3,7.4-4.1l5.4,3.1c-2.3,4.5-6.9,7-12.8,7
			C1009,6543.7,1002.3,6537.3,1002.3,6528.4z"/>
		<path class="st5" d="M1034.4,6528.4c0-9,6.7-15.3,15.9-15.3c9.3,0,16,6.3,16,15.3s-6.7,15.3-16,15.3
			C1041.1,6543.7,1034.4,6537.3,1034.4,6528.4z M1059.2,6528.4c0-5.7-3.8-9.4-8.9-9.4c-5,0-8.8,3.6-8.8,9.4s3.8,9.4,8.8,9.4
			C1055.4,6537.7,1059.2,6534.1,1059.2,6528.4z"/>
	</g>
</g>
</svg>
