<?xml version="1.0" encoding="utf-8"?>
<!-- Generator: Adobe Illustrator 26.0.2, SVG Export Plug-In . SVG Version: 6.00 Build 0)  -->
<svg version="1.1" id="レイヤー_1" xmlns="http://www.w3.org/2000/svg" xmlns:xlink="http://www.w3.org/1999/xlink" x="0px"
	 y="0px" width="300px" height="154px" viewBox="0 0 300 154" style="enable-background:new 0 0 300 154;" xml:space="preserve">
<style type="text/css">
	.st0{fill:#F7F0E2;}
	.st1{opacity:0.5;}
	.st2{fill:none;}
	.st3{fill:none;stroke:#FF3C00;}
	.st4{enable-background:new    ;}
	.st5{fill:#FF3C00;}
</style>
<circle id="楕円形_57" class="st0" cx="198.3" cy="17.3" r="16"/>
<g id="楕円形_56" transform="translate(76)" class="st1">
	<circle class="st2" cx="73.8" cy="76.8" r="75.5"/>
	<circle class="st3" cx="73.8" cy="76.8" r="75"/>
</g>
<g id="グループ_6654" transform="translate(-40 -4083)">
	<g class="st4">
		<path d="M50.9,4162l0-1.4h1.3l0,1.4l-0.3,2.6h-0.8L50.9,4162z M53.7,4162l0-1.4H55l0,1.4l-0.3,2.6h-0.8L53.7,4162z"/>
		<path d="M62.3,4170.4c-0.3-0.4-1-1-1.6-1.6v3.6h-1v-3.7c-0.7,1.1-1.6,2.1-2.3,2.7c-0.2-0.2-0.5-0.6-0.7-0.8c1-0.7,2.1-1.9,2.8-3.2
			H57v-0.9h2.7v-1.5H57v-0.9h6.5v0.9h-2.7v1.5h2.6v0.9h-2.6v0.3c0.5,0.4,1.9,1.5,2.2,1.8L62.3,4170.4z M63.3,4162h-6.1v-0.9h2.6
			v-1.4h1v1.4h2.5V4162z M58.6,4164.2c-0.1-0.5-0.3-1.4-0.5-2l0.8-0.2c0.3,0.6,0.5,1.5,0.6,2L58.6,4164.2z M60.8,4164
			c0.3-0.6,0.6-1.4,0.7-2l1,0.2c-0.3,0.7-0.5,1.5-0.8,2L60.8,4164z M69.6,4165.3h-1.6v7h-1v-7H65v0.3c0,2.1-0.3,4.9-2.2,6.8
			c-0.1-0.2-0.5-0.6-0.7-0.7c1.8-1.7,2-4.2,2-6.1v-4.9l0.8,0.2c1.4-0.3,3-0.8,3.9-1.2l0.8,0.8c-1.2,0.5-2.9,1-4.5,1.3v2.5h4.7
			V4165.3z"/>
		<path d="M75.3,4169.7h-3v1.1h-1v-10.3h4V4169.7z M72.3,4161.5v3.1h2v-3.1H72.3z M74.4,4168.7v-3.2h-2v3.2H74.4z M81.9,4164.9v1.6
			h1.6v0.9h-1.6v3.8c0,0.6-0.2,0.9-0.6,1.1c-0.4,0.2-1.1,0.2-2.3,0.2c0-0.3-0.2-0.7-0.3-1c0.9,0,1.6,0,1.9,0c0.2,0,0.3-0.1,0.3-0.3
			v-3.7h-5.3v-0.9h5.3v-1.6h-5.4v-0.9h3.5v-1.8h-2.9v-0.9h2.9v-1.7h1v1.7h3v0.9h-3v1.8h3.6v0.9H81.9z M77.3,4167.9
			c0.7,0.7,1.5,1.7,1.8,2.4l-0.9,0.6c-0.3-0.7-1.1-1.7-1.8-2.5L77.3,4167.9z"/>
		<path d="M89.6,4160.1c-0.4,1-0.9,1.9-1.5,2.8v9.5h-1.1v-8c-0.6,0.8-1.2,1.5-1.9,2.1c-0.1-0.3-0.4-0.8-0.6-1c1.6-1.4,3.1-3.5,4-5.7
			L89.6,4160.1z M93.3,4164.8c0.5,3.7,1.4,6.2,2.9,6.4c0.4,0,0.6-0.8,0.8-2.4c0.2,0.2,0.7,0.4,0.9,0.5c-0.3,2.4-0.9,3.1-1.6,3.1
			c-2.3-0.2-3.4-3.1-4-7.4l-3.4,0.4l-0.1-1l3.4-0.4c-0.1-1.3-0.2-2.7-0.3-4.1h1c0,1.4,0.1,2.8,0.3,4l4.2-0.5l0.1,1L93.3,4164.8z
			 M96.5,4162.7c-0.4-0.6-1.4-1.6-2.3-2.3l0.8-0.5c0.8,0.7,1.8,1.6,2.3,2.2L96.5,4162.7z"/>
		<path d="M105.5,4171.8l-0.7-1c0.4,0,0.9-0.1,1.2-0.2c1.8-0.4,3.6-1.7,3.6-4.2c0-2.1-1.4-3.9-3.7-4.1c-0.2,1.3-0.4,2.7-0.8,4
			c-0.9,2.9-2,4.4-3.3,4.4c-1.2,0-2.5-1.4-2.5-3.7c0-3,2.7-5.7,6.1-5.7c3.3,0,5.4,2.3,5.4,5.2
			C110.7,4169.4,108.8,4171.3,105.5,4171.8z M101.8,4169.4c0.7,0,1.4-0.9,2.1-3.3c0.4-1.2,0.6-2.5,0.8-3.8c-2.7,0.3-4.3,2.6-4.3,4.5
			C100.4,4168.6,101.2,4169.4,101.8,4169.4z"/>
		<path d="M120.7,4161.5c0,0.3,0,0.8,0,1.4h2.2c0.4,0,0.9-0.1,1.2-0.1v1.2c-0.3,0-0.8,0-1.1,0h-2.2c0,2.1,0.1,4.9,0.1,6.6
			c0,0.7-0.4,1.1-1.3,1.1c-0.7,0-1.6,0-2.2-0.1l-0.1-1.1c0.7,0.1,1.5,0.2,2,0.2c0.4,0,0.5-0.2,0.5-0.6c0-1.1,0-3.2,0-5.1
			c-1.2,1.7-3.6,3.9-6.1,5.3l-0.8-0.9c2.8-1.4,5.3-3.7,6.4-5.4h-4.6c-0.5,0-0.9,0-1.3,0v-1.2c0.4,0,0.9,0.1,1.3,0.1h5.1
			c0-0.6,0-1,0-1.4c0-0.5-0.1-0.9-0.1-1.2h1.3C120.7,4160.8,120.7,4161.2,120.7,4161.5z"/>
		<path d="M128,4161.8v4.7c0,0.4,0,0.8,0.1,1.1h-1.3c0-0.2,0.1-0.7,0.1-1.1v-4.7c0-0.3,0-0.7-0.1-1h1.3
			C128,4161.1,128,4161.5,128,4161.8z M134.5,4161.9v2.3c0,3.4-0.5,4.5-1.5,5.7c-0.9,1.1-2.3,1.7-3.3,2l-0.9-1
			c1.3-0.3,2.5-0.9,3.3-1.9c1-1.2,1.2-2.3,1.2-4.9v-2.2c0-0.5,0-0.9-0.1-1.2h1.3C134.5,4161.1,134.5,4161.4,134.5,4161.9z"/>
		<path d="M139.3,4161.8h6.9c0.3,0,0.8,0,1,0c0,0.3,0,0.8,0,1.1v7.2c0,0.5,0,1.1,0.1,1.4H146c0-0.2,0-0.4,0-0.8h-6.8
			c-0.6,0-1.2,0-1.6,0.1v-1.3c0.4,0,1,0.1,1.6,0.1h6.9v-6.6h-6.7c-0.5,0-1.2,0-1.5,0v-1.2C138.3,4161.8,138.9,4161.8,139.3,4161.8z"
			/>
		<path d="M150.7,4162l0-1.4h1.3l0,1.4l-0.3,2.6H151L150.7,4162z M153.5,4162l0-1.4h1.4l0,1.4l-0.3,2.6h-0.8L153.5,4162z"/>
		<path d="M159.4,4161.7c-0.3,1.3-0.7,3.8-0.7,5.4c0,0.7,0,1.3,0.1,2c0.2-0.6,0.6-1.5,0.8-2l0.6,0.4c-0.4,1-0.9,2.5-1,3.1
			c0,0.2-0.1,0.5-0.1,0.6c0,0.2,0,0.3,0,0.5l-1,0.1c-0.3-1-0.5-2.6-0.5-4.5c0-2.1,0.5-4.5,0.6-5.6c0.1-0.3,0.1-0.7,0.1-1l1.2,0.1
			C159.6,4161,159.4,4161.5,159.4,4161.7z M162.6,4168.9c0,0.6,0.5,1.3,2.4,1.3c1.3,0,2.3-0.1,3.5-0.4l0,1.2
			c-0.9,0.2-2.1,0.3-3.5,0.3c-2.4,0-3.4-0.8-3.4-2.1c0-0.5,0.1-1,0.2-1.7l1,0.1C162.7,4168.1,162.6,4168.5,162.6,4168.9z
			 M168.1,4161.9v1.1c-1.5,0.2-4.2,0.2-5.8,0v-1.1C163.8,4162.1,166.7,4162.1,168.1,4161.9z"/>
		<path d="M182.2,4171c0,0.7-0.2,1-0.6,1.2c-0.5,0.2-1.4,0.2-2.6,0.2c-0.1-0.3-0.2-0.8-0.4-1.1c1,0,2,0,2.3,0c0.3,0,0.3-0.1,0.3-0.4
			v-8H172v9.4h-1V4162h3.8c0.4-0.8,0.7-1.7,0.9-2.4l1.3,0.2c-0.3,0.7-0.7,1.5-1,2.2h6.2V4171z M174.8,4169.5v1h-1v-5.6h5.4v4.6
			H174.8z M174.8,4165.8v2.7h3.5v-2.7H174.8z"/>
		<path d="M186.8,4161.5c-0.4,2-0.9,5.1-0.4,7.4c0.2-0.6,0.5-1.4,0.8-2.1l0.6,0.4c-0.3,1-0.8,2.4-0.9,3.1c-0.1,0.2-0.1,0.5-0.1,0.6
			c0,0.1,0,0.3,0,0.5l-1,0.1c-0.3-0.9-0.7-2.7-0.7-4.4c0-2.3,0.4-4.4,0.5-5.6c0.1-0.3,0.1-0.7,0.1-0.9l1.3,0.1
			C187,4160.9,186.9,4161.3,186.8,4161.5z M194.1,4161.2c0,0.3,0,1.2,0,2.1c0.8-0.1,1.6-0.2,2.3-0.3v1.1c-0.6,0.1-1.4,0.2-2.3,0.2
			c0,0.2,0,0.4,0,0.5c0,3.2,0,5.5-3,7.3l-1-0.8c0.4-0.2,1-0.5,1.4-0.9c1.5-1.3,1.6-2.9,1.6-5.6c0-0.1,0-0.3,0-0.4
			c-0.6,0-1.2,0-1.8,0c-0.7,0-1.7,0-2.3-0.1v-1.1c0.6,0.1,1.5,0.2,2.3,0.2c0.6,0,1.2,0,1.8,0c0-0.9-0.1-1.8-0.1-2.2
			c0-0.3-0.1-0.6-0.1-0.8h1.3C194.1,4160.6,194.1,4160.9,194.1,4161.2z"/>
		<path d="M202.8,4161.4c-0.1,0.3-0.1,0.7-0.2,1c0.9-0.1,1.8-0.3,2.7-0.5v1.1c-0.9,0.2-1.9,0.4-2.9,0.5c-0.1,0.6-0.3,1.3-0.4,1.9
			c-0.5,2-1.5,4.9-2.2,6.4l-1.2-0.4c0.8-1.4,1.8-4.3,2.4-6.3c0.1-0.5,0.3-1,0.4-1.5c-0.5,0-0.9,0-1.3,0c-0.6,0-1.1,0-1.6-0.1l0-1.1
			c0.7,0.1,1.2,0.1,1.7,0.1c0.5,0,1,0,1.5-0.1c0.1-0.5,0.2-0.9,0.2-1.2c0.1-0.4,0.1-0.9,0-1.2l1.3,0.1
			C203,4160.6,202.8,4161.2,202.8,4161.4z M204.5,4169.2c0,0.7,0.4,1.3,2.4,1.3c0.9,0,1.9-0.1,2.7-0.3l0,1.1
			c-0.8,0.1-1.7,0.2-2.7,0.2c-2.2,0-3.4-0.7-3.4-2.1c0-0.5,0.1-1.1,0.2-1.7l1.1,0.1C204.5,4168.4,204.5,4168.9,204.5,4169.2z
			 M206.9,4164.5c0.8,0,1.7,0,2.4,0.1l0,1.1c-0.7-0.1-1.5-0.2-2.4-0.2c-0.9,0-1.7,0-2.6,0.1v-1
			C205.1,4164.5,206,4164.5,206.9,4164.5z"/>
		<path d="M215.4,4166.2c0,0,0,0.3,0,0.5c-0.2,3.5-0.3,4.8-0.7,5.3c-0.2,0.3-0.5,0.4-0.9,0.4c-0.4,0-1,0-1.7,0c0-0.3-0.1-0.7-0.3-1
			c0.7,0.1,1.4,0.1,1.6,0.1c0.2,0,0.4,0,0.5-0.2c0.3-0.3,0.4-1.4,0.6-4.2h-2.1c0,0.2-0.1,0.4-0.1,0.6l-0.9-0.2
			c0.2-1.1,0.4-2.9,0.4-4.2h2.7v-2.1h-2.9v-0.9h3.9v4h-2.8c0,0.6-0.1,1.2-0.2,1.8H215.4z M223.3,4172.5c-0.1-0.3-0.3-0.6-0.5-1
			c-2.6,0.2-5.3,0.4-7.1,0.6l-0.1-1c1-0.1,2.3-0.1,3.7-0.2v-2.3h-3v-3.8h3v-1.5c-1.2,0.1-2.4,0.2-3.3,0.2l-0.1-1l1.2-0.1
			c0.5-0.9,1.1-2.1,1.5-3l1.1,0.3c-0.4,0.9-1,1.8-1.5,2.6c1.2-0.1,2.5-0.1,3.9-0.2c-0.3-0.4-0.7-0.8-1-1.2l0.9-0.4
			c0.9,0.8,1.8,2,2.3,2.8l-0.9,0.5c-0.1-0.3-0.3-0.5-0.5-0.9c-0.8,0.1-1.6,0.1-2.4,0.2v1.5h3.1v3.8h-3.1v2.2l2-0.2
			c-0.3-0.5-0.7-0.9-1-1.3l0.8-0.4c0.8,1,1.8,2.3,2.1,3.2L223.3,4172.5z M219.3,4167.7v-2h-2.1v2H219.3z M220.3,4165.7v2h2.1v-2
			H220.3z"/>
		<path d="M237.3,4160.3v12.2h-1.1v-0.7h-9.4v0.7h-1v-12.2H237.3z M236.2,4170.8v-9.6h-9.4v9.6H236.2z M232.1,4164.3v1.6h2.5v3.7
			h-5.9v-3.7h2.4v-1.6h-3.3v-0.9h3.3v-1.6h1v1.6h3.4v0.9H232.1z M233.6,4166.7h-4v2h4V4166.7z"/>
		<path d="M244.4,4162.4c0.7-0.1,1.5-0.3,2.2-0.5l0,1c-0.7,0.2-1.6,0.4-2.5,0.5c-0.7,2-1.9,4.4-3.1,5.9l-1.1-0.6
			c1.2-1.4,2.4-3.6,3-5.2c-0.4,0-0.8,0-1.2,0c-0.5,0-1.1,0-1.6,0l-0.1-1.1c0.5,0.1,1.1,0.1,1.7,0.1c0.5,0,1,0,1.6-0.1
			c0.2-0.8,0.4-1.7,0.4-2.4l1.2,0.1C244.8,4160.7,244.6,4161.6,244.4,4162.4z M248.2,4166.1c0,0.5,0.1,1.4,0.1,2.3
			c1.2,0.4,2.2,1.1,2.9,1.7l-0.6,1c-0.6-0.5-1.4-1.2-2.3-1.6c0,0.2,0,0.4,0,0.6c0,1.1-0.7,2-2.5,2c-1.5,0-2.8-0.6-2.8-2
			c0-1.3,1.2-2.1,2.8-2.1c0.5,0,0.9,0,1.4,0.1c-0.1-1.1-0.1-2.5-0.2-3.5h1.1C248.2,4165.1,248.2,4165.5,248.2,4166.1z M245.8,4171
			c1.2,0,1.6-0.6,1.6-1.4c0-0.2,0-0.4,0-0.6c-0.4-0.1-0.9-0.2-1.4-0.2c-1,0-1.7,0.5-1.7,1.1C244.1,4170.6,244.7,4171,245.8,4171z
			 M247.8,4163l0.6-0.9c1,0.4,2.6,1.4,3.3,1.9l-0.6,0.9C250.3,4164.3,248.7,4163.4,247.8,4163z"/>
		<path d="M256.7,4159.7h1v12.7h-1v-3.7c-1.3,0.4-2.6,0.7-3.6,1l-0.3-1c0.3-0.1,0.7-0.2,1-0.3v-7.1h1v6.9c0.6-0.2,1.2-0.3,1.9-0.5
			V4159.7z M265.3,4160.9c-0.5,3.2-1.4,5.7-2.7,7.7c0.9,1.3,2,2.3,3.3,2.9c-0.2,0.2-0.6,0.6-0.8,0.9c-1.3-0.7-2.4-1.7-3.2-2.9
			c-1,1.2-2.1,2.2-3.3,2.9c-0.2-0.3-0.4-0.7-0.7-0.9c1.2-0.6,2.4-1.7,3.4-3c-1.1-1.8-1.8-4.1-2.3-6.6l1-0.2c0.4,2.2,1.1,4.1,2,5.8
			c1-1.6,1.8-3.6,2.2-5.9h-5.8v-1h6.1l0.2-0.1L265.3,4160.9z"/>
		<path d="M275.6,4163.5c1,1.6,2.6,3.2,4.2,3.9c-0.2,0.2-0.6,0.6-0.7,0.8c-0.5-0.3-0.9-0.6-1.4-0.9v3.7h1.9v0.9H267v-0.9h1.9v-3.7
			c-0.4,0.4-0.9,0.7-1.4,1c-0.2-0.2-0.6-0.6-0.8-0.8c1.7-0.9,3.2-2.4,4.1-4.1h-3.5v-0.9h3.5c-0.3-0.7-0.9-1.7-1.5-2.5l0.9-0.4
			c0.6,0.8,1.3,1.8,1.6,2.5l-0.6,0.3h4.3l-0.7-0.3c0.6-0.7,1.3-1.9,1.7-2.7l1.1,0.3c-0.6,0.9-1.3,1.9-1.8,2.6h3.6v0.9H275.6z
			 M277.5,4167.1c-1.2-1-2.2-2.3-3-3.6h-2.5c-0.7,1.4-1.7,2.6-2.8,3.6H277.5z M271.5,4168h-1.7v3.1h1.7V4168z M274.2,4168h-1.7v3.1
			h1.7V4168z M276.8,4171v-3.1h-1.7v3.1H276.8z"/>
		<path d="M284.8,4160c-0.3,1-0.8,2-1.2,3v9.5h-1v-7.7c-0.4,0.6-0.8,1.1-1.2,1.6c-0.1-0.2-0.4-0.8-0.6-1c1.2-1.4,2.4-3.4,3.1-5.6
			L284.8,4160z M290.1,4163.4c0.8,2.3,2.3,4.7,3.8,5.9c-0.3,0.2-0.6,0.5-0.8,0.8c-1.5-1.3-2.8-3.7-3.7-6.1v4.9h2.3v1h-2.3v2.5h-1
			v-2.5h-2.3v-1h2.3v-4.8c-0.9,2.4-2.2,4.7-3.7,6.1c-0.2-0.2-0.5-0.6-0.8-0.8c1.5-1.2,3-3.6,3.8-6h-3.3v-1h3.9v-2.8h1v2.8h4.2v1
			H290.1z"/>
		<path d="M297,4162.4c-0.1,0.8-0.5,1.8-1.3,2.5c-0.2-0.2-0.5-0.5-0.7-0.7c1-0.9,1.2-2,1.2-2.9v-1.4l0.8,0.2
			c1.2-0.2,2.5-0.3,3.2-0.6l0.7,0.6c-1,0.3-2.5,0.5-3.8,0.6v0.5v0.2h4.2v0.8h-1.7v1.8h-0.9v-1.8H297z M300.2,4170.8
			c-1.1,0.7-2.9,1.3-4.3,1.7c-0.2-0.2-0.5-0.6-0.8-0.8c1.4-0.3,3.1-0.8,4.1-1.3L300.2,4170.8z M296.8,4164.5h9.1v5.7h-9.1V4164.5z
			 M297.8,4166.1h7.1v-1h-7.1V4166.1z M297.8,4167.8h7.1v-1h-7.1V4167.8z M297.8,4169.5h7.1v-1h-7.1V4169.5z M307.5,4161.6v0.8h-2.1
			v1.8h-0.9v-1.8h-1.9c-0.2,0.7-0.6,1.4-1.5,1.9c-0.1-0.2-0.4-0.5-0.6-0.7c1.1-0.7,1.3-1.6,1.3-2.4v-1.2l0.8,0.2
			c1.3-0.1,2.7-0.3,3.5-0.6l0.7,0.7c-1.1,0.3-2.7,0.5-4.1,0.6v0.4c0,0.1,0,0.2,0,0.3H307.5z M303.3,4170.4c1.5,0.5,3.2,1.1,4.2,1.6
			l-1.1,0.5c-0.9-0.4-2.4-1-3.9-1.5L303.3,4170.4z"/>
		<path d="M315.6,4171.8l-0.7-1c0.4,0,0.9-0.1,1.2-0.2c1.8-0.4,3.6-1.7,3.6-4.2c0-2.1-1.4-3.9-3.7-4.1c-0.2,1.3-0.4,2.7-0.8,4
			c-0.9,2.9-2,4.4-3.3,4.4c-1.2,0-2.5-1.4-2.5-3.7c0-3,2.7-5.7,6.1-5.7c3.3,0,5.4,2.3,5.4,5.2
			C320.8,4169.4,318.9,4171.3,315.6,4171.8z M311.9,4169.4c0.7,0,1.4-0.9,2.1-3.3c0.4-1.2,0.6-2.5,0.8-3.8c-2.7,0.3-4.3,2.6-4.3,4.5
			C310.4,4168.6,311.2,4169.4,311.9,4169.4z"/>
	</g>
	<g class="st4">
		<path d="M83.7,4191.4H82v2.1c0,0.6-0.2,0.9-0.6,1.1c-0.5,0.2-1.2,0.2-2.4,0.2c-0.1-0.3-0.2-0.7-0.4-1c0.9,0,1.8,0,2.1,0
			c0.3,0,0.3-0.1,0.3-0.3v-2.1h-7.4v3.4h-1v-3.4h-1.7v-1h1.7v-5.3h4.2v-1.3h-5.3v-1h11.8v1h-5.4v1.3H82v5.3h1.7V4191.4z
			 M73.5,4186.1v1.7h3.2v-1.7H73.5z M73.5,4190.5h3.2v-1.7h-3.2V4190.5z M77.7,4186.1v1.7H81v-1.7H77.7z M81,4190.5v-1.7h-3.2v1.7
			H81z"/>
		<path d="M89,4190.2c-0.2-0.4-0.7-1.3-1.1-2v6.6h-1v-6.5c-0.5,1.5-1.1,3-1.7,3.9c-0.1-0.3-0.4-0.7-0.5-0.9c0.9-1.2,1.7-3.3,2.1-5.3
			H85v-1h2v-3h1v3h1.6v1h-1.6v1c0.4,0.5,1.4,2.1,1.7,2.5L89,4190.2z M97.8,4192.5h-0.9v1.2c0,0.5-0.1,0.8-0.5,0.9
			c-0.4,0.1-1,0.1-1.9,0.1c0-0.2-0.2-0.6-0.3-0.8c0.7,0,1.3,0,1.5,0c0.2,0,0.2-0.1,0.2-0.2v-1.2h-4.8v2.2h-1v-2.2h-1v-0.8h1v-3.5H93
			v-0.8h-3.5v-0.8h1.9v-0.9h-1.3v-0.8h1.3v-0.9h-1.6v-0.8h1.6v-1.1h1v1.1h2.3v-1.1h1v1.1h1.7v0.8h-1.7v0.9h1.5v0.8h-1.5v0.9h2v0.8
			H94v0.8h2.9v3.5h0.9V4192.5z M91.2,4189v1H93v-1H91.2z M91.2,4191.7H93v-1h-1.8V4191.7z M92.4,4184.9h2.3v-0.9h-2.3V4184.9z
			 M92.4,4186.6h2.3v-0.9h-2.3V4186.6z M94,4189v1h2v-1H94z M95.9,4191.7v-1h-2v1H95.9z"/>
		<path d="M106.6,4191.4c1.3,1,3.4,1.8,5.2,2.1c-0.2,0.2-0.5,0.6-0.7,0.9c-1.9-0.5-4-1.4-5.3-2.6v3h-1v-3c-1.4,1.2-3.5,2.2-5.3,2.7
			c-0.1-0.3-0.4-0.6-0.7-0.8c1.8-0.4,3.8-1.2,5.1-2.2h-4.8v-0.9h5.7v-1c-0.3,0.3-0.8,0.5-1.3,0.7c-0.1-0.2-0.5-0.6-0.7-0.7
			c1.9-0.7,2.2-1.6,2.2-2.5v-1.4h4.9v2.8c0,0.3,0,0.4,0.1,0.5c0,0,0.1,0,0.2,0h0.4c0.1,0,0.2,0,0.3,0c0.1,0,0.1-0.1,0.2-0.3
			c0-0.2,0-0.6,0.1-1.1c0.2,0.2,0.5,0.3,0.7,0.4c0,0.5-0.1,1.1-0.1,1.3c-0.1,0.2-0.2,0.4-0.4,0.4c-0.1,0.1-0.4,0.1-0.6,0.1h-0.6
			c-0.3,0-0.6-0.1-0.8-0.2c-0.2-0.2-0.3-0.4-0.3-1.1v-2h-3v0.7c0,0.8-0.2,1.7-1.1,2.4h1v1.1h5.7v0.9H106.6z M100.9,4183.9
			c-0.4,0.5-0.8,1.1-1.2,1.4c-0.2-0.2-0.6-0.4-0.8-0.6c0.8-0.7,1.6-1.8,2-2.9l1,0.3c-0.1,0.3-0.3,0.6-0.4,0.9h3.7v0.8
			c0.5-0.6,1-1.3,1.2-2l1,0.2c-0.1,0.3-0.3,0.6-0.4,0.9h4.7v0.9h-3.1c0.3,0.4,0.6,0.8,0.7,1.1l-0.9,0.3c-0.2-0.4-0.5-0.9-0.9-1.4
			h-1.1c-0.4,0.5-0.8,1-1.3,1.4c-0.2-0.2-0.7-0.4-0.9-0.5c0.3-0.3,0.6-0.5,0.9-0.9h-2.6c0.2,0.4,0.4,0.8,0.5,1.1l-0.9,0.3
			c-0.1-0.4-0.4-0.9-0.6-1.4H100.9z M99,4188.7c0.6-0.1,1.4-0.2,2.2-0.3v-1.9h-2v-0.8h4.9v0.8h-2v1.7c0.6-0.1,1.3-0.2,2-0.3l0,0.8
			c-1.8,0.3-3.7,0.6-5.1,0.8L99,4188.7z M106.7,4187c0.7,0.4,1.5,1,1.9,1.4l-0.6,0.6c-0.4-0.4-1.2-1.1-1.9-1.5L106.7,4187z"/>
		<path d="M118,4187c1.3-0.8,2.8-1.5,3.6-2c0.4-0.2,0.7-0.4,1-0.7l0.6,1c-0.3,0.2-0.7,0.4-1.1,0.6c-1,0.5-2.9,1.4-4.3,2.3
			c-1.3,0.8-2.1,1.8-2.1,2.8c0,1.2,1.1,1.9,3.3,1.9c1.5,0,3.4-0.2,4.5-0.5v1.2c-1.1,0.2-2.7,0.4-4.4,0.4c-2.6,0-4.5-0.8-4.5-2.9
			c0-1.4,0.9-2.6,2.4-3.6c-0.6-1.1-1.4-2.8-2-4.3l1.1-0.5C116.7,4184.4,117.4,4185.9,118,4187z"/>
		<path d="M130.7,4192.8c-0.3-0.4-1-1-1.6-1.6v3.6h-1v-3.7c-0.7,1.1-1.6,2.1-2.3,2.7c-0.2-0.2-0.5-0.6-0.7-0.8
			c1-0.7,2.1-1.9,2.8-3.2h-2.5v-0.9h2.7v-1.5h-2.8v-0.9h6.5v0.9h-2.7v1.5h2.6v0.9h-2.6v0.3c0.5,0.4,1.9,1.5,2.2,1.8L130.7,4192.8z
			 M131.6,4184.4h-6.1v-0.9h2.6v-1.4h1v1.4h2.5V4184.4z M126.9,4186.6c-0.1-0.5-0.3-1.4-0.5-2l0.8-0.2c0.3,0.6,0.5,1.5,0.6,2
			L126.9,4186.6z M129.2,4186.4c0.3-0.6,0.6-1.4,0.7-2l1,0.2c-0.3,0.7-0.5,1.5-0.8,2L129.2,4186.4z M138,4187.7h-1.6v7h-1v-7h-2.1
			v0.3c0,2.1-0.3,4.9-2.2,6.8c-0.1-0.2-0.5-0.6-0.7-0.7c1.8-1.7,2-4.2,2-6.1v-4.9l0.8,0.2c1.4-0.3,3-0.8,3.9-1.2l0.8,0.8
			c-1.2,0.5-2.9,1-4.5,1.3v2.5h4.7V4187.7z"/>
		<path d="M144.2,4183.8c-0.1,0.3-0.1,0.7-0.2,1c0.9-0.1,1.8-0.3,2.7-0.5v1.1c-0.9,0.2-1.9,0.4-2.9,0.5c-0.1,0.6-0.3,1.3-0.4,1.9
			c-0.5,2-1.5,4.9-2.2,6.4l-1.2-0.4c0.8-1.4,1.8-4.3,2.4-6.3c0.1-0.5,0.3-1,0.4-1.5c-0.5,0-0.9,0-1.3,0c-0.6,0-1.1,0-1.6-0.1l0-1.1
			c0.7,0.1,1.2,0.1,1.7,0.1c0.5,0,1,0,1.5-0.1c0.1-0.5,0.2-0.9,0.2-1.2c0.1-0.4,0.1-0.9,0-1.2l1.3,0.1
			C144.3,4183,144.2,4183.6,144.2,4183.8z M145.8,4191.6c0,0.7,0.4,1.3,2.4,1.3c0.9,0,1.9-0.1,2.7-0.3l0,1.1
			c-0.8,0.1-1.7,0.2-2.7,0.2c-2.2,0-3.4-0.7-3.4-2.1c0-0.5,0.1-1.1,0.2-1.7l1.1,0.1C145.9,4190.8,145.8,4191.3,145.8,4191.6z
			 M148.3,4186.9c0.8,0,1.7,0,2.4,0.1l0,1.1c-0.7-0.1-1.5-0.2-2.4-0.2c-0.9,0-1.7,0-2.6,0.1v-1
			C146.5,4186.9,147.4,4186.9,148.3,4186.9z"/>
		<path d="M157.7,4184.8c0.7-0.1,1.5-0.3,2.2-0.5l0,1c-0.7,0.2-1.6,0.4-2.5,0.5c-0.7,2-1.9,4.4-3.1,5.9l-1.1-0.6
			c1.2-1.4,2.4-3.6,3-5.2c-0.4,0-0.8,0-1.2,0c-0.5,0-1.1,0-1.6,0l-0.1-1.1c0.5,0.1,1.1,0.1,1.7,0.1c0.5,0,1,0,1.6-0.1
			c0.2-0.8,0.4-1.7,0.4-2.4l1.2,0.1C158.2,4183.1,158,4184,157.7,4184.8z M161.6,4188.5c0,0.5,0.1,1.4,0.1,2.3
			c1.2,0.4,2.2,1.1,2.9,1.7l-0.6,1c-0.6-0.5-1.4-1.2-2.3-1.6c0,0.2,0,0.4,0,0.6c0,1.1-0.7,2-2.5,2c-1.5,0-2.8-0.6-2.8-2
			c0-1.3,1.2-2.1,2.8-2.1c0.5,0,0.9,0,1.4,0.1c-0.1-1.1-0.1-2.5-0.2-3.5h1.1C161.6,4187.5,161.6,4188,161.6,4188.5z M159.1,4193.4
			c1.2,0,1.6-0.6,1.6-1.4c0-0.2,0-0.4,0-0.6c-0.4-0.1-0.9-0.2-1.4-0.2c-1,0-1.7,0.5-1.7,1.1C157.5,4193,158.1,4193.4,159.1,4193.4z
			 M161.2,4185.4l0.6-0.9c1,0.4,2.6,1.4,3.3,1.9l-0.6,0.9C163.6,4186.7,162.1,4185.8,161.2,4185.4z"/>
		<path d="M169.2,4184.4v3.2c1.7-0.4,3.9-1.1,5.3-1.7c0.4-0.2,0.8-0.4,1.2-0.6l0.5,1.1c-0.4,0.2-0.9,0.4-1.3,0.5
			c-1.6,0.6-4,1.4-5.7,1.8v3.1c0,0.7,0.3,0.9,1,1c0.4,0.1,1.2,0.1,1.8,0.1c1.5,0,3.6-0.1,4.8-0.4v1.3c-1.2,0.2-3.3,0.3-4.8,0.3
			c-0.8,0-1.7,0-2.2-0.1c-1.1-0.2-1.7-0.7-1.7-1.8v-7.7c0-0.3,0-0.8-0.1-1.1h1.3C169.2,4183.6,169.2,4184,169.2,4184.4z
			 M176.7,4184.7l-0.8,0.3c-0.3-0.6-0.8-1.4-1.1-1.9l0.7-0.3C175.9,4183.3,176.4,4184.1,176.7,4184.7z M178.2,4184.1l-0.8,0.3
			c-0.3-0.6-0.8-1.4-1.2-1.9l0.7-0.3C177.4,4182.7,178,4183.6,178.2,4184.1z"/>
		<path d="M183.6,4188.1l-0.6,1c-0.7-0.5-2.2-1.5-3.1-1.9l0.6-1C181.3,4186.7,183,4187.7,183.6,4188.1z M185.2,4191.5
			c2.3-1.3,4.2-3.2,5.3-5.1l0.7,1.2c-1.2,1.9-3.2,3.7-5.4,5c-1.4,0.8-3.3,1.5-4.6,1.7l-0.6-1.1
			C182,4192.8,183.8,4192.3,185.2,4191.5z M185.6,4185.1l-0.7,1c-0.7-0.5-2.2-1.5-3-2l0.6-0.9C183.4,4183.5,185,4184.6,185.6,4185.1
			z M189.9,4185.5l-0.8,0.4c-0.4-0.7-0.8-1.6-1.3-2.2l0.8-0.3C188.9,4183.8,189.6,4184.8,189.9,4185.5z M191.8,4184.8l-0.8,0.4
			c-0.4-0.7-0.9-1.5-1.3-2.2l0.8-0.3C190.8,4183.1,191.4,4184.1,191.8,4184.8z"/>
		<path d="M199.6,4183.7v0.9h2.3c0.3,0,0.6,0,0.9-0.1l0.7,0.7c-0.3,0.3-0.6,0.6-0.8,0.8c-0.7,0.8-1.9,2-3.2,2.9c0,1.1,0,2.8,0,3.8
			c0,0.5,0,1.1,0.1,1.5h-1.3c0-0.4,0.1-1,0.1-1.5c0-0.8,0-2.1,0-3.1c-1.3,0.8-2.8,1.4-4.7,1.9l-0.7-1c2.6-0.6,4.4-1.6,5.7-2.4
			c1.2-0.8,2.4-1.9,2.8-2.6h-5.8c-0.5,0-1.3,0-1.7,0.1v-1.2c0.4,0.1,1.2,0.1,1.7,0.1h2.7v-0.9c0-0.4,0-0.9-0.1-1.2h1.3
			C199.6,4182.8,199.6,4183.4,199.6,4183.7z M200.8,4189.7l0.7-0.8c1.3,0.7,2.1,1.1,3.4,2l-0.7,1
			C203,4191,202.1,4190.4,200.8,4189.7z"/>
		<path d="M215.8,4185c-0.5,1.2-1.4,2.8-2.4,4.1c1.5,1.3,3.2,3.1,4.1,4.2l-1,0.8c-0.9-1.2-2.4-2.9-3.9-4.2c-1.5,1.6-3.4,3.2-5.5,4.1
			l-0.9-0.9c2.3-0.9,4.3-2.5,5.8-4.2c1-1.1,2-2.7,2.3-3.9H209c-0.5,0-1.3,0.1-1.4,0.1v-1.3c0.2,0,1,0.1,1.4,0.1h5.4
			c0.5,0,0.8,0,1.1-0.1l0.7,0.5C216.1,4184.5,215.9,4184.8,215.8,4185z"/>
		<path d="M221.5,4183.8h6.7c0.4,0,0.8,0,1.1-0.1v1.1c-0.3,0-0.7,0-1.1,0h-3.6v3h4.7c0.3,0,0.9,0,1.2-0.1v1.1c-0.3,0-0.8,0-1.1,0
			h-4.7v2.8c0,0.7,0.5,1.1,1.8,1.1c1.3,0,2.5-0.1,3.7-0.2l-0.1,1.2c-1.1,0.1-2.4,0.1-3.8,0.1c-2.1,0-2.8-0.7-2.8-1.9v-3.2h-2.7
			c-0.4,0-0.9,0-1.3,0.1v-1.2c0.4,0,1,0.1,1.3,0.1h2.7v-3h-1.9c-0.5,0-0.9,0-1.3,0v-1.1C220.6,4183.8,221,4183.8,221.5,4183.8z"/>
		<path d="M233.5,4187.1h9.2c0.3,0,0.8,0,1.1-0.1v1.2c-0.3,0-0.8,0-1.1,0h-3.8c0,1.5-0.3,2.8-0.8,3.8c-0.5,0.9-1.6,1.9-2.8,2.5
			l-1-0.8c1.1-0.4,2.1-1.3,2.6-2.1c0.6-1,0.8-2.1,0.8-3.5h-4.2c-0.4,0-0.8,0-1.2,0v-1.2C232.7,4187.1,233.1,4187.1,233.5,4187.1z
			 M235.2,4183.6h4.8c0.4,0,0.9,0,1.3-0.1v1.2c-0.4,0-0.9,0-1.3,0h-4.8c-0.5,0-0.9,0-1.3,0v-1.2
			C234.4,4183.5,234.8,4183.6,235.2,4183.6z M243.2,4184.3l-0.8,0.3c-0.3-0.6-0.8-1.4-1.1-1.9l0.7-0.3
			C242.4,4182.9,243,4183.7,243.2,4184.3z M244.8,4183.7l-0.8,0.3c-0.3-0.6-0.8-1.4-1.2-1.9l0.7-0.3
			C244,4182.3,244.5,4183.2,244.8,4183.7z"/>
		<path d="M247.3,4189.9c0.4-1.3,0.4-4.1,0.4-5.6c0-0.4,0-0.7-0.1-1h1.3c0,0.2-0.1,0.6-0.1,1c0,1.6-0.1,4.6-0.4,6
			c-0.4,1.5-1.3,2.9-2.5,3.9l-1-0.7C246.1,4192.5,246.9,4191.3,247.3,4189.9z M251.4,4192.7v-8.4c0-0.5-0.1-0.9-0.1-1h1.3
			c0,0.1-0.1,0.5-0.1,1v8.1c1.3-0.6,3-1.9,4.1-3.4l0.7,1c-1.2,1.6-3.2,3.1-4.8,3.9c-0.2,0.1-0.4,0.2-0.5,0.3l-0.7-0.6
			C251.4,4193.2,251.4,4192.9,251.4,4192.7z"/>
		<path d="M265,4194.2l-0.7-1c0.4,0,0.9-0.1,1.2-0.2c1.8-0.4,3.6-1.7,3.6-4.2c0-2.1-1.4-3.9-3.7-4.1c-0.2,1.3-0.4,2.7-0.8,4
			c-0.9,2.9-2,4.4-3.3,4.4c-1.2,0-2.5-1.4-2.5-3.7c0-3,2.7-5.7,6.1-5.7c3.3,0,5.4,2.3,5.4,5.2C270.2,4191.8,268.3,4193.7,265,4194.2
			z M261.3,4191.8c0.7,0,1.4-0.9,2.1-3.3c0.4-1.2,0.6-2.5,0.8-3.8c-2.7,0.3-4.3,2.6-4.3,4.5C259.8,4191,260.7,4191.8,261.3,4191.8z"
			/>
		<path d="M276.4,4182.2c1,0.8,2.4,1.9,3.1,2.6l-0.7,0.8c-0.6-0.7-1.7-1.8-2.7-2.5c-0.4,0.5-0.9,1.1-1.4,1.6h3.2v0.8h-3.4v-0.6
			c-0.6,0.5-1.3,1.1-2,1.6c-0.1-0.2-0.4-0.6-0.7-0.7c1.7-1,3-2.5,3.7-3.6H276.4z M274.1,4190.1c0,0.3-0.1,0.6-0.1,0.9h5v3.7H278
			v-0.5h-3.2v0.6h-0.9v-3.6c-0.2,1.2-0.7,2.4-1.5,3.4c-0.1-0.2-0.5-0.5-0.7-0.6c1.3-1.6,1.5-3.8,1.5-5.4v-2.3h5.5v3.9H274.1z
			 M277.8,4189.3v-0.8h-3.7v0c0,0.3,0,0.5,0,0.8H277.8z M274.2,4187v0.8h3.7v-0.8H274.2z M274.8,4191.7v1.7h3.2v-1.7H274.8z
			 M280.9,4191.4h-1v-7.7h1V4191.4z M284,4182.3v11.1c0,0.7-0.2,1-0.6,1.2c-0.4,0.2-1.2,0.2-2.4,0.2c0-0.3-0.2-0.7-0.4-1
			c1,0,1.8,0,2,0c0.2,0,0.3-0.1,0.3-0.3v-11.2H284z"/>
		<path d="M297.7,4189v5.7h-1.1v-0.8h-8.7v0.9h-1v-5.8h1v3.9h3.7v-4.8h-4.2v-4.8h1v3.8h3.2v-5h1.1v5h3.4v-3.8h1.1v4.8h-4.4v4.8h3.9
			v-3.9H297.7z"/>
	</g>
	<g class="st4">
		<path d="M41.2,4128.5h3.1v16.8h-3.1V4128.5z"/>
		<path d="M61.2,4138v7.3h-3v-7c0-2.3-1.1-3.4-3-3.4c-2.1,0-3.6,1.3-3.6,3.9v6.5h-3v-12.8h2.9v1.7c1-1.2,2.5-1.8,4.4-1.8
			C58.9,4132.4,61.2,4134.1,61.2,4138z"/>
		<path d="M77.6,4138v7.3h-3v-7c0-2.3-1.1-3.4-3-3.4c-2.1,0-3.6,1.3-3.6,3.9v6.5h-3v-12.8h2.9v1.7c1-1.2,2.5-1.8,4.4-1.8
			C75.4,4132.4,77.6,4134.1,77.6,4138z"/>
		<path d="M80.5,4138.9c0-3.8,2.9-6.6,6.8-6.6c4,0,6.8,2.7,6.8,6.6c0,3.8-2.9,6.6-6.8,6.6C83.4,4145.5,80.5,4142.8,80.5,4138.9z
			 M91.2,4138.9c0-2.4-1.6-4-3.8-4c-2.2,0-3.8,1.6-3.8,4s1.6,4,3.8,4C89.5,4142.9,91.2,4141.4,91.2,4138.9z"/>
		<path d="M108.7,4132.5l-5.5,12.8h-3.1l-5.5-12.8h3.1l4,9.5l4.1-9.5H108.7z"/>
		<path d="M120.9,4137.8v7.5h-2.8v-1.6c-0.7,1.1-2.1,1.7-4,1.7c-2.9,0-4.8-1.6-4.8-3.8c0-2.1,1.4-3.8,5.3-3.8h3.3v-0.2
			c0-1.8-1.1-2.8-3.2-2.8c-1.4,0-2.9,0.5-3.9,1.3l-1.2-2.2c1.4-1.1,3.4-1.6,5.4-1.6C118.8,4132.4,120.9,4134.1,120.9,4137.8z
			 M117.9,4141.3v-1.5h-3.1c-2,0-2.6,0.8-2.6,1.7c0,1.1,0.9,1.8,2.4,1.8C116.1,4143.3,117.4,4142.6,117.9,4141.3z"/>
		<path d="M132.4,4144.6c-0.7,0.6-1.8,0.9-2.9,0.9c-2.8,0-4.4-1.5-4.4-4.3v-6.2H123v-2.4h2.1v-2.9h3v2.9h3.4v2.4h-3.4v6.1
			c0,1.2,0.6,1.9,1.8,1.9c0.6,0,1.2-0.2,1.7-0.5L132.4,4144.6z"/>
		<path d="M134.5,4128.6c0-1,0.8-1.8,1.9-1.8c1.1,0,1.9,0.7,1.9,1.7c0,1.1-0.8,1.9-1.9,1.9C135.3,4130.4,134.5,4129.6,134.5,4128.6z
			 M134.9,4132.5h3v12.8h-3V4132.5z"/>
		<path d="M140.8,4138.9c0-3.8,2.9-6.6,6.8-6.6c4,0,6.8,2.7,6.8,6.6c0,3.8-2.9,6.6-6.8,6.6C143.7,4145.5,140.8,4142.8,140.8,4138.9z
			 M151.4,4138.9c0-2.4-1.6-4-3.8-4c-2.2,0-3.8,1.6-3.8,4s1.6,4,3.8,4C149.8,4142.9,151.4,4141.4,151.4,4138.9z"/>
		<path d="M169.9,4138v7.3h-3v-7c0-2.3-1.1-3.4-3-3.4c-2.1,0-3.6,1.3-3.6,3.9v6.5h-3v-12.8h2.9v1.7c1-1.2,2.5-1.8,4.4-1.8
			C167.7,4132.4,169.9,4134.1,169.9,4138z"/>
	</g>
	<g class="st4">
		<path d="M181.6,4137.1v3h4.7v1.5h-4.7v3.8h-1.8v-9.8h7.2v1.5H181.6z"/>
		<path d="M187.7,4141.6c0-2.2,1.7-3.8,4-3.8c2.3,0,4,1.6,4,3.8s-1.7,3.8-4,3.8C189.3,4145.4,187.7,4143.8,187.7,4141.6z
			 M193.9,4141.6c0-1.4-1-2.3-2.2-2.3c-1.3,0-2.2,0.9-2.2,2.3s1,2.3,2.2,2.3C192.9,4143.9,193.9,4143,193.9,4141.6z"/>
		<path d="M201.6,4137.8v1.7c-0.2,0-0.3,0-0.4,0c-1.3,0-2.2,0.8-2.2,2.3v3.6h-1.8v-7.5h1.7v1.1
			C199.5,4138.2,200.4,4137.8,201.6,4137.8z"/>
	</g>
	<g class="st4">
		<path class="st5" d="M225.8,4128.5v16.8h-2.6L214,4134v11.4h-3.1v-16.8h2.6l9.3,11.4v-11.4H225.8z"/>
		<path class="st5" d="M242.1,4139.9H232c0.4,1.9,1.9,3.1,4.2,3.1c1.4,0,2.6-0.5,3.5-1.4l1.6,1.8c-1.2,1.4-3,2.1-5.2,2.1
			c-4.3,0-7.1-2.8-7.1-6.6s2.8-6.6,6.6-6.6c3.7,0,6.5,2.6,6.5,6.6C242.1,4139.2,242.1,4139.6,242.1,4139.9z M232,4137.9h7.3
			c-0.2-1.8-1.7-3.1-3.6-3.1C233.7,4134.8,232.3,4136,232,4137.9z"/>
		<path class="st5" d="M252.8,4145.3l-3.3-4.4l-3.3,4.4h-3.3l5-6.5l-4.8-6.3h3.3l3.1,4.2l3.1-4.2h3.2l-4.8,6.3l5,6.6H252.8z"/>
		<path class="st5" d="M266.1,4144.6c-0.7,0.6-1.8,0.9-2.9,0.9c-2.8,0-4.4-1.5-4.4-4.3v-6.2h-2.1v-2.4h2.1v-2.9h3v2.9h3.4v2.4h-3.4
			v6.1c0,1.2,0.6,1.9,1.8,1.9c0.6,0,1.2-0.2,1.7-0.5L266.1,4144.6z"/>
		<path class="st5" d="M274.3,4136.9c0-5,3.8-8.6,9-8.6c5.2,0,9,3.6,9,8.6c0,5-3.8,8.6-9,8.6
			C278.1,4145.6,274.3,4141.9,274.3,4136.9z M289.2,4136.9c0-3.4-2.5-5.9-5.9-5.9c-3.4,0-5.9,2.5-5.9,5.9c0,3.4,2.5,5.9,5.9,5.9
			C286.7,4142.8,289.2,4140.4,289.2,4136.9z"/>
		<path class="st5" d="M302.8,4132.4v2.9c-0.3,0-0.5-0.1-0.7-0.1c-2.3,0-3.7,1.3-3.7,4v6.2h-3v-12.8h2.9v1.9
			C299.1,4133,300.7,4132.4,302.8,4132.4z"/>
		<path class="st5" d="M304.9,4128.6c0-1,0.8-1.8,1.9-1.8c1.1,0,1.9,0.7,1.9,1.7c0,1.1-0.8,1.9-1.9,1.9
			C305.8,4130.4,304.9,4129.6,304.9,4128.6z M305.4,4132.5h3v12.8h-3V4132.5z"/>
		<path class="st5" d="M311.2,4138.9c0-3.8,2.9-6.6,6.9-6.6c2.5,0,4.5,1,5.5,3l-2.3,1.3c-0.8-1.2-1.9-1.8-3.2-1.8
			c-2.2,0-3.9,1.5-3.9,4c0,2.5,1.7,4,3.9,4c1.3,0,2.4-0.6,3.2-1.8l2.3,1.3c-1,1.9-3,3-5.5,3C314.1,4145.5,311.2,4142.8,311.2,4138.9
			z"/>
		<path class="st5" d="M325,4138.9c0-3.8,2.9-6.6,6.8-6.6c4,0,6.8,2.7,6.8,6.6c0,3.8-2.9,6.6-6.8,6.6
			C327.9,4145.5,325,4142.8,325,4138.9z M335.6,4138.9c0-2.4-1.6-4-3.8-4c-2.2,0-3.8,1.6-3.8,4s1.6,4,3.8,4
			C334,4142.9,335.6,4141.4,335.6,4138.9z"/>
	</g>
</g>
</svg>
