<svg xmlns="http://www.w3.org/2000/svg" width="47.5" height="40.929" viewBox="0 0 47.5 40.929"><g transform="translate(-0.25 -1.25)"><path d="M6.611,31.129H3.629A2.636,2.636,0,0,1,1,28.5V4.629A2.629,2.629,0,0,1,3.629,2H44.371A2.636,2.636,0,0,1,47,4.629V28.5a2.636,2.636,0,0,1-2.629,2.629H41.277" fill="none" stroke="#ff3c00" stroke-linecap="round" stroke-linejoin="round" stroke-width="1.5"/><g transform="translate(17.5 11.613)"><path d="M26.109,39.132V36.885a3.275,3.275,0,0,1,3.106-3.422H36a3.275,3.275,0,0,1,3.106,3.422v2.247" transform="translate(-26.109 -22.4)" fill="none" stroke="#ff3c00" stroke-linecap="round" stroke-linejoin="round" stroke-width="1.5"/><circle cx="4" cy="4" r="4" transform="translate(2.5)" fill="none" stroke="#ff3c00" stroke-linecap="round" stroke-linejoin="round" stroke-width="1.5"/></g><g transform="translate(10 29.26)"><rect width="28" height="5.296" rx="1" fill="none" stroke="#ff3c00" stroke-linecap="round" stroke-linejoin="round" stroke-width="1.5"/><line y2="6.659" transform="translate(1.667 5.51)" fill="none" stroke="#ff3c00" stroke-linecap="round" stroke-linejoin="round" stroke-width="1.5"/><line y2="6.659" transform="translate(26.667 5.51)" fill="none" stroke="#ff3c00" stroke-linecap="round" stroke-linejoin="round" stroke-width="1.5"/></g><path d="M20.275,37.805V29.863l3-1.729" transform="translate(-6.609 -8.96)" fill="none" stroke="#ff3c00" stroke-linecap="round" stroke-linejoin="round" stroke-width="1.5"/></g></svg>