<svg xmlns="http://www.w3.org/2000/svg" viewBox="0 0 50 50"><defs><style>.a{fill:#ff3a00;}</style></defs><path class="a" d="M11.41,22a7.07,7.07,0,0,0,12.71-.12h0a5.29,5.29,0,0,0,.56,0A7,7,0,0,1,23,25.72a4.91,4.91,0,0,1-2,1.33,1.37,1.37,0,0,0-1.1-.57H18.41a1.4,1.4,0,0,0,0,2.79h1.48a1.36,1.36,0,0,0,1.16-.65,6.17,6.17,0,0,0,3.06-1.88,8.72,8.72,0,0,0,2.1-5.39A3.23,3.23,0,0,0,28,18.57a3.19,3.19,0,0,0-1.55-2.65,9.48,9.48,0,0,0-8.66-7.19,9.28,9.28,0,0,0-8.67,7.41A3.17,3.17,0,0,0,7.67,18.7,3.59,3.59,0,0,0,11.41,22Zm6.32,2.41a5.72,5.72,0,1,1,5.65-5.72A5.69,5.69,0,0,1,17.73,24.42Zm0-14.18a8,8,0,0,1,7,5.06,3.68,3.68,0,0,0-.58-.05v.26a7.08,7.08,0,0,0-12.71-.13,4.07,4.07,0,0,0-.61.06A7.94,7.94,0,0,1,17.75,10.24Z"/><path class="a" d="M6.18,36.14a.76.76,0,0,0,.75-.76v-4.5a3.63,3.63,0,0,1,3.6-3.65h2.79a.75.75,0,0,0,0-1.5H10.53a5.12,5.12,0,0,0-5.09,5.15v4.5A.75.75,0,0,0,6.18,36.14Z"/><path class="a" d="M47.76,39.23h-3.3V36a.5.5,0,0,0,0-.13.84.84,0,0,0,.06-.14l3.37-14.2a.77.77,0,0,0-.14-.64.75.75,0,0,0-.58-.29H28.56a.75.75,0,0,0-.72.58l-3.37,14.2a1,1,0,0,0,0,.17H17a.74.74,0,0,0-.74.75v2.89h-14a.75.75,0,0,0,0,1.5H47.76a.75.75,0,0,0,0-1.5ZM29.14,22.15h1.43L27.41,35.59H26ZM17.77,39.23V37.09H39.24a.75.75,0,0,0,0-1.5H28.94L32.1,22.15H46.19L43.05,35.42a.65.65,0,0,0,0,.31A.78.78,0,0,0,43,36v3.19Z"/></svg>