<svg xmlns="http://www.w3.org/2000/svg" viewBox="0 0 50 50"><defs><style>.a{fill:#ff3a00;}</style></defs><path class="a" d="M29.26,13A4.05,4.05,0,1,0,25.21,17,4.08,4.08,0,0,0,29.26,13Zm-6.64,0a2.59,2.59,0,1,1,2.59,2.61A2.61,2.61,0,0,1,22.62,13Z"/><path class="a" d="M18,20.64v3.43H12.24a.73.73,0,0,0-.73.74v2.73a.73.73,0,0,0,.73.74h.81v2a.74.74,0,1,0,1.47,0v-2H36.05v2a.73.73,0,1,0,1.46,0v-2h.33a.74.74,0,0,0,.74-.74V24.81a.74.74,0,0,0-.74-.74H32.47V20.64a3,3,0,0,0-3-3H21A3,3,0,0,0,18,20.64ZM37.11,26.8H13V25.55H37.11ZM31,20.64v3.43H19.42V20.64A1.55,1.55,0,0,1,21,19.08h8.49A1.55,1.55,0,0,1,31,20.64Z"/><path class="a" d="M34.83,36a3.24,3.24,0,1,0,3.24-3.27A3.26,3.26,0,0,0,34.83,36Zm5,0a1.77,1.77,0,1,1-1.77-1.79A1.78,1.78,0,0,1,39.84,36Z"/><path class="a" d="M41.27,39.36h-6.4a2.47,2.47,0,0,0-2.45,2.48v2.92a.73.73,0,1,0,1.46,0V41.84a1,1,0,0,1,1-1h6.4a1,1,0,0,1,1,1v2.92a.73.73,0,1,0,1.46,0V41.84A2.47,2.47,0,0,0,41.27,39.36Z"/><path class="a" d="M22.05,36a3.24,3.24,0,1,0,3.23-3.27A3.26,3.26,0,0,0,22.05,36Zm5,0a1.77,1.77,0,1,1-1.77-1.79A1.78,1.78,0,0,1,27.05,36Z"/><path class="a" d="M28.48,39.36h-6.4a2.47,2.47,0,0,0-2.45,2.48v2.92a.74.74,0,1,0,1.47,0V41.84a1,1,0,0,1,1-1h6.4a1,1,0,0,1,1,1v2.92a.73.73,0,1,0,1.46,0V41.84A2.47,2.47,0,0,0,28.48,39.36Z"/><path class="a" d="M9.26,36a3.24,3.24,0,1,0,3.24-3.27A3.26,3.26,0,0,0,9.26,36ZM12.5,34.2A1.79,1.79,0,1,1,10.72,36,1.78,1.78,0,0,1,12.5,34.2Z"/><path class="a" d="M15.7,39.36H9.29a2.47,2.47,0,0,0-2.45,2.48v2.92a.74.74,0,1,0,1.47,0V41.84a1,1,0,0,1,1-1H15.7a1,1,0,0,1,1,1v2.92a.74.74,0,1,0,1.47,0V41.84A2.47,2.47,0,0,0,15.7,39.36Z"/><path class="a" d="M43.38,4.5H6.62A2.13,2.13,0,0,0,4.5,6.64V27.58a2.13,2.13,0,0,0,2.12,2.14H8.86a.74.74,0,0,0,0-1.48H6.62A.66.66,0,0,1,6,27.58V6.64A.66.66,0,0,1,6.62,6H43.38a.66.66,0,0,1,.65.66V27.58a.66.66,0,0,1-.65.66H41.33a.74.74,0,0,0,0,1.48h2.05a2.13,2.13,0,0,0,2.12-2.14V6.64A2.13,2.13,0,0,0,43.38,4.5Z"/></svg>