<svg xmlns="http://www.w3.org/2000/svg" viewBox="0 0 50 50"><defs><style>.a{fill:#ff3a00;}</style></defs><path class="a" d="M11.2,30.45a5.92,5.92,0,1,1,5.85-5.92A5.88,5.88,0,0,1,11.2,30.45Zm0-10.39a4.48,4.48,0,1,0,4.42,4.47A4.46,4.46,0,0,0,11.2,20.06Z"/><path class="a" d="M21.19,45a.71.71,0,0,1-.71-.72V38.65A4.62,4.62,0,0,0,15.9,34H6.5a4.61,4.61,0,0,0-4.57,4.63v5.63a.72.72,0,1,1-1.43,0V38.65a6,6,0,0,1,6-6.08h9.4a6,6,0,0,1,6,6.08v5.63A.71.71,0,0,1,21.19,45Z"/><path class="a" d="M31.92,36.26a.75.75,0,0,1-.36-.1.73.73,0,0,1-.36-.63V32.69H24.78a3.87,3.87,0,0,1-3.85-3.89V18.21a3.87,3.87,0,0,1,3.85-3.89h2.76a.72.72,0,0,1,0,1.44H24.78a2.43,2.43,0,0,0-2.42,2.45V28.8a2.43,2.43,0,0,0,2.42,2.45h7.14a.71.71,0,0,1,.71.72V34.3l5.19-3a.7.7,0,0,1,.35-.09h7.48a2.43,2.43,0,0,0,2.42-2.45V18.21a2.43,2.43,0,0,0-2.42-2.45H42.47a.72.72,0,0,1,0-1.44h3.18a3.87,3.87,0,0,1,3.85,3.89V28.8a3.87,3.87,0,0,1-3.85,3.89h-7.3l-6.08,3.47A.64.64,0,0,1,31.92,36.26Z"/><path class="a" d="M32.14,8.33a.7.7,0,0,1-.65-.43l-.61-1.39a.74.74,0,0,1,.37-1,.71.71,0,0,1,.94.37l.6,1.38a.73.73,0,0,1-.36,1A.75.75,0,0,1,32.14,8.33Z"/><path class="a" d="M38.23,8.33a.72.72,0,0,1-.29-.06.73.73,0,0,1-.37-1l.6-1.38a.72.72,0,1,1,1.31.58l-.6,1.39A.71.71,0,0,1,38.23,8.33Z"/><path class="a" d="M35.26,7.82a.73.73,0,0,1-.72-.73V5.72a.72.72,0,1,1,1.43,0V7.09A.72.72,0,0,1,35.26,7.82Z"/><path class="a" d="M37,22.58H33.71a.71.71,0,0,1-.71-.72V20.41a5.8,5.8,0,1,1,4.74,0v1.45A.71.71,0,0,1,37,22.58Zm-2.6-1.44h1.88V19.92a.73.73,0,0,1,.48-.68,4.37,4.37,0,1,0-2.84,0,.73.73,0,0,1,.48.68Z"/><path class="a" d="M33.12,15.8a.73.73,0,0,1-.72-.73,2.7,2.7,0,0,1,2.69-2.71.72.72,0,0,1,0,1.44,1.26,1.26,0,0,0-1.26,1.27A.72.72,0,0,1,33.12,15.8Z"/><path class="a" d="M36.8,24.87H33.68a.72.72,0,0,1-.71-.73.71.71,0,0,1,.71-.72H36.8a.72.72,0,0,1,.72.72A.73.73,0,0,1,36.8,24.87Z"/><path class="a" d="M36.27,27.09h-1.8a.73.73,0,0,1,0-1.45h1.8a.73.73,0,0,1,0,1.45Z"/></svg>