<svg xmlns="http://www.w3.org/2000/svg" viewBox="0 0 50 50"><defs><style>.a{fill:#ff3a00;}</style></defs><path class="a" d="M36.88,13.29h7.06l.07,0-4.12,3a.75.75,0,0,0,.44,1.35.77.77,0,0,0,.44-.14l5.42-3.9a.75.75,0,0,0,.1-1.13l-4.62-4.7a.76.76,0,0,0-1.06,0,.75.75,0,0,0,0,1.06l3,3H36.88a9.32,9.32,0,0,0-8.09,4.68L19.47,32.79a7.81,7.81,0,0,1-6.78,3.92H6l4.1-3a.74.74,0,0,0,.16-1,.75.75,0,0,0-1-.17l-5.42,3.9a.75.75,0,0,0-.1,1.13l4.62,4.7a.75.75,0,0,0,.54.22.73.73,0,0,0,.52-.21.75.75,0,0,0,0-1.06l-3-3h6.27a9.32,9.32,0,0,0,8.09-4.68l9.31-16.31A7.84,7.84,0,0,1,36.88,13.29Z"/><path class="a" d="M8.33,17.36a.76.76,0,0,0,.54.23.73.73,0,0,0,.52-.21.75.75,0,0,0,0-1.06l-3-3h6.83a6.39,6.39,0,0,1,5.54,3.21L21.34,21a.74.74,0,0,0,.65.38.69.69,0,0,0,.37-.1.73.73,0,0,0,.28-1L20.1,15.76a7.91,7.91,0,0,0-6.85-4H6l4.1-3a.75.75,0,0,0-.88-1.21l-5.42,3.9a.74.74,0,0,0-.31.54.72.72,0,0,0,.21.58Z"/><path class="a" d="M41.67,32.64a.75.75,0,0,0-1.06,0,.73.73,0,0,0,0,1l3,3H35.78a6.39,6.39,0,0,1-5.54-3.21l-2.78-4.86a.75.75,0,0,0-1-.27.73.73,0,0,0-.28,1l2.77,4.86a7.91,7.91,0,0,0,6.85,4H44l-4.12,3a.75.75,0,0,0,.44,1.35.77.77,0,0,0,.44-.14l5.42-3.9a.74.74,0,0,0,.31-.54.72.72,0,0,0-.21-.58Z"/></svg>