<svg xmlns="http://www.w3.org/2000/svg" viewBox="0 0 50 50"><defs><style>.a{fill:#ff3a00;}</style></defs><path class="a" d="M11.12,23.84l1.4-1.71h26.6l3.33,4.08H11.34a.74.74,0,1,0,0,1.48H43.1a1.87,1.87,0,0,1-1.72,1.1H11.23a.74.74,0,1,0,0,1.47H41.38a3.34,3.34,0,0,0,3.37-3.18v0s0-.06,0-.09v0a.71.71,0,0,0-.06-.25s0,0,0,0a.51.51,0,0,0-.09-.16l-4.37-5.35V5.24a.75.75,0,0,0-.75-.74H12.16a.74.74,0,0,0-.75.74v15.9L10,22.92a.73.73,0,0,0,.12,1A.76.76,0,0,0,11.12,23.84ZM12.91,6H38.73V20.66H12.91Z"/><path class="a" d="M37,6.9H14.7a.75.75,0,0,0-.76.73V19a.75.75,0,0,0,.76.74H37a.75.75,0,0,0,.75-.74V7.63A.74.74,0,0,0,37,6.9Zm-.75,11.36H15.45V8.37H36.21Z"/><path class="a" d="M19.81,16.11a.87.87,0,0,0,.31-.07L25,13.79l.63,1.06a.77.77,0,0,0,1,.3l4.8-2.3-.16.63a.75.75,0,0,0,.54.9l.19,0a.76.76,0,0,0,.73-.56l.55-2.15h0a1.23,1.23,0,0,0,0-.19s0,0,0-.06,0-.05,0-.07a.75.75,0,0,0-.07-.18l0-.06a.61.61,0,0,0-.17-.19l0,0a.57.57,0,0,0-.13-.08l-2.17-.89a.75.75,0,0,0-1,.39.74.74,0,0,0,.4,1l.64.26-4.14,2-.63-1a.77.77,0,0,0-1-.3L19.49,14.7a.72.72,0,0,0-.36,1A.74.74,0,0,0,19.81,16.11Z"/><path class="a" d="M5.81,32.91h0a.75.75,0,0,0,.62-.32L8,30.31a.7.7,0,0,0,.13-.42V13a.74.74,0,0,0-.75-.74H4.25A.75.75,0,0,0,3.5,13V29.58a.7.7,0,0,0,.11.38l1.58,2.59A.74.74,0,0,0,5.81,32.91ZM5,13.73H6.66V29.67l-.79,1.14L5,29.38Z"/><path class="a" d="M46.38,40.73,42.3,34.58a.74.74,0,0,0-.47-.32c-.5-.11-11.82-2.51-16.11.67-4-2.91-14.82-.92-16.1-.68a.74.74,0,0,0-.48.33L5.06,40.73a.71.71,0,0,0,0,.79.75.75,0,0,0,.74.34c6.66-.92,17.79-1.6,19.31.52h0a.68.68,0,0,0,.24.2l.06,0,.08,0a.62.62,0,0,0,.23,0,.57.57,0,0,0,.22,0l.08,0,.07,0a.78.78,0,0,0,.24-.2h0c1.52-2.12,12.65-1.44,19.31-.52a.74.74,0,0,0,.74-.34A.71.71,0,0,0,46.38,40.73ZM7.21,40.19l3-4.55C13.78,35,22.37,34,25,36.21v4.31c-1.73-.77-4.57-1-7.57-1A89.76,89.76,0,0,0,7.21,40.19Zm19.26.33v-4.3c2.82-2.39,11.27-1.3,14.74-.59l3,4.56C39.94,39.67,30.37,38.78,26.47,40.52Z"/><path class="a" d="M43.56,43.24c-2.38-.32-14-1.75-16.88.79H24.49c-2-2-11.3-1.39-16.95-.79a.73.73,0,0,0-.66.81.74.74,0,0,0,.82.65c7.93-.84,15.11-.71,15.68.28a.75.75,0,0,0,.72.52H27a.76.76,0,0,0,.6-.29c1.27-1.65,10-1.29,15.75-.51a.76.76,0,0,0,.85-.63A.73.73,0,0,0,43.56,43.24Z"/></svg>