<svg xmlns="http://www.w3.org/2000/svg" viewBox="0 0 50 50"><defs><style>.a{fill:#ff3a00;}</style></defs><path class="a" d="M3.7,32.41h0a.71.71,0,0,0,.61-.33l2-2.9a.74.74,0,0,0,.13-.41V7.28a.74.74,0,0,0-.74-.74h-4A.74.74,0,0,0,1,7.28V28.37a.7.7,0,0,0,.11.38l2,3.3A.78.78,0,0,0,3.7,32.41ZM2.48,8H5V28.54L3.76,30.29,2.48,28.17Z"/><path class="a" d="M48.26,14.59a.74.74,0,0,0-.74.74V38.6C38,36,32.39,36.12,29.16,36.93a22.52,22.52,0,0,1,15.57-6.49h0a.74.74,0,0,0,.53-.21.75.75,0,0,0,.22-.53V5.47a.76.76,0,0,0-.23-.53.74.74,0,0,0-.54-.21c-.61,0-14.24.53-19.11,8.78a3.86,3.86,0,0,0-.88-.82c-3.43-2.23-12.28-1.19-14.82-.07a.72.72,0,0,0-.38,1,.73.73,0,0,0,1,.38c2.2-1,10.48-2,13.41,0a1.57,1.57,0,0,1,.87,1.4V38.14C22.57,36.61,17,35,3.6,38.6V35.72a.74.74,0,1,0-1.48,0v3.85a.72.72,0,0,0,.29.59.78.78,0,0,0,.65.12c18.8-5.23,21.76-.12,21.83,0a.41.41,0,0,0,.05.09l0,.07a.61.61,0,0,0,.17.15h0a.66.66,0,0,0,.19.09h0l.19,0,.15,0h.06l.09,0s0,0,0,0l.06,0,.06-.05a.49.49,0,0,0,.13-.12l0,0s0,0,0,0l.24-.33c.86-1,5.18-4.33,21.64.25a.79.79,0,0,0,.65-.12.75.75,0,0,0,.29-.59V15.33A.74.74,0,0,0,48.26,14.59ZM44,6.26V29A24.32,24.32,0,0,0,26.3,37.76V15.48C29.51,7.92,41,6.5,44,6.26Z"/><path class="a" d="M46.26,42.4c-1.44-.36-14.15-3.38-18-.57a2.79,2.79,0,0,0-1.07,1.42H24.34A3.25,3.25,0,0,0,23,41.7c-4.35-2.83-17.62.58-18.18.73a.74.74,0,0,0,.37,1.43c3.66-1,13.85-3,17-.92A1.69,1.69,0,0,1,23,44.11a.74.74,0,0,0,.73.62h4a.74.74,0,0,0,.74-.69,1.32,1.32,0,0,1,.6-1c2.81-2,13.06-.1,16.78.81a.74.74,0,1,0,.36-1.43Z"/></svg>