<svg xmlns="http://www.w3.org/2000/svg" viewBox="0 0 50 50"><defs><style>.a{fill:#ff3a00;}</style></defs><path class="a" d="M13.5,35V11.46a.74.74,0,0,0-.74-.74H7.24a.74.74,0,0,0-.74.74v23a.8.8,0,0,0,.1.38l2.76,4.62a.74.74,0,0,0,.62.36h0a.75.75,0,0,0,.61-.32l2.76-4.07A.74.74,0,0,0,13.5,35ZM12,34.75l-2,2.91L8,34.22v-22h4Z"/><path class="a" d="M40.93,4.5H13.15A2.16,2.16,0,0,0,11,6.66V8a.74.74,0,0,0,1.48,0V6.66A.69.69,0,0,1,13.15,6H40.93A1.09,1.09,0,0,1,42,7.07V43.19a.83.83,0,0,1-.82.83H13.54A1.07,1.07,0,0,1,12.47,43V42A.74.74,0,1,0,11,42v1a2.55,2.55,0,0,0,2.55,2.55H41.2a2.31,2.31,0,0,0,2.3-2.31V7.07A2.57,2.57,0,0,0,40.93,4.5Z"/><path class="a" d="M38,20.47a1.75,1.75,0,0,0,1.75-1.75V9.63A1.75,1.75,0,0,0,38,7.88H30a1.75,1.75,0,0,0-1.75,1.75v9.09A1.75,1.75,0,0,0,30,20.47Zm-8.25-1.75V9.63A.27.27,0,0,1,30,9.36h8a.27.27,0,0,1,.27.27v9.09A.27.27,0,0,1,38,19H30A.27.27,0,0,1,29.73,18.72Z"/><path class="a" d="M18.39,13.1h6.3a.75.75,0,0,0,0-1.49h-6.3a.75.75,0,0,0,0,1.49Z"/><path class="a" d="M18.39,19.29h6.3a.74.74,0,1,0,0-1.48h-6.3a.74.74,0,1,0,0,1.48Z"/><path class="a" d="M18.39,26H38.58a.74.74,0,0,0,0-1.48H18.39a.74.74,0,1,0,0,1.48Z"/><path class="a" d="M18.39,32.87H38.58a.74.74,0,0,0,0-1.48H18.39a.74.74,0,0,0,0,1.48Z"/><path class="a" d="M38.58,38.3H18.39a.74.74,0,1,0,0,1.48H38.58a.74.74,0,1,0,0-1.48Z"/><path class="a" d="M31.57,18.05a.74.74,0,0,0,.74-.74V16.2a.22.22,0,0,1,.22-.21h2.93a.22.22,0,0,1,.21.21v1.11a.74.74,0,0,0,1.48,0V16.2a1.69,1.69,0,0,0-1.69-1.69h-.19a2.22,2.22,0,1,0-2.56,0h-.18a1.7,1.7,0,0,0-1.7,1.69v1.11A.74.74,0,0,0,31.57,18.05ZM34,11.94a.75.75,0,0,1,0,1.5.75.75,0,0,1,0-1.5Z"/></svg>