<svg xmlns="http://www.w3.org/2000/svg" viewBox="0 0 50 50"><defs><style>.a{fill:#ff3a00;}</style></defs><path class="a" d="M47.76,8.73H2.24a.75.75,0,0,0-.74.75V40a.74.74,0,0,0,.74.74H47.76A.74.74,0,0,0,48.5,40V9.48A.75.75,0,0,0,47.76,8.73ZM47,39.24H3v-29H47Z"/><path class="a" d="M24.3,34.41H40.45a.75.75,0,0,0,0-1.49H24.3a.75.75,0,0,0,0,1.49Z"/><path class="a" d="M25.58,31.51H42.85a.75.75,0,1,0,0-1.49H25.58a.75.75,0,0,0,0,1.49Z"/><path class="a" d="M32.23,27.14h11.5a.74.74,0,0,0,.74-.75V13.78a.74.74,0,0,0-.74-.75H32.23a.74.74,0,0,0-.74.75V26.39A.74.74,0,0,0,32.23,27.14ZM33,14.52H43V25.65H33Z"/><polygon class="a" points="13.91 26.58 13.92 26.56 13.9 26.56 13.91 26.58"/><path class="a" d="M6.77,23.68a2.07,2.07,0,0,1,0,.67A2.43,2.43,0,0,0,7.07,26a1.75,1.75,0,0,0,.82.59L5.7,31.78a.74.74,0,0,0,.14.8.75.75,0,0,0,.79.2l1.94-.68L9.43,34a.74.74,0,0,0,.67.43h0a.74.74,0,0,0,.68-.45l2.31-5.47L15.42,34a.74.74,0,0,0,.67.45h0a.75.75,0,0,0,.68-.43l.86-1.88,1.94.68a.75.75,0,0,0,.93-1l-2.18-5.15a1.81,1.81,0,0,0,.86-.6,2.43,2.43,0,0,0,.29-1.68,2.47,2.47,0,0,1,0-.67,2.22,2.22,0,0,1,.38-.52,2.42,2.42,0,0,0,.76-1.56A2.44,2.44,0,0,0,19.86,20a2.2,2.2,0,0,1-.38-.51,2.54,2.54,0,0,1,0-.68,2.4,2.4,0,0,0-.29-1.67,2.4,2.4,0,0,0-1.51-.8,2,2,0,0,1-.62-.21,2.24,2.24,0,0,1-.39-.52,2.37,2.37,0,0,0-1.23-1.2,2.35,2.35,0,0,0-1.65.23,2.33,2.33,0,0,1-.66.21,2.23,2.23,0,0,1-.66-.21,2.38,2.38,0,0,0-1.66-.23,2.4,2.4,0,0,0-1.23,1.2,2,2,0,0,1-.38.52,2.09,2.09,0,0,1-.63.21,2.38,2.38,0,0,0-1.5.8,2.4,2.4,0,0,0-.29,1.67,2.14,2.14,0,0,1,0,.68A2.11,2.11,0,0,1,6.4,20a2.44,2.44,0,0,0-.76,1.56,2.42,2.42,0,0,0,.76,1.56A2.13,2.13,0,0,1,6.77,23.68Zm3.31,8.14-.44-1A.76.76,0,0,0,9,30.43a.67.67,0,0,0-.24,0l-1,.35,1.57-3.7a3.36,3.36,0,0,1,.29.44,2.44,2.44,0,0,0,1.23,1.2,1.59,1.59,0,0,0,.48.07h.06Zm8.4-1-1-.35a.74.74,0,0,0-.92.39l-.44,1-1.27-3a1.46,1.46,0,0,0,.58-.06,2.4,2.4,0,0,0,1.23-1.2,4.62,4.62,0,0,1,.27-.4ZM7.53,21a3.15,3.15,0,0,0,.66-1,3.33,3.33,0,0,0,.07-1.25,1.86,1.86,0,0,1,0-.68,1.86,1.86,0,0,1,.65-.23,3.14,3.14,0,0,0,1.16-.45,3.33,3.33,0,0,0,.77-1,2.13,2.13,0,0,1,.42-.56h0a3,3,0,0,1,.61.2,3.19,3.19,0,0,0,1.22.32,3.19,3.19,0,0,0,1.22-.32,2.16,2.16,0,0,1,.64-.2,2.13,2.13,0,0,1,.42.56,3.17,3.17,0,0,0,.77,1,3.14,3.14,0,0,0,1.16.45,1.86,1.86,0,0,1,.65.23,2.11,2.11,0,0,1,0,.68A3.33,3.33,0,0,0,18.07,20a3,3,0,0,0,.66,1c.15.18.4.48.4.59s-.25.42-.4.59a3,3,0,0,0-.66,1A3.33,3.33,0,0,0,18,24.47a2.14,2.14,0,0,1,0,.68.54.54,0,0,1-.24.11l-.41.12a3.31,3.31,0,0,0-1,.36l-.15.09a3,3,0,0,0-.77,1c-.11.19-.32.53-.42.56a1.9,1.9,0,0,1-.64-.2l-.24-.1-.34-.12a2.31,2.31,0,0,0-.64-.1,2.16,2.16,0,0,0-.68.12l-.36.13-.18.07a1.9,1.9,0,0,1-.64.2c-.1,0-.31-.37-.42-.56a3.16,3.16,0,0,0-.77-1l-.19-.12a3.71,3.71,0,0,0-1-.33l-.45-.13a.45.45,0,0,1-.2-.1,1.88,1.88,0,0,1,0-.68,3.33,3.33,0,0,0-.07-1.25,3.2,3.2,0,0,0-.66-1c-.15-.17-.41-.47-.41-.59S7.38,21.19,7.53,21Z"/><path class="a" d="M13.13,26A4.41,4.41,0,1,0,8.74,21.6,4.4,4.4,0,0,0,13.13,26Zm0-7.33a2.92,2.92,0,1,1-2.91,2.92A2.91,2.91,0,0,1,13.13,18.68Z"/></svg>