<svg xmlns="http://www.w3.org/2000/svg" viewBox="0 0 50 50"><defs><style>.a{fill:#ff3a00;}</style></defs><path class="a" d="M32,21.36a3.45,3.45,0,1,0-3.43-3.45A3.44,3.44,0,0,0,32,21.36ZM32,16a2,2,0,1,1-1.95,2A2,2,0,0,1,32,16Z"/><path class="a" d="M26,24.17v3.12a.74.74,0,1,0,1.48,0V24.17a1.12,1.12,0,0,1,1.11-1.12h6.89a1.12,1.12,0,0,1,1.11,1.12v3.12a.74.74,0,1,0,1.47,0V24.17a2.59,2.59,0,0,0-2.58-2.6H28.6A2.59,2.59,0,0,0,26,24.17Z"/><path class="a" d="M9.93,22.73a.74.74,0,0,0-.74.74v5.89a.74.74,0,0,0,.74.74H40.28a.74.74,0,0,0,.74-.74V12.82a.74.74,0,0,0-.74-.74h-9.4a.74.74,0,1,0,0,1.48h8.66V28.61H10.67V23.47A.74.74,0,0,0,9.93,22.73Z"/><path class="a" d="M6.08,20h6.16l5.13,2.91a.77.77,0,0,0,.36.09.69.69,0,0,0,.37-.1.73.73,0,0,0,.37-.64V20h5.32a3.4,3.4,0,0,0,3.39-3.41V7.64a3.4,3.4,0,0,0-3.39-3.41H6.08a3.41,3.41,0,0,0-3.4,3.41v8.91A3.41,3.41,0,0,0,6.08,20ZM4.16,7.64A1.93,1.93,0,0,1,6.08,5.71H23.79a1.93,1.93,0,0,1,1.92,1.93v8.91a1.92,1.92,0,0,1-1.92,1.93H17.73a.74.74,0,0,0-.74.74V21l-4.2-2.37a.65.65,0,0,0-.36-.1H6.08a1.92,1.92,0,0,1-1.92-1.93Z"/><path class="a" d="M19.05,13.36a1.16,1.16,0,0,0,1.21-1.25,1,1,0,0,0-1.09-1A1.15,1.15,0,0,0,18,12.28,1.05,1.05,0,0,0,19.05,13.36Z"/><path class="a" d="M15.31,13.36a1.16,1.16,0,0,0,1.21-1.25,1,1,0,0,0-1.09-1,1.15,1.15,0,0,0-1.22,1.22A1.05,1.05,0,0,0,15.31,13.36Z"/><path class="a" d="M11.57,13.36a1.16,1.16,0,0,0,1.21-1.25,1,1,0,0,0-1.09-1,1.15,1.15,0,0,0-1.22,1.22A1.05,1.05,0,0,0,11.57,13.36Z"/><path class="a" d="M49.5,41.79s0,0,0,0a.7.7,0,0,0-.09-.29s0,0,0-.05l-5.83-9.35V9.83a.74.74,0,0,0-.74-.74H31.08a.74.74,0,1,0,0,1.48h11v21H7.92V22.91a.74.74,0,1,0-1.48,0v9.14L.61,41.4s0,0,0,.05a.7.7,0,0,0-.09.29s0,0,0,0h0a3.43,3.43,0,0,0,3.42,3.43H46.08A3.43,3.43,0,0,0,49.5,41.8Zm-42-8.68h35l5,8H2.57ZM46.08,43.75H3.92a2,2,0,0,1-1.8-1.21H47.88A2,2,0,0,1,46.08,43.75Z"/></svg>