<svg xmlns="http://www.w3.org/2000/svg" viewBox="0 0 50 50"><defs><style>.a{fill:#ff3a00;}</style></defs><path class="a" d="M15.28,20.05h5.2v2.21a.77.77,0,0,0,.37.65.75.75,0,0,0,.38.1.69.69,0,0,0,.37-.1l5-2.86h6a3.37,3.37,0,0,0,3.36-3.38V7.89A3.38,3.38,0,0,0,32.69,4.5H15.28a3.37,3.37,0,0,0-3.36,3.39v8.78A3.37,3.37,0,0,0,15.28,20.05ZM13.42,7.89A1.87,1.87,0,0,1,15.28,6H32.69a1.87,1.87,0,0,1,1.86,1.88v8.78a1.87,1.87,0,0,1-1.86,1.87H26.45a.79.79,0,0,0-.37.1L22,21V19.3a.76.76,0,0,0-.76-.76h-6a1.87,1.87,0,0,1-1.86-1.87Z"/><path class="a" d="M27.91,14.05a1.14,1.14,0,0,0,1.19-1.23,1,1,0,0,0-1.07-1A1.14,1.14,0,0,0,26.83,13,1,1,0,0,0,27.91,14.05Z"/><path class="a" d="M20.55,14.05a1.15,1.15,0,0,0,1.2-1.23,1,1,0,0,0-1.08-1A1.14,1.14,0,0,0,19.47,13,1,1,0,0,0,20.55,14.05Z"/><path class="a" d="M24.23,14.05a1.15,1.15,0,0,0,1.2-1.23,1,1,0,0,0-1.08-1A1.14,1.14,0,0,0,23.15,13,1,1,0,0,0,24.23,14.05Z"/><path class="a" d="M10.75,30.75a5.24,5.24,0,1,0-5.2-5.24A5.23,5.23,0,0,0,10.75,30.75Zm0-9a3.73,3.73,0,1,1-3.7,3.73A3.73,3.73,0,0,1,10.75,21.78Z"/><path class="a" d="M44.4,32H34.1A4.12,4.12,0,0,0,30,36.12V40a.75.75,0,1,0,1.5,0V36.12a2.62,2.62,0,0,1,2.6-2.62H44.4A2.62,2.62,0,0,1,47,36.12V40a.75.75,0,1,0,1.5,0V36.12A4.12,4.12,0,0,0,44.4,32Z"/><path class="a" d="M34,25.75a5.21,5.21,0,1,0,5.21-5.25A5.23,5.23,0,0,0,34,25.75ZM39.25,22a3.73,3.73,0,1,1-3.71,3.73A3.72,3.72,0,0,1,39.25,22Z"/><path class="a" d="M26.39,30.19a3,3,0,0,0-4,1.41L20,36.49v-.61a4.12,4.12,0,0,0-4.1-4.13H5.6a4.12,4.12,0,0,0-4.1,4.13v3.91a.75.75,0,1,0,1.5,0V35.88a2.62,2.62,0,0,1,2.6-2.62H15.9a2.62,2.62,0,0,1,2.6,2.62v3.91a.7.7,0,0,0,0,.14s0,.08,0,.12a.82.82,0,0,0,.12.2s0,0,0,0a.78.78,0,0,0,.56.26.76.76,0,0,0,.49-.19h0a.92.92,0,0,0,.17-.22s0,0,0,0h0s0,0,0,0l3.77-7.81a1.49,1.49,0,0,1,2-.7,1.52,1.52,0,0,1,.7,2L21.21,44.41a.76.76,0,0,0,.34,1,.67.67,0,0,0,.33.08.76.76,0,0,0,.68-.43l5.22-10.82A3.05,3.05,0,0,0,26.39,30.19Z"/></svg>