<svg xmlns="http://www.w3.org/2000/svg" width="16" height="18" viewBox="0 0 16 18"><path d="M-2540.715,3135.746v17a.5.5,0,0,1-.5.5h-11a.5.5,0,0,1-.5-.5v-4a.5.5,0,0,1,.5-.5.5.5,0,0,1,.5.5v3.5h10v-16h-10v3.5a.5.5,0,0,1-.5.5.5.5,0,0,1-.5-.5v-4a.5.5,0,0,1,.5-.5h11A.5.5,0,0,1-2540.715,3135.746Zm-7.658,11.147a.5.5,0,0,0,0,.707.5.5,0,0,0,.353.146.5.5,0,0,0,.354-.146l3-3a.5.5,0,0,0,0-.707l-3-3a.5.5,0,0,0-.707,0,.5.5,0,0,0,0,.707l2.146,2.146h-9.988a.5.5,0,0,0-.5.5.5.5,0,0,0,.5.5h9.988Z" transform="translate(2556.715 -3135.246)" fill="#fff"/></svg>