<svg xmlns="http://www.w3.org/2000/svg" width="146.32" height="50" viewBox="0 0 146.32 50"><defs><style>.a{fill:#ff3c00;}</style></defs><g transform="translate(0 0)"><path class="a" d="M1.83,33.1A15.16,15.16,0,1,1,6.27,43.83,15.17,15.17,0,0,1,1.83,33.1M17,50.09a17,17,0,1,0-17-17,17,17,0,0,0,17,17" transform="translate(0 -0.09)"/><path class="a" d="M17,46.83a13.72,13.72,0,1,0-9.719-4.016A13.73,13.73,0,0,0,17,46.83" transform="translate(0 -0.09)"/><path d="M81.82,25.55v3.09l.89-.89c.81-.8,2.77-2.1,6.81-2.21v4.34c-1.57.11-6.19.82-7.68,5.39V47.71h-5V25.55Zm10.15-.01h5.05V47.72H91.97Zm0-6.18h5.05v4.41H91.97ZM134.68,25a11.65,11.65,0,1,0,11.64,11.64A11.65,11.65,0,0,0,134.68,25m0,18.25a6.6,6.6,0,1,1,4.67-1.937,6.61,6.61,0,0,1-4.67,1.937M59.54,17.94A15.17,15.17,0,1,0,74.71,33.1,15.17,15.17,0,0,0,59.54,17.94m0,25.3A10.14,10.14,0,1,1,69.67,33.1,10.14,10.14,0,0,1,59.54,43.24m56.71-3.03a6.61,6.61,0,1,1,0-7.17h5.54a11.65,11.65,0,1,0,0,7.17Z" transform="translate(0 -0.09)"/><path d="M26.05,4h-.17a.21.21,0,0,1-.12,0c-.21,0-.36-.38-.48-1.09h.19a15.28,15.28,0,0,0,2.05-.25A9.32,9.32,0,0,0,27.83.8a1,1,0,0,0,0-.16A4.12,4.12,0,0,1,28.9.88c.15.05.23.14.23.24a.22.22,0,0,1-.06.15,5.19,5.19,0,0,0-.44,1.32,5.74,5.74,0,0,1,.65,0,1.56,1.56,0,0,1,.93.24,2,2,0,0,1,.57,1.72,6,6,0,0,1-.7,3.27,1.46,1.46,0,0,1-1.28.62,2.09,2.09,0,0,1-.77-.1c-.08,0-.08,0-.11-.41a2.39,2.39,0,0,0-.2-.75,2.52,2.52,0,0,0,.94.19c.46,0,.65-.22.86-1a6.93,6.93,0,0,0,.22-1.88c0-.75-.18-1-.69-1a4.25,4.25,0,0,0-.67.06c0,.1,0,.11-.08.25a22.721,22.721,0,0,1-1.25,3.32c-.51,1-.64,1.27-.77,1.27A2.35,2.35,0,0,1,25.67,8c-.22-.14-.28-.19-.28-.27s0,0,.39-.68a14.42,14.42,0,0,0,1.47-3.37L26.05,4M31,2.89c0-.07.09-.15.36-.37s.29-.21.36-.21.11,0,.23.16a7.36,7.36,0,0,1,1.41,1.91,1.48,1.48,0,0,1,.15.41c0,.1,0,.12-.33.37a1.35,1.35,0,0,1-.49.28c-.07,0-.1,0-.17-.19a6,6,0,0,0-.61-1.19A5.17,5.17,0,0,0,31,3a.21.21,0,0,1,0-.11m7.22.36h-.5c-.08,0-.12,0-.14-.13a5.18,5.18,0,0,1-.13-1h.73l1.21-.08a7.8,7.8,0,0,0,.22-1.6C40.6.58,41,.69,41,.88s0,.08-.16.31a3.49,3.49,0,0,0-.27.82,6.29,6.29,0,0,0,1.08-.27h.15c.07,0,.08,0,.14.32a3.38,3.38,0,0,1,.08.55c0,.12,0,.14-.28.2A7.829,7.829,0,0,1,40.22,3a18.43,18.43,0,0,1-1,2.56A16.14,16.14,0,0,1,38.39,7c-.08.11-.13.15-.2.15a2.12,2.12,0,0,1-.7-.4c-.16-.1-.19-.15-.19-.22s0-.12.16-.3a8.67,8.67,0,0,0,1-1.58,10.93,10.93,0,0,0,.65-1.51l-.85.07M41.39,8.8a1.565,1.565,0,0,1-1.76-1.44,1.61,1.61,0,0,1,1.73-1.55,4.09,4.09,0,0,1,.74.07,13.165,13.165,0,0,0-.08-1.54V3.6a4,4,0,0,1,.98.18.16.16,0,0,1,.12.15,1.15,1.15,0,0,1,0,.16,2.18,2.18,0,0,0-.06.6,12.218,12.218,0,0,0,.06,1.44A5.75,5.75,0,0,1,44.57,7c.21.16.29.25.29.33s0,.18-.32.61c-.11.19-.2.28-.27.28s-.05,0-.32-.25a4.91,4.91,0,0,0-.79-.58c0,.9-.66,1.44-1.77,1.44m0-2.06c-.46,0-.78.22-.78.56s.29.52.72.52A.7.7,0,0,0,42.1,7a.46.46,0,0,0,0-.15,1.66,1.66,0,0,0-.72-.15M45,4c-.12.16-.18.21-.24.21s-.09,0-.16-.09a6.09,6.09,0,0,0-.93-.7A4.6,4.6,0,0,0,43,3.08c-.13-.05-.18-.09-.18-.17s0-.15.19-.37.29-.4.38-.4a5.12,5.12,0,0,1,1.4.71c.42.28.54.4.54.5A2.21,2.21,0,0,1,45,4m7.75,1.43a1.79,1.79,0,0,1,.55-.1c.67,0,1,.39,1.1,1.39.07.57.1.67.23.79a.91.91,0,0,0,.64.15,4.75,4.75,0,0,0,1.46-.25h.07c.06,0,.09,0,.12.09a3.36,3.36,0,0,1,.15.94c0,.09,0,.13-.11.15a11.78,11.78,0,0,1-1.73.14c-.84,0-1.28-.15-1.54-.55A2.28,2.28,0,0,1,53.39,7c-.07-.75-.19-.93-.57-.93s-.62.17-1.19.74a10.16,10.16,0,0,0-1.34,1.63c0,.1-.12.16-.18.16s-.13-.06-.43-.38-.4-.44-.4-.5,0-.09.2-.24.23-.2,3.81-4c-1.55.28-2.53.48-2.76.57a.48.48,0,0,1-.2,0c-.08,0-.1,0-.16-.22a3.73,3.73,0,0,1-.18-1h.33c.43,0,1.61-.12,2.68-.27a3.53,3.53,0,0,0,1.15-.24.37.37,0,0,1,.15,0c.24,0,.79.63.79.91,0,.11,0,.16-.16.23a2.22,2.22,0,0,0-.52.33c-.1.08-.39.35-.52.48ZM51.6.61c0-.12.07-.17.12-.16h.1A7.72,7.72,0,0,0,53,.77a7.92,7.92,0,0,0,1.72.17c.11,0,.12,0,.12.27a2.76,2.76,0,0,1-.08.73.12.12,0,0,1-.12.08L53.4,1.89a10.36,10.36,0,0,1-1.84-.44c-.09,0-.12-.07-.12-.14a3.77,3.77,0,0,1,.17-.7M65.36,3.78A2.19,2.19,0,0,1,67.69,6a2.53,2.53,0,0,1-1.27,2.18,3.8,3.8,0,0,1-2,.49c-1.23,0-1.94-.49-1.94-1.33A1.38,1.38,0,0,1,64,6.05a1.89,1.89,0,0,1,1.8,1.26,1.41,1.41,0,0,0,.7-1.25A1.35,1.35,0,0,0,65,4.69,4.13,4.13,0,0,0,62.23,6a7,7,0,0,0-.47.54c-.07.1-.12.14-.18.14a2,2,0,0,1-.85-.85c0-.09,0-.13.25-.29a11.679,11.679,0,0,0,.94-.84,27.09,27.09,0,0,0,2.63-2.86,16.15,16.15,0,0,0-2.31.4h-.11c-.07,0-.12,0-.18-.2a3.48,3.48,0,0,1-.2-1,3.92,3.92,0,0,0,.65.05c.47,0,1.25-.07,2.26-.18A2.17,2.17,0,0,0,65.4.72a.44.44,0,0,1,.19,0c.14,0,.27.12.52.51s.24.37.24.45,0,.16-.24.3a2.47,2.47,0,0,0-.5.4c-.48.47-.49.47-1.09,1.07-.42.44-.47.48-.85.87a3.23,3.23,0,0,1,1.69-.49m-.92,3.33A.93.93,0,0,0,64,7c-.3,0-.5.14-.5.37s.3.46.77.46a2.08,2.08,0,0,0,.63-.09,1,1,0,0,0-.41-.6M71,6.46c.17-.16.22-.2.29-.2a4.27,4.27,0,0,1,1.12.83,4.57,4.57,0,0,1,1,1.23c0,.08,0,.1-.3.35s-.45.4-.51.4-.12,0-.17-.14A6.33,6.33,0,0,0,70.62,7.1C70.54,7,70.5,7,70.5,7s0-.1.45-.49m9.93.06a2.15,2.15,0,0,1-1.75,1.25c-1,0-1.72-1-1.72-2.36A3.88,3.88,0,0,1,79.5,1.94a4.52,4.52,0,0,1,2.26-.5,3.33,3.33,0,0,1,3.5,3.33,3.65,3.65,0,0,1-2.42,3.58,2.24,2.24,0,0,1-.7.22c-.11,0-.16,0-.29-.22a1.84,1.84,0,0,0-.6-.61c2-.51,2.88-1.45,2.88-3a2.26,2.26,0,0,0-.94-1.9,2.43,2.43,0,0,0-1.13-.41,10.44,10.44,0,0,1-1.18,4.15M79.49,3.16a3,3,0,0,0-1,2.28c0,.75.24,1.18.65,1.18s1-.66,1.34-1.81A12.591,12.591,0,0,0,81,2.47a2.81,2.81,0,0,0-1.47.69m17,1.28a5.44,5.44,0,0,0-1.63.33c-1,.4-1.7,1.12-1.7,1.82,0,.44.29.74.87.89a4.19,4.19,0,0,0,1,.1h.1c.16,0,.22.06.22.19a3.44,3.44,0,0,1-.11.88.17.17,0,0,1-.18.11,4.65,4.65,0,0,1-1.83-.39,1.71,1.71,0,0,1-1.15-1.6,2.18,2.18,0,0,1,.5-1.33,2.78,2.78,0,0,1,.68-.6,13.22,13.22,0,0,0-3.22,1.25.35.35,0,0,1-.17.07c-.11,0-.2-.09-.33-.33a1.43,1.43,0,0,1-.23-.64c0-.08,0-.11.27-.18a2.56,2.56,0,0,0,.74-.42,20.892,20.892,0,0,0,1.73-1.5,17.84,17.84,0,0,0,1.35-1.43c-.56.06-2.07.33-2.29.38h-.17c-.09,0-.13,0-.17-.13a5,5,0,0,1-.19-1h.29A23.441,23.441,0,0,0,93.46.76a2.55,2.55,0,0,0,.86-.19c.12-.06.13-.07.2-.07s.27.13.54.45.25.33.25.44,0,.15-.16.24a5.56,5.56,0,0,0-1,.86c-.67.61-1.46,1.29-2.35,2,1.36-.4,2.08-.6,3.55-.92.33-.07.65-.16,1-.27h.12c.08,0,.11,0,.16.12a2.89,2.89,0,0,1,.23.87c0,.13,0,.19-.14.19Zm6.86,1.88a.25.25,0,0,1,0,.11c0,.06,0,.06-.17.5a7.25,7.25,0,0,0-.37,1.44c0,.13,0,.18-.17.21a2.66,2.66,0,0,1-.64.06c-.1,0-.15,0-.18-.08a7.46,7.46,0,0,1-.32-1.39,10.819,10.819,0,0,1-.09-1.42,21,21,0,0,1,.47-4,7,7,0,0,0,.11-.76,3.17,3.17,0,0,1,1,.29c.14.08.2.14.2.23a.34.34,0,0,1-.07.18,11.71,11.71,0,0,0-.76,4.3V7.05c.23-.6.34-.87.55-1.33a1.51,1.51,0,0,0,.33.64M105,3.79c-.46,0-.55,0-.58-.13a2.8,2.8,0,0,1-.06-.61V2.72h2.08a7.35,7.35,0,0,0-.12-1.84,5,5,0,0,1,1.14.12.176.176,0,0,1,.2.19.58.58,0,0,1,0,.14,3.81,3.81,0,0,0-.17,1.27,10.789,10.789,0,0,0,1.24-.24h.1c.06,0,.09,0,.11.1a5.211,5.211,0,0,1,0,.65c0,.24,0,.28-.1.32a6.47,6.47,0,0,1-1.4.24c0,.67.06,1.77.13,2.39a8,8,0,0,1,1.44.78c.27.21.33.26.33.34a2,2,0,0,1-.38.7c-.11.17-.17.22-.24.22s-.06,0-.29-.22a5.84,5.84,0,0,0-.85-.65v.08c0,.85-.71,1.4-1.78,1.4S104,8.1,104,7.24a1.58,1.58,0,0,1,1.71-1.52,4.68,4.68,0,0,1,.8,0c0-.75,0-.75-.07-2h-1.46m.79,2.83c-.48,0-.8.22-.8.56s.3.5.77.5.78-.23.78-.66V6.7a1.92,1.92,0,0,0-.74-.15m2.58-5a4.39,4.39,0,0,0-.52-.84.13.13,0,0,1,0-.07c0-.07.32-.3.43-.3s.13.07.32.31a3.36,3.36,0,0,1,.51.86c0,.06,0,.1-.17.18a.77.77,0,0,1-.33.17c-.07,0-.07,0-.21-.31m.52-1.5a.65.65,0,0,1,.28-.12c.06,0,.11,0,.25.21a3.13,3.13,0,0,1,.55.91c0,.06,0,.1-.2.19a.87.87,0,0,1-.29.15s-.07,0-.1-.1a4.28,4.28,0,0,0-.61-1,.12.12,0,0,1,0-.08s0-.09.16-.15m6.93,6.05a.25.25,0,0,1,0,.14c0,.06,0,.07-.1.28a11.53,11.53,0,0,0-.54,1.66c0,.11,0,.17-.09.18a2.89,2.89,0,0,1-.48.07h-.24c-.12,0-.15,0-.19-.14A12.93,12.93,0,0,1,114,5.4a14.689,14.689,0,0,1,.34-3.16,11.378,11.378,0,0,0,.18-1.13,4.14,4.14,0,0,1,1,.31c.17.06.22.11.22.21s0,.1-.12.25a11.3,11.3,0,0,0-.67,3.93v1c.26-.6.36-.79.58-1.26a3.46,3.46,0,0,0,.32.56m2.09.68a2.64,2.64,0,0,0,1.32.23,4.69,4.69,0,0,0,1.58-.23h.14c.07,0,.11,0,.12.13a7.463,7.463,0,0,1,.09.91c0,.09,0,.12-.16.16a6.35,6.35,0,0,1-1.7.2,3.53,3.53,0,0,1-1.89-.37c-.42-.26-.87-.79-.87-1s.21-.32.73-.64a1.29,1.29,0,0,0,.64.68m-.67-4.91a8.18,8.18,0,0,0,1.3.09,10.49,10.49,0,0,0,1.87-.16h.08c.07,0,.1,0,.12.11a6.59,6.59,0,0,1,0,.78c0,.14,0,.19-.14.21a9.8,9.8,0,0,1-1.74.13A7.77,7.77,0,0,1,117.09,3a.562.562,0,0,1-.06-.27,5.593,5.593,0,0,1,0-.72s0-.06.1-.06m10.58,5.47a1.63,1.63,0,1,1-1.63-1.63,1.63,1.63,0,0,1,1.63,1.63m-2.5,0a.88.88,0,1,0,.87-.88.88.88,0,0,0-.87.88" transform="translate(0 0.07)"/></g></svg>