<?xml version="1.0" encoding="utf-8"?>
<!-- Generator: Adobe Illustrator 26.0.2, SVG Export Plug-In . SVG Version: 6.00 Build 0)  -->
<svg version="1.1" id="レイヤー_1" xmlns="http://www.w3.org/2000/svg" xmlns:xlink="http://www.w3.org/1999/xlink" x="0px"
	 y="0px" viewBox="0 0 243 185" style="enable-background:new 0 0 243 185;" xml:space="preserve">
<style type="text/css">
	.st0{fill:#FF3C00;}
</style>
<g>
	<g>
		<g>
			<path d="M29,9.5c-2.7-3.2-6.6-5-10.8-5c-8.2,0-14.3,6.6-14.3,14.6c0,9.5,7.9,14.4,14.4,14.4c3.2,0,7.5-1.3,10.7-4.8v2.8
				c-3.3,2.9-7.2,4-10.6,4C8.8,35.5,1.7,27.9,1.7,19c0-9.2,7.4-16.5,16.6-16.5c6.1,0,9.8,3.3,10.7,4.2V9.5z"/>
			<path d="M49.3,34.9L39,19.9h-1v15.1h-2.1V3h4.6c2.4,0,4.6,0.2,6.7,1.6c2.5,1.7,3.3,4.4,3.3,6.8c0,3.2-1.4,6.4-5.4,7.8
				c-1.7,0.6-3.2,0.6-3.9,0.6l10.4,15.1H49.3z M38,17.9h3.1c4.5,0,7.3-2.4,7.3-6.5c0-3.2-1.6-4.9-2.8-5.5c-1.3-0.8-3.6-1-4.9-1H38
				V17.9z"/>
			<path d="M89.7,19c0,9.2-7.2,16.4-16.6,16.4c-9.4,0-16.6-7.2-16.6-16.4S63.8,2.6,73.1,2.6S89.7,9.9,89.7,19z M87.5,19
				c0-8.2-6.1-14.5-14.4-14.5S58.8,10.9,58.8,19c0,8.1,6.1,14.5,14.4,14.5S87.5,27.2,87.5,19z"/>
			<path d="M111.1,8.4c-2-3.8-5.4-3.9-6.3-3.9c-3.8,0-5.9,2.7-5.9,5.9c0,3.4,2.4,4.6,5.6,6.2c3.2,1.5,4.7,2.2,6.4,3.3
				c1.4,1,3.4,2.6,3.4,6.2c0,5.4-4.5,9.3-9.9,9.3c-4.1,0-6.2-2-7.4-3.3c-1.2-1.4-1.8-2.7-2.1-3.5l1.8-0.9c0.4,1.2,1.2,2.5,1.7,3.1
				c1.4,1.8,3.8,2.7,6,2.7c4.3,0,7.7-3.2,7.7-7.4c0-1.7-0.7-3.5-3.1-5c-0.9-0.5-2.8-1.5-5.4-2.8c-3.2-1.5-4.7-2.4-5.8-4.2
				c-0.7-1.2-1-2.4-1-3.6c0-3.7,2.5-7.9,8.2-7.9c3.2,0,6.1,1.5,7.7,4.5L111.1,8.4z"/>
			<path d="M135.7,8.4c-2-3.8-5.4-3.9-6.3-3.9c-3.8,0-5.9,2.7-5.9,5.9c0,3.4,2.4,4.6,5.6,6.2c3.2,1.5,4.7,2.2,6.4,3.3
				c1.4,1,3.4,2.6,3.4,6.2c0,5.4-4.5,9.3-9.9,9.3c-4.1,0-6.2-2-7.4-3.3c-1.2-1.4-1.8-2.7-2.1-3.5l1.8-0.9c0.4,1.2,1.2,2.5,1.7,3.1
				c1.4,1.8,3.8,2.7,6,2.7c4.3,0,7.7-3.2,7.7-7.4c0-1.7-0.7-3.5-3.1-5c-0.9-0.5-2.8-1.5-5.4-2.8c-3.2-1.5-4.7-2.4-5.8-4.2
				c-0.7-1.2-1-2.4-1-3.6c0-3.7,2.5-7.9,8.2-7.9c3.2,0,6.1,1.5,7.7,4.5L135.7,8.4z"/>
			<path d="M163.6,4.9v30h-2.1v-30h-8.3V3h18.7v1.9H163.6z"/>
			<path d="M193.4,24.5h-13.6l-4.3,10.5h-2.3l13.4-32.9l13.3,32.9h-2.3L193.4,24.5z M192.6,22.5l-6-15.1l-6.1,15.1H192.6z"/>
			<path d="M207,3v30h8.9v1.9h-11V3H207z"/>
			<path d="M223,18l15.1-15h2.8l-15.5,15.3l16.4,16.6h-2.9l-15-15.2l-0.9,0.8v14.4h-2.1V3h2.1V18z"/>
		</g>
	</g>
	<rect x="1" y="149.3" width="240" height="1"/>
	<rect x="1.7" y="183.3" width="240" height="1"/>
	<g>
		<path class="st0" d="M1.6,135.2l33.6-37c3-3.4,6.4-7.1,9.6-11.8c2.5-3.8,5.1-8.8,5.1-15c0-11-8.3-19.7-20.3-19.7
			c-4.7,0-10.5,1.2-15.1,6.4c-2.6,2.9-5.1,7.9-5.1,14.3H3.6c0-7.9,3-14.3,7-18.4c3.8-3.9,10-7.6,19.4-7.6c15.1,0,26,10.8,26,24.9
			c0,7.5-2.9,13.2-6.3,18c-2,2.8-5.2,6.7-7.7,9.4L13.8,130h41.7v5.2H1.6z"/>
		<path class="st0" d="M122.1,57.2c6.8,8.1,11.1,19.9,11.1,34.4s-4.3,26.2-11.1,34.4c-6.3,7.5-13.9,10.8-20.6,10.8
			c-6.7,0-14.3-3.3-20.6-10.8c-6.8-8.1-11.1-19.9-11.1-34.4S74.1,65.3,81,57.2c7.1-8.5,14.9-10.6,20.6-10.6
			C107.2,46.6,115.1,48.7,122.1,57.2z M117.8,122.5c5.6-7,9.4-17,9.4-31c0-14-3.8-24-9.4-30.9c-3.1-3.9-8.5-8.8-16.3-8.8
			c-7.7,0-13.1,4.9-16.3,8.8c-5.6,7-9.4,16.9-9.4,30.9c0,13.9,3.8,24,9.4,31c6.4,8,13.2,8.9,16.3,8.9
			C104.6,131.4,111.4,130.5,117.8,122.5z"/>
		<path class="st0" d="M145.3,135.2l33.6-37c3-3.4,6.4-7.1,9.6-11.8c2.5-3.8,5.1-8.8,5.1-15c0-11-8.3-19.7-20.3-19.7
			c-4.7,0-10.5,1.2-15.1,6.4c-2.6,2.9-5.1,7.9-5.1,14.3h-5.8c0-7.9,3-14.3,7-18.4c3.8-3.9,10-7.6,19.4-7.6c15.1,0,26,10.8,26,24.9
			c0,7.5-2.9,13.2-6.3,18c-2,2.8-5.2,6.7-7.7,9.4L157.5,130h41.7v5.2H145.3z"/>
		<path class="st0" d="M235.9,53h-13.6l2.6-5.2h16.8v87.5h-5.8V53z"/>
	</g>
	<g>
		<g>
			<path d="M42.5,171.3c-0.3-0.3-1-0.8-1.9-2v5h-0.9v-4.8c-0.5,0.6-1.6,2-3.4,3.2L36,172c2.1-1.4,3.2-2.9,3.8-3.8h-3.3v-0.8h3.4
				v-1.9h-3.6v-0.8h2.1c0-0.6-0.3-2.1-0.4-2.7h-1.4v-0.8h3.4v-1.5h0.9v1.5h2.9v0.8h-1c-0.1,0.9-0.3,2.1-0.5,2.7h1.7v0.8h-3.1v1.9
				h2.9v0.8h-2.9c0.3,0.5,1.1,1.5,2.4,2.4L42.5,171.3z M41.3,164.6c0.2-1,0.3-1.6,0.5-2.7h-3.1c0.2,0.8,0.3,1.9,0.4,2.7H41.3z
				 M45.4,164.6h5.4v0.8h-2v8.8h-0.9v-8.8h-2.6v1.2c0,3.9-1.2,6.3-2.3,7.6l-0.7-0.6c1.3-1.5,2.2-3.9,2.2-7.1v-5.9
				c0.7,0,2.9,0,5.6-0.9l0.4,0.9c-2.3,0.6-4.5,0.8-5.1,0.8V164.6z"/>
			<path d="M61.8,160.3c0,8.6,4.4,11.7,6.7,13l-0.5,0.9c-5.6-3.6-6.3-7.7-6.6-9.9c-0.6,3.1-1.6,7-7.1,9.9l-0.5-0.8
				c3.1-1.7,6.9-4.6,6.9-12.2h-4.4v-0.9H61.8z"/>
			<path d="M76.8,169.1c-0.7-0.5-1.9-2-2.1-2.3v7.5h-0.9v-6.9c-1.2,1.1-2,1.6-2.5,1.9l-0.4-0.8c2.7-1.5,4.5-3.6,5.1-5.4h-5v-0.8h2.7
				v-2.7h0.9v2.7H77v0.8c-0.4,1.1-1.2,2.2-1.9,3c1,1.2,1.2,1.4,2.4,2.3L76.8,169.1z M81.7,159.6v4.7h3.7v0.8h-3.7v7.7h4.1v0.8h-9.2
				v-0.8h4.2v-7.7h-3.3v-0.8h3.3v-4.7H81.7z"/>
			<path d="M94.7,172.5c-1.3,0.8-3.1,1.4-4.6,1.8l-0.4-0.9c1.1-0.2,2.8-0.6,4.3-1.5L94.7,172.5z M103.2,164.7v6.8H90.8v-6.8H103.2z
				 M102.7,160.1v3.5H91.4v-3.5H102.7z M91.7,165.5v1.3h10.6v-1.3H91.7z M91.7,167.5v1.3h10.6v-1.3H91.7z M91.7,169.5v1.3h10.6v-1.3
				H91.7z M92.3,160.9v2h9.6v-2H92.3z M100,171.8c1.9,1.1,3.3,1.4,4.4,1.6l-0.5,0.9c-1.4-0.3-2.9-0.8-4.5-1.8L100,171.8z"/>
			<path d="M115,172.5c1.8-0.2,5.9-0.7,5.9-5.5c0-1.1-0.3-5.3-5.4-5.4c-0.3,2.8-0.6,6.2-2.2,8.7c-0.9,1.4-1.8,1.9-2.5,1.9
				c-1.6,0-2.7-1.9-2.7-4.4c0-4.1,2.9-7.1,7.3-7.1c5.4,0,6.5,3.9,6.5,6.2c0,4.7-3.5,6.2-6.6,6.5L115,172.5z M111.5,162.7
				c-2,1.4-2.5,3.4-2.5,5.1c0,1.3,0.5,3.4,1.8,3.4c0.5,0,1.1-0.3,1.8-1.4c1.6-2.5,1.8-6.5,2-8.1C113.3,161.8,112.4,162,111.5,162.7z
				"/>
			<path d="M170.4,168.8c-1.7-1-4.1-2.3-7.5-3.5v8.4h-1V160h1v4.3c2.9,0.9,5.4,2.2,8,3.5L170.4,168.8z"/>
			<path d="M189.4,166.4v1h-13.8v-1H189.4z"/>
			<path d="M194.9,172.7c2.8-0.7,8.9-2.5,10-10.7h-6.2c-1.1,1.8-2.3,3.1-4.3,4.5l-0.6-0.8c1.3-0.9,3.1-2.4,4.2-4.7h8
				c-0.8,10.1-8.2,11.9-10.7,12.5L194.9,172.7z"/>
		</g>
		<g>
			<path d="M132.3,161.6v-3.5h0.7v3.5h7.4v0.6h-6.9c1.2,3.1,3.6,5.6,7,7.7l-0.5,0.6c-4.9-3.1-6.5-6.7-7-8v7.1h3.8v0.6H133v3.3h-0.7
				v-3.3h-3.9v-0.6h3.9v-7.1c-0.8,1.9-2.5,5.2-6.9,8.1l-0.6-0.7c3.4-1.9,5.7-4.9,7-7.7h-6.9v-0.6H132.3z"/>
			<path d="M157.4,164.1h-15.5v-0.6h4.7c-0.2-1.1-0.5-2.2-0.9-3.2h-2.8v-0.6h6.3v-1.6h0.7v1.6h6.5v0.6h-2.8c-0.2,1-0.4,1.8-1,3.2
				h4.7V164.1z M155.3,173.6h-0.7v-0.8h-9.8v0.8H144v-7.9h11.3V173.6z M154.5,166.3h-9.8v2.6h9.8V166.3z M154.5,169.5h-9.8v2.6h9.8
				V169.5z M151.9,163.5c0.5-1,0.9-2.1,1-3.2h-6.5c0.4,1.1,0.7,2,0.9,3.2H151.9z"/>
		</g>
	</g>
</g>
</svg>
